<?xml version="1.0" encoding="UTF-8" standalone="no"?>
<svg
   xmlns:dc="http://purl.org/dc/elements/1.1/"
   xmlns:cc="http://creativecommons.org/ns#"
   xmlns:rdf="http://www.w3.org/1999/02/22-rdf-syntax-ns#"
   xmlns:svg="http://www.w3.org/2000/svg"
   xmlns="http://www.w3.org/2000/svg"
   xml:space="preserve"
   enable-background="new 0 0 512 512"
   viewBox="0 0 24 21"
   height="21"
   width="24"
   y="0px"
   x="0px"
   id="Layer_1"
   version="1.1"><metadata
     id="metadata33597"><rdf:RDF><cc:Work
         rdf:about=""><dc:format>image/svg+xml</dc:format><dc:type
           rdf:resource="http://purl.org/dc/dcmitype/StillImage" /><dc:title></dc:title></cc:Work></rdf:RDF></metadata><defs
     id="defs33595" /><g
     id="g34142"><path
       id="path33589"
       d="M 21.62991,9.06881 C 22.17037,8.16797 22.5,7.1265 22.5,6 22.5,2.6865 19.8135,0 16.5,0 13.74609,0 11.45072,1.86619 10.74459,4.39453 9.92578,3.53831 8.77734,3 7.5,3 5.01562,3 3,5.01487 3,7.5 3,8.03906 3.11137,8.55028 3.28416,9.02925 3.19046,9.02025 3.09666,9.00005 3,9.00005 c -1.65675,0 -3,2.09325 -3,3.75 0,1.65675 1.34325,3.75 3,3.75 l 9.52444,0 c 0.84375,-3 2.63381,-3.75 4.72556,-3.75 2.03025,0 3.77053,0.78806 4.64353,2.47416 C 23.11088,14.8418 24,13.5308 24,12.18755 24,10.74764 22.98338,9.35892 21.62991,9.06886 Z"
       style="fill:#ffffff" /><path
       id="path33591"
       d="m 17.25,13.5 c -2.07131,0 -3.75,1.67869 -3.75,3.75 0,2.07131 1.67869,3.75 3.75,3.75 C 19.32131,21 21,19.32131 21,17.25 21,15.17869 19.32131,13.5 17.25,13.5 Z m 0,6.60056 L 15.44972,18 16.5,18 l 0,-3 1.5,0 0,3 1.05028,0 -1.80028,2.10056 z"
       style="fill:#ffffff" /></g></svg>