<?xml version="1.0" encoding="UTF-8" standalone="no"?>
<!-- Created with Inkscape (http://www.inkscape.org/) -->

<svg
   xmlns:dc="http://purl.org/dc/elements/1.1/"
   xmlns:cc="http://creativecommons.org/ns#"
   xmlns:rdf="http://www.w3.org/1999/02/22-rdf-syntax-ns#"
   xmlns:svg="http://www.w3.org/2000/svg"
   xmlns="http://www.w3.org/2000/svg"
   version="1.1"
   width="33"
   height="33"
   viewBox="0 0 33 33"
   id="Layer_1"
   xml:space="preserve"><metadata
     id="metadata16114"><rdf:RDF><cc:Work
         rdf:about=""><dc:format>image/svg+xml</dc:format><dc:type
           rdf:resource="http://purl.org/dc/dcmitype/StillImage" /><dc:title></dc:title></cc:Work></rdf:RDF></metadata><defs
     id="defs16112" /><path
     d="m 16.5,0.5 c -8.83694,0 -16,7.16306 -16,16 0,8.83694 7.16306,16 16,16 8.83694,0 16,-7.16306 16,-16 0,-8.83694 -7.16306,-16 -16,-16 z m 0,29.5 C 9.04394,30 3,23.95606 3,16.5 3,9.04394 9.04394,3 16.5,3 23.95606,3 30,9.04394 30,16.5 30,23.95606 23.95606,30 16.5,30 z"
     id="path16106"
     style="fill:#ffffff" /><path
     d="m 16.5,8.5 c -4.41844,0 -8,3.582 -8,8 0,4.418 3.58156,8 8,8 4.418,0 8,-3.582 8,-8 0,-4.418 -3.582,-8 -8,-8 z M 20.03512,18.62112 18.62106,20.03519 16.5,17.91406 14.37887,20.03519 12.96431,18.62112 15.08544,16.5 12.96431,14.37887 14.37887,12.96481 16.5,15.08594 l 2.12112,-2.12113 1.41407,1.41406 -2.12113,2.12113 2.12106,2.12112 z"
     id="path16108"
     style="fill:#ff0000;fill-rule:evenodd" /></svg>