<?xml version="1.0" encoding="UTF-8" standalone="no"?>
<!-- Created with Inkscape (http://www.inkscape.org/) -->

<svg
   xmlns:dc="http://purl.org/dc/elements/1.1/"
   xmlns:cc="http://creativecommons.org/ns#"
   xmlns:rdf="http://www.w3.org/1999/02/22-rdf-syntax-ns#"
   xmlns:svg="http://www.w3.org/2000/svg"
   xmlns="http://www.w3.org/2000/svg"
   version="1.1"
   width="455.0665"
   height="50.25"
   id="svg2">
  <defs
     id="defs4" />
  <metadata
     id="metadata7">
    <rdf:RDF>
      <cc:Work
         rdf:about="">
        <dc:format>image/svg+xml</dc:format>
        <dc:type
           rdf:resource="http://purl.org/dc/dcmitype/StillImage" />
        <dc:title></dc:title>
      </cc:Work>
    </rdf:RDF>
  </metadata>
  <path
     d="m 0.0625,0.0625 0,50.125 m 5,-50.125 0,50.125 m 5,-50.125 0,50.125 m 5,-50.125 0,50.125 m 5,-50.125 0,50.125 m 5,-50.125 0,50.125 m 5,-50.125 0,50.125 m 5,-50.125 0,50.125 m 5,-50.125 0,50.125 m 5,-50.125 0,50.125 m 5,-50.125 0,50.125 m 5,-50.125 0,50.125 m 5,-50.125 0,50.125 m 5,-50.125 0,50.125 m 5,-50.125 0,50.125 m 5,-50.125 0,50.125 m 5,-50.125 0,50.125 m 5,-50.125 0,50.125 m 5,-50.125 0,50.125 m 5,-50.125 0,50.125 m 5,-50.125 0,50.125 m 5,-50.125 0,50.125 m 5,-50.125 0,50.125 m 5,-50.125 0,50.125 m 5,-50.125 0,50.125 m 5,-50.125 0,50.125 m 5,-50.125 0,50.125 m 5,-50.125 0,50.125 m 5,-50.125 0,50.125 m 5,-50.125 0,50.125 m 5,-50.125 0,50.125 m 5,-50.125 0,50.125 m 5,-50.125 0,50.125 m 5,-50.125 0,50.125 m 5,-50.125 0,50.125 m 5,-50.125 0,50.125 m 5,-50.125 0,50.125 m 5,-50.125 0,50.125 m 5,-50.125 0,50.125 m 5,-50.125 0,50.125 m 5,-50.125 0,50.125 m 5,-50.125 0,50.125 m 5,-50.125 0,50.125 m 5,-50.125 0,50.125 m 5,-50.125 0,50.125 m 5,-50.125 0,50.125 m 5,-50.125 0,50.125 m 5,-50.125 0,50.125 m 5,-50.125 0,50.125 m 5,-50.125 0,50.125 m 5,-50.125 0,50.125 m 5,-50.125 0,50.125 m 5,-50.125 0,50.125 m 5,-50.125 0,50.125 m 5,-50.125 0,50.125 m 5,-50.125 0,50.125 m 5,-50.125 0,50.125 m 5,-50.125 0,50.125 m 5,-50.125 0,50.125 m 5,-50.125 0,50.125 m 5,-50.125 0,50.125 m 5,-50.125 0,50.125 m 5,-50.125 0,50.125 m 5,-50.125 0,50.125 m 5,-50.125 0,50.125 m 5,-50.125 0,50.125 m 5,-50.125 0,50.125 m 5,-50.125 0,50.125 m 5,-50.125 0,50.125 m 5,-50.125 0,50.125 m 5,-50.125 0,50.125 m 5,-50.125 0,50.125 m 5,-50.125 0,50.125 m 5,-50.125 0,50.125 m 5,-50.125 0,50.125 m 5,-50.125 0,50.125 m 5,-50.125 0,50.125 m 5,-50.125 0,50.125 m 5,-50.125 0,50.125 m 5,-50.125 0,50.125 m 5,-50.125 0,50.125 m 5,-50.125 0,50.125 m 5,-50.125 0,50.125 m 5,-50.125 0,50.125 m 5,-50.125 0,50.125 m 5,-50.125 0,50.125 m 5,-50.125 0,50.125 m 5,-50.125 0,50.125 m 5,-50.125 0,50.125 m 5,-50.125 0,50.125 m 5,-50.125 0,50.125 m -450,-50.125 454.9415,0 m -454.9415,5 454.9415,0 m -454.9415,5 454.9415,0 m -454.9415,5 454.9415,0 m -454.9415,5 454.9415,0 m -454.9415,5 454.9415,0 m -454.9415,5 454.9415,0 m -454.9415,5 454.9415,0 m -454.9415,5 454.9415,0 m -454.9415,5 454.9415,0 m -454.9415,5 454.9415,0"
     id="path3063"
     style="fill:none;stroke:#000000;stroke-width:0.1pt;stroke-linecap:butt;stroke-linejoin:miter;stroke-opacity:1" />
</svg>
