<?xml version="1.0" encoding="UTF-8" standalone="no"?>
<svg
   xmlns:dc="http://purl.org/dc/elements/1.1/"
   xmlns:cc="http://creativecommons.org/ns#"
   xmlns:rdf="http://www.w3.org/1999/02/22-rdf-syntax-ns#"
   xmlns:svg="http://www.w3.org/2000/svg"
   xmlns="http://www.w3.org/2000/svg"
   xml:space="preserve"
   enable-background="new 0 0 512 512"
   viewBox="0 0 24 6"
   height="6"
   width="24"
   y="0px"
   x="0px"
   id="Layer_1"
   version="1.1"><metadata
     id="metadata32613"><rdf:RDF><cc:Work
         rdf:about=""><dc:format>image/svg+xml</dc:format><dc:type
           rdf:resource="http://purl.org/dc/dcmitype/StillImage" /><dc:title></dc:title></cc:Work></rdf:RDF></metadata><defs
     id="defs32611" /><g
     id="g33159"><path
       id="path32603"
       d="M 20.99419,0 C 19.33744,0 18,1.34034 18,2.99709 18,4.65384 19.33744,6 20.99419,6 22.65675,6 24,4.65384 24,2.99709 24,1.34034 22.65675,0 20.99419,0 Z"
       style="fill:#ffffff" /><path
       id="path32605"
       d="M 11.99419,0 C 10.33744,0 9,1.34034 9,2.99709 9,4.65384 10.33744,6 11.99419,6 13.65675,6 15,4.65384 15,2.99709 15,1.34034 13.65675,0 11.99419,0 Z"
       style="fill:#ffffff" /><path
       id="path32607"
       d="M 3,0 C 1.34175,0 0,1.34034 0,2.99709 0,4.65384 1.34175,6 3,6 4.65525,6 6,4.65384 6,2.99709 6,1.34034 4.65525,0 3,0 Z"
       style="fill:#ffffff" /></g></svg>