<svg width="64" height="64" xmlns="http://www.w3.org/2000/svg">
 <g>
  <title>Layer 1</title>
  <g id="CHART__x2F__3_x2F_4_1_">
   <g id="CHART__x2F__3_x2F_4">
    <g>
     <path d="m32,0c-17.673,0 -32,14.327 -32,32s14.327,32 32,32s32,-14.327 32,-32s-14.327,-32 -32,-32zm0,32h-26c0,-14.359 11.641,-26 26,-26v26l0,0z"/>
    </g>
   </g>
  </g>
  <path d="m26.5,14c0,1 -0.77025,1.02675 -1,2c-0.51374,2.17625 -1.4588,2.69344 -2,4c-0.38268,0.92388 0,2 0,3c0,1 0,2 0,3c0,1 -1.4588,1.69344 -2,3c-0.38268,0.92388 0,2 0,3l0,1" id="svg_5" stroke-width="5" stroke="#000000" fill="none"/>
  <path d="m30.5,27c-1,0 -2.4588,-0.30656 -3,1c-0.38268,0.92388 -2,3 -1,3c1,0 0,-2 0,-3l0,-1" id="svg_6" stroke-width="5" stroke="#000000" fill="none"/>
  <path d="m32.5,29.9c0,0.1 0,0.3 -0.1,0.4c-0.2,0.2 -0.37141,0.52117 -0.6,0.8c-0.26898,0.3281 -0.62117,0.57141 -0.9,0.8c-0.21873,0.17932 -0.47054,0.43462 -0.7,0.6c-0.1814,0.13074 -0.38238,0.34863 -0.6,0.4c-0.09732,0.02298 -0.2,0.1 -0.3,0.1c-0.1,0 0.1,0 0.3,0c0.2,0 0.51522,-0.02346 0.7,-0.1c0.26131,-0.10824 0.36106,-0.31593 0.5,-0.6c0.15841,-0.32389 0.35486,-0.57699 0.5,-1c0.16548,-0.4823 0.26913,-0.90718 0.4,-1.4c0.16233,-0.61127 0.16912,-1.00718 0.3,-1.5c0.08117,-0.30563 0.2,-0.5 0.2,-0.7c0,-0.2 -0.0186,-0.33075 -0.2,-0.2c-0.22945,0.16538 -0.39533,0.40719 -0.7,0.6c-0.49272,0.31181 -0.9404,0.54116 -1.4,0.9c-0.33441,0.2611 -0.6,0.6 -0.9,0.9c-0.2,0.2 -0.34188,0.44188 -0.5,0.6c-0.15812,0.15812 -0.20761,0.26173 -0.3,0.3c-0.13066,0.05412 -0.3,0.3 -0.2,0.3c0.2,0 -0.04806,-0.40387 0,-0.7c0.05065,-0.31214 0.33846,-0.77407 0.8,-1.5c0.98494,-1.54916 1.86826,-3.42322 2.9,-4.8c1.06771,-1.42478 2.21144,-2.69216 3.1,-4c0.60787,-0.8947 1.36729,-1.42803 1.8,-1.9c0.24366,-0.26577 0.34863,-0.38238 0.4,-0.6c0.02298,-0.09732 0,-0.2 0,-0.3c0,-0.1 -0.06926,-0.0814 -0.2,0.1c-0.08269,0.11473 -0.37949,0.42202 -0.7,0.7c-0.37772,0.3276 -1.00247,0.69723 -1.9,1.5c-1.00277,0.89691 -2,1.8 -2.9,2.7c-0.9,0.9 -1.61906,1.87798 -2.2,2.4c-0.53638,0.48198 -1.02117,0.67141 -1.3,0.9c-0.10937,0.08966 -0.28527,0.31731 -0.4,0.4c-0.1814,0.13074 -0.20761,0.16173 -0.3,0.2c-0.13066,0.05412 0,0.1 0.1,0c0.1,-0.1 0.11443,-0.29342 0.2,-0.5c0.12102,-0.29216 0.2,-0.6 0.2,-0.9c0,-0.3 -0.06109,-0.70374 0,-1.2c0.05038,-0.40922 0.24935,-0.88786 0.3,-1.2c0.04805,-0.29613 0,-0.6 0.1,-0.8c0.1,-0.2 0.14863,-0.38237 0.2,-0.6c0.02298,-0.09732 0.06925,-0.4186 0.2,-0.6c0.08269,-0.11473 0.34588,-0.36934 0.4,-0.5c0.07654,-0.18477 0.1,-0.3 0.2,-0.4c0.1,-0.1 0.21731,-0.08527 0.3,-0.2c0.13074,-0.1814 0.2,-0.3 0.4,-0.5c0.3,-0.3 0.52117,-0.47141 0.8,-0.7c0.21873,-0.17932 0.46111,-0.39281 0.7,-0.6c0.16892,-0.14651 0.24189,-0.34188 0.4,-0.5c0.15811,-0.15811 0.21731,-0.28527 0.3,-0.4c0.13075,-0.1814 0.1,-0.3 0.1,-0.4c0,-0.1 0.03827,-0.20761 0,-0.3c-0.05412,-0.13066 -0.29436,-0.11883 -0.6,-0.2c-0.49282,-0.13088 -0.90387,-0.15195 -1.2,-0.2c-0.31215,-0.05065 -0.6,-0.1 -0.8,-0.1c-0.3,0 -0.6,0 -1.2,0c-1,0 -2.6,0 -4.3,0c-1.7,0 -3.1,0.2 -4.1,0.2c-0.8,0 -1.41522,-0.07654 -1.6,0c-0.13066,0.05412 -0.3,0.3 -0.4,0.4c-0.2,0.2 -0.26173,0.30761 -0.3,0.4c-0.05412,0.13066 -0.2,0.1 -0.2,0.2l0,0.1l0,0.1l0.1,0" id="svg_7" stroke-width="5" stroke="#000000" fill="none"/>
  <path d="m18.3,32c0.1,0 0,0 -0.3,0c-0.2,0 -0.48786,-0.04935 -0.8,-0.1c-0.29613,-0.04806 -0.5,0 -0.7,0c-0.3,0 -0.5,0 -0.7,0c-0.2,0 -0.5,0 -0.7,0c-0.2,0 -0.4,0 -0.7,0c-0.2,0 -0.5,0 -0.8,0c-0.3,0 -0.6,0 -0.9,0c-0.3,0 -0.60387,0.04806 -0.9,0c-0.31214,-0.05065 -0.5,-0.2 -0.7,-0.2c-0.3,0 -0.4,0 -0.6,0c-0.1,0 -0.18527,-0.01731 -0.3,-0.1c-0.1814,-0.13074 -0.30761,-0.06173 -0.4,-0.1c-0.13066,-0.05412 -0.2,-0.1 -0.4,-0.1c-0.1,0 -0.3,0 -0.4,0c-0.2,0 -0.3,0 -0.4,0c-0.1,0 -0.2,0 -0.3,0c-0.1,0 -0.2,0 -0.3,0c-0.1,0 -0.2,0 -0.3,0c-0.1,0 -0.1,-0.1 -0.1,-0.2c0,-0.1 0,-0.2 0,-0.3c0,-0.1 0,-0.2 0,-0.3c0,-0.1 0,-0.2 0,-0.3c0,-0.1 0,-0.2 0,-0.3c0,-0.1 0,-0.2 0,-0.4c0,-0.1 0,-0.2 0,-0.3c0,-0.1 0,-0.2 0,-0.3c0,-0.1 0,-0.2 0,-0.3c0,-0.1 -0.03827,-0.20761 0,-0.3c0.05412,-0.13066 0.12929,-0.22929 0.2,-0.3c0.07071,-0.07071 0.06173,-0.10761 0.1,-0.2c0.05412,-0.13066 0.06173,-0.20761 0.1,-0.3c0.05412,-0.13066 0.15405,-0.10535 0.2,-0.3c0.05137,-0.21762 0.24935,-0.48786 0.3,-0.8c0.04805,-0.29613 0.11443,-0.59341 0.2,-0.8c0.12102,-0.29216 0.1,-0.5 0.2,-0.7c0.1,-0.2 0.2,-0.5 0.3,-0.7c0.1,-0.2 0.16926,-0.4186 0.3,-0.6c0.08269,-0.11473 0.2,-0.3 0.2,-0.4c0,-0.1 -0.02297,-0.20267 0,-0.3c0.05137,-0.21763 0.24935,-0.28786 0.3,-0.6c0.03204,-0.19742 0.11443,-0.39341 0.2,-0.6c0.12101,-0.29216 0.1,-0.5 0.1,-0.7c0,-0.2 0.05405,-0.50535 0.1,-0.7c0.05137,-0.21762 0.14588,-0.36934 0.2,-0.5c0.07654,-0.18477 0.1,-0.4 0.2,-0.6c0.1,-0.2 0.07898,-0.50784 0.2,-0.8c0.08557,-0.20659 0.16796,-0.40258 0.2,-0.6c0.05065,-0.31214 0.24863,-0.38237 0.3,-0.6c0.04595,-0.19465 0.06925,-0.3186 0.2,-0.5c0.08269,-0.11473 0.08527,-0.21731 0.2,-0.3c0.1814,-0.13075 0.23869,-0.29176 0.5,-0.4c0.09239,-0.03827 0.27055,-0.13462 0.5,-0.3c0.1814,-0.13075 0.46111,-0.19281 0.7,-0.4c0.16892,-0.14651 0.28776,-0.3066 0.4,-0.5c0.18097,-0.31185 0.33462,-0.47055 0.5,-0.7c0.13074,-0.1814 0.26925,-0.5186 0.4,-0.7c0.16538,-0.22945 0.34189,-0.34189 0.5,-0.5c0.15811,-0.15811 0.30784,-0.27899 0.6,-0.4c0.20659,-0.08557 0.5,-0.2 0.8,-0.3c0.3,-0.1 0.57611,-0.14159 0.9,-0.3c0.28407,-0.13894 0.5,-0.2 0.7,-0.3c0.2,-0.1 0.26934,-0.14588 0.4,-0.2c0.09239,-0.03827 0.17702,-0.00268 0.2,-0.1c0.05137,-0.21762 0.2,-0.3 0.3,-0.5c0.1,-0.2 0.27055,-0.33462 0.5,-0.5c0.1814,-0.13075 0.50718,-0.26912 1,-0.4c0.61127,-0.16233 1.17699,-0.35486 1.6,-0.5c0.4823,-0.16548 0.78238,-0.34863 1,-0.4c0.19465,-0.04595 0.4,-0.1 0.5,-0.2c0.1,-0.1 0.2186,-0.06925 0.4,-0.2c0.11473,-0.08269 0.41593,-0.16107 0.7,-0.3c0.32389,-0.15841 0.55492,-0.39552 0.9,-0.5c0.28713,-0.08694 0.6,-0.1 0.9,-0.2c0.3,-0.1 0.6,-0.1 0.8,-0.2c0.2,-0.1 0.4,-0.2 0.6,-0.2c0.1,0 0.3,0 0.5,0c0.2,0 0.5,0 0.8,0c0.3,0 0.6,0 0.9,0c0.3,0 0.6,0 0.9,0c0.3,0 0.6,0 0.9,0c0.2,0 0.3,0 0.5,0c0.1,0 0.2,0 0.3,0c0.1,0 0.1,0.1 0.1,0.2c0,0.1 0,0.2 0,0.3c0,0.1 0,0.2 0,0.4c0,0.1 -0.07702,0.30268 -0.1,0.4c-0.05137,0.21762 -0.2,0.2 -0.2,0.3c0,0.1 -0.06926,0.2186 -0.2,0.4c-0.08269,0.11473 -0.12565,0.2797 -0.2,0.4c-0.16625,0.269 -0.1,0.4 -0.1,0.6c0,0.1 -0.1,0.3 -0.1,0.4c0,0.2 -0.14588,0.26934 -0.2,0.4c-0.03827,0.09239 -0.1,0.1 -0.1,0.2c0,0.1 -0.06934,0.14588 -0.2,0.2c-0.09239,0.03827 -0.2,0 -0.3,0c-0.1,0 -0.20535,0.04595 -0.4,0c-0.21763,-0.05137 -0.4,-0.2 -0.7,-0.2c-0.3,0 -0.6,0 -0.9,0c-0.3,0 -0.6,0 -0.9,0c-0.3,0 -0.6,0 -1.1,0c-0.4,0 -1,0 -1.5,0c-0.4,0 -0.9,0 -1.2,0c-0.3,0 -0.5,0 -0.7,0c-0.2,0 -0.5,0 -0.6,0c-0.2,0 -0.38244,-0.09021 -0.5,0.1c-0.05257,0.08506 -0.10761,0.06173 -0.2,0.1c-0.13066,0.05412 -0.06934,0.24588 -0.2,0.3c-0.09239,0.03827 -0.2,0.1 -0.4,0.3c-0.1,0.1 -0.27055,0.33462 -0.5,0.5c-0.1814,0.13075 -0.34189,0.24189 -0.5,0.4c-0.15811,0.15811 -0.22346,0.31522 -0.3,0.5c-0.05412,0.13066 -0.2,0.3 -0.3,0.4c-0.1,0.1 -0.03375,0.231 -0.2,0.5c-0.1487,0.2406 -0.37898,0.50784 -0.5,0.8c-0.17114,0.41317 -0.3,0.9 -0.3,1.2c0,0.3 0,0.5 0,0.8c0,0.2 0,0.5 0,0.8c0,0.3 0.1,0.6 0.2,0.9c0.1,0.3 0.10954,0.59773 0.2,1c0.11187,0.49748 0.2,0.9 0.2,1.4c0,0.4 0,0.9 0,1.3c0,0.5 0.07614,1.10447 0.2,1.7c0.08396,0.40367 0.08472,0.90413 0.2,1.3c0.08841,0.30362 0.2,0.5 0.2,0.8c0,0.1 0,0.2 0,0.3c0,0.1 0,0.2 0,0.3c0,0.1 0,0.3 0,0.4c0,0.2 0,0.3 0,0.5c0,0.1 0,0.3 0,0.5c0,0.3 -0.05486,0.57699 -0.2,1c-0.16548,0.4823 -0.26106,0.91593 -0.4,1.2c-0.15841,0.32389 -0.27703,0.50268 -0.3,0.6c-0.05137,0.21762 -0.22929,0.22929 -0.3,0.3c-0.07071,0.07071 -0.02929,0.22929 -0.1,0.3c-0.07071,0.07071 -0.2,0 -0.3,0c-0.1,0 -0.2,0 -0.3,0c-0.1,0 -0.16173,-0.00761 -0.2,-0.1c-0.10824,-0.26131 -0.25405,-0.50535 -0.3,-0.7c-0.05137,-0.21762 -0.13375,-0.431 -0.3,-0.7c-0.1487,-0.2406 -0.3513,-0.3594 -0.5,-0.6c-0.16625,-0.269 -0.24189,-0.44189 -0.4,-0.6c-0.15812,-0.15811 -0.34159,-0.27611 -0.5,-0.6c-0.13894,-0.28407 -0.31477,-0.69434 -0.5,-1.2c-0.21754,-0.59386 -0.49775,-1.30053 -0.9,-3c-0.49721,-2.10066 -1.03673,-3.76116 -1.4,-5.3c-0.16246,-0.68819 -0.24935,-1.08786 -0.3,-1.4c-0.04805,-0.29613 -0.1,-0.4 -0.1,-0.5c0,-0.1 0,-0.2 0,0c0,0.2 0.04976,0.49258 0.1,1c0.03942,0.39805 0.1,0.9 0.1,1.3c0,0.5 0,1.1 0,1.7c0,0.6 0,1.2 0,1.7c0,0.5 0,0.9 0,1.2c0,0.3 -0.04962,0.79078 -0.1,1.2c-0.07331,0.5955 -0.14655,1.18381 -0.3,1.7c-0.14529,0.48876 -0.1,0.8 -0.2,1c-0.1,0.2 -0.2,0.3 -0.2,0.4c0,0.1 0,0.2 0,0.3c0,0.1 0,0.2 0,0.3c0,0.1 0,0.3 0,0.4c0,0.2 0.0814,0.35489 0.6,0.5c0.58578,0.1639 1.70511,0.25089 2.9,0.4c1.20719,0.15064 2.19488,0.2306 3.3,0.4c0.79692,0.12216 1.5,0.1 2.3,0.1c0.5,0 0.8,0.1 1.1,0.1c0.3,0 0.95065,-0.11214 0.9,0.2c-0.01602,0.09871 -0.3,0 -0.6,0c-0.6,0 -1.3,0 -2.4,0c-1.2,0 -2.37904,0.30187 -3.6,0.5c-1.287,0.20885 -2.48648,0.39959 -3.6,0.5c-0.89636,0.08083 -1.68669,0.15442 -2.4,0.3c-0.78994,0.16122 -1.26475,0.19725 -1.7,0.3c-0.29198,0.06892 -0.5,0 -0.8,0c-0.1,0 -0.3,0 -0.4,0c-0.2,0 -0.3,0 -0.5,0c-0.1,0 -0.3,0 -0.4,0c-0.2,0 -0.5,0 -0.8,0c-0.3,0 -0.6,0 -0.9,0c-0.3,0 -0.6,0 -0.7,0c-0.2,0 -0.20761,-0.06173 -0.3,-0.1c-0.13066,-0.05412 -0.2,-0.2 -0.2,-0.3c0,-0.1 0,-0.2 0,-0.3c0,-0.2 0,-0.3 0,-0.4c0,-0.1 0,-0.2 0.1,-0.3c0.1,-0.1 0.2,-0.2 0.3,-0.2c0.1,0 0.20761,0.03827 0.3,0c0.13066,-0.05412 0.18527,-0.21731 0.3,-0.3c0.1814,-0.13074 0.3186,-0.26926 0.5,-0.4c0.11473,-0.08269 0.22929,-0.12929 0.3,-0.2c0.07071,-0.07071 0.06934,-0.24588 0.2,-0.3c0.09239,-0.03827 0.1,-0.1 0.2,-0.2c0.1,-0.1 0.12929,-0.12929 0.2,-0.2c0.07071,-0.07071 0.1,-0.1 0.1,-0.2c0,-0.1 0,-0.3 0,-0.4c0,-0.1 0.07071,-0.22929 0,-0.3c-0.07071,-0.07071 -0.2,0.1 -0.3,0.4c-0.1,0.3 -0.1,0.6 -0.1,1c0,0.6 0,1.2 0,1.8c0,0.6 0.14935,1.08785 0.2,1.4c0.04806,0.29613 0,0.5 0,0.6c0,0.1 -0.1,0.3 0,0.3c0.2,0 0,-0.3 0,-0.5c0,-0.2 0,-0.5 0,-0.8c0,-0.5 -0.14354,-1.1091 -0.3,-1.9c-0.22127,-1.1185 -0.26107,-2.30518 -0.4,-3.2c-0.07823,-0.50387 -0.2,-0.8 -0.2,-1c0,-0.2 0,-0.4 0,-0.5c0,-0.1 0.11493,-0.14743 0.2,-0.2c0.19021,-0.11756 0.2,-0.3 0.3,-0.5c0.1,-0.2 0.07898,-0.40784 0.2,-0.7c0.08557,-0.20659 0.16796,-0.40258 0.2,-0.6c0.05065,-0.31215 0.24863,-0.38237 0.3,-0.6c0.02298,-0.09732 0.11731,-0.28527 0.2,-0.4c0.13075,-0.1814 0.06926,-0.3186 0.2,-0.5c0.08269,-0.11473 0.17703,-0.30268 0.2,-0.4c0.05137,-0.21763 0.24935,-0.48786 0.3,-0.8c0.04805,-0.29613 0.1,-0.6 0.2,-0.9c0.1,-0.3 0.21903,-0.58815 0.4,-0.9c0.11224,-0.1934 0.26925,-0.4186 0.4,-0.6c0.16538,-0.22945 0.2,-0.3 0.3,-0.4c0.1,-0.1 0.10761,-0.13827 0.2,-0.1c0.13066,0.05412 0.3,-0.3 0.6,-0.4c0.6,-0.2 1.2,-0.4 1.8,-0.6c0.9,-0.3 1.67428,-0.73446 2.2,-1.1c0.47874,-0.33288 0.8,-0.6 1.1,-0.9c0.3,-0.3 0.6,-0.6 0.9,-0.9c0.3,-0.3 0.6,-0.5 0.8,-0.7c0.2,-0.2 0.5186,-0.36925 0.7,-0.5c0.22945,-0.16538 0.43462,-0.27055 0.6,-0.5c0.13074,-0.1814 0.19281,-0.4611 0.4,-0.7c0.14651,-0.16892 0.34189,-0.24189 0.5,-0.4c0.15811,-0.15811 0.24189,-0.34189 0.4,-0.5c0.15811,-0.15811 0.4066,-0.28777 0.6,-0.4c0.31185,-0.18097 0.57699,-0.35486 1,-0.5c0.4823,-0.16548 0.9177,-0.23452 1.4,-0.4c0.42301,-0.14514 0.87471,-0.2617 1.3,-0.4c0.57846,-0.18811 1.18761,-0.13432 1.7,-0.3c0.39231,-0.12685 0.90413,-0.18472 1.3,-0.3c0.30362,-0.08841 0.6066,-0.28777 0.8,-0.4c0.31185,-0.18097 0.44188,-0.34189 0.6,-0.5c0.15811,-0.15811 0.3,-0.2 0.4,-0.3c0.1,-0.1 0.2,-0.1 0.2,-0.2c0,-0.1 -0.01473,-0.21731 0.1,-0.3c0.1814,-0.13075 0.47471,-0.2617 0.9,-0.4c0.57846,-0.18811 1.50504,-0.17627 2.5,-0.4c0.40226,-0.09046 0.90784,-0.07898 1.2,-0.2c0.20658,-0.08557 0.3,-0.2 0.5,-0.2c0.1,0 0.22929,-0.07071 0.3,0c0.14142,0.14142 0,0.5 0,0.9c0,0.5 -0.14935,0.88786 -0.2,1.2c-0.04805,0.29613 -0.14189,0.44189 -0.3,0.6c-0.15812,0.15811 -0.22347,0.31522 -0.3,0.5c-0.05412,0.13066 -0.24588,0.06934 -0.3,0.2c-0.03827,0.09239 -0.12929,0.12929 -0.2,0.2c-0.07071,0.07071 0,0.2 -0.1,0.3c-0.1,0.1 -0.16934,0.24588 -0.3,0.3c-0.09239,0.03827 -0.28858,0.13242 -1.1,0.4c-0.69139,0.22799 -2.40449,0.35744 -4.5,0.6c-2.20563,0.25531 -3.99536,0.62422 -5.5,0.9c-1.19662,0.21932 -2.17521,0.46863 -3.2,0.8c-0.78462,0.25371 -1.3876,0.43432 -1.9,0.6c-0.39231,0.12685 -0.7,0.2 -0.9,0.3c-0.2,0.1 -0.4,0.3 -0.5,0.4c-0.2,0.2 -0.3,0.3 -0.4,0.5c-0.1,0.2 -0.14935,0.48786 -0.2,0.8c-0.04805,0.29613 -0.03942,0.80195 0,1.2c0.05024,0.50742 0.17939,0.90874 0.4,1.4c0.1832,0.40797 0.44159,0.67611 0.6,1c0.13894,0.28407 0.23375,0.531 0.4,0.8c0.1487,0.2406 0.39176,0.23869 0.5,0.5c0.03827,0.09239 0.1,0.2 0.2,0.3c0.1,0.1 0.1,0 0.1,-0.2c0,-0.3 0.04935,-0.58786 0.1,-0.9c0.04805,-0.29613 0,-0.6 0,-0.9c0,-0.2 0,-0.4 0,-0.6c0,-0.1 0.1,-0.3 0,-0.3c-0.5,0 0,1.3 0,2.5c0,1.8 0.29992,3.79401 0.4,6.3c0.09178,2.29817 0.16056,4.60413 0.4,6.7c0.17177,1.50349 0.49951,2.78516 0.6,3.8c0.05912,0.59708 0.10979,0.98244 0.3,1.1c0.08507,0.05257 0.1,-0.5 0.1,-1.2c0,-2.1 -0.09984,-4.80161 0,-7.9c0.10005,-3.10483 0.42956,-5.41109 0.7,-6.9c0.23843,-1.31269 0.4,-2 0.7,-2.6c0.1,-0.2 0.15858,-0.4 0.3,-0.4c0.14142,0 0.2,0.4 0.2,1c0,0.8 0.04935,1.48786 0.1,1.8c0.04805,0.29613 0,0.5 0,0.7c0,0.1 0,0.2 0.1,0.3c0.1,0.1 0.2,0.1 0.3,-0.2c0.2,-0.6 0.38914,-1.32184 0.6,-2.1c0.19919,-0.73507 0.4,-1.1 0.5,-1.4l0.1,-0.1l0,-0.2l0.1,0" id="svg_8" stroke-width="5" stroke="#000000" fill="none"/>
  <path d="m13.1,28c-0.4,0 -0.92294,0.1332 -1.3,0.3c-0.32973,0.14586 -0.62117,0.27141 -0.9,0.5c-0.10937,0.08966 -0.28527,0.21731 -0.4,0.3c-0.1814,0.13074 -0.3,0.1 -0.4,0.1l-0.1,0l-0.1,0" id="svg_9" stroke-width="5" stroke="#000000" fill="none"/>
 </g>
</svg>
