<?xml version="1.0" encoding="UTF-8" standalone="no"?>
<svg
   xmlns:dc="http://purl.org/dc/elements/1.1/"
   xmlns:cc="http://creativecommons.org/ns#"
   xmlns:rdf="http://www.w3.org/1999/02/22-rdf-syntax-ns#"
   xmlns:svg="http://www.w3.org/2000/svg"
   xmlns="http://www.w3.org/2000/svg"
   xml:space="preserve"
   id="Layer_1"
   viewBox="0 0 33 33"
   height="33"
   width="33"
   version="1.1"><metadata
     id="metadata12867"><rdf:RDF><cc:Work
         rdf:about=""><dc:format>image/svg+xml</dc:format><dc:type
           rdf:resource="http://purl.org/dc/dcmitype/StillImage" /><dc:title></dc:title></cc:Work></rdf:RDF></metadata><defs
     id="defs12865" /><g
     style="fill:#ffffff;fill-opacity:1"
     id="g12849"
     transform="matrix(0.0625,0,0,0.0625,0.5,0.5)"><path
       style="fill:#ffffff;fill-opacity:1"
       id="path12851"
       d="M 256,0 C 114.609,0 0,114.609 0,256 0,397.391 114.609,512 256,512 397.391,512 512,397.391 512,256 512,114.609 397.391,0 256,0 z m 0,472 C 136.703,472 40,375.297 40,256 40,136.703 136.703,40 256,40 c 119.297,0 216,96.703 216,216 0,119.297 -96.703,216 -216,216 z" /><path
       style="fill:#ffffff;fill-opacity:1"
       id="path12853"
       d="M 380.766,365.172 146.844,131.234 c -4.312,-4.312 -11.297,-4.312 -15.609,0 -4.312,4.312 -4.312,11.266 0,15.594 l 233.938,233.938 c 4.312,4.312 11.297,4.312 15.594,0 4.311,-4.297 4.311,-11.282 -10e-4,-15.594 z" /><g
       style="fill:#ffffff;fill-opacity:1"
       id="g12855"><path
         style="fill:#ffffff;fill-opacity:1"
         id="path12857"
         d="M 352,325.094 V 166.109 c 0,-19.75 -3.828,-27.797 -20.859,-17.812 L 233.875,206.969 352,325.094 z" /><path
         style="fill:#ffffff;fill-opacity:1"
         id="path12859"
         d="M 181.094,208 H 168 c -4.422,0 -8,3.578 -8,8 v 80 c 0,4.422 3.578,8 8,8 h 67.5 l 95.641,59.719 c 3.891,2.281 7.031,3.5 9.656,3.984 L 181.094,208 z" /></g><path
       style="fill:#ffffff;fill-opacity:1"
       id="path12861"
       d="M 380.766,365.172 146.844,131.234 c -4.312,-4.312 -11.297,-4.312 -15.609,0 -4.312,4.312 -4.312,11.266 0,15.594 l 233.938,233.938 c 4.312,4.312 11.297,4.312 15.594,0 4.311,-4.297 4.311,-11.282 -10e-4,-15.594 z" /></g></svg>