<?xml version="1.0" encoding="UTF-8" standalone="no"?>
<!-- Created with Inkscape (http://www.inkscape.org/) -->

<svg
   xmlns:dc="http://purl.org/dc/elements/1.1/"
   xmlns:cc="http://creativecommons.org/ns#"
   xmlns:rdf="http://www.w3.org/1999/02/22-rdf-syntax-ns#"
   xmlns:svg="http://www.w3.org/2000/svg"
   xmlns="http://www.w3.org/2000/svg"
   version="1.1"
   width="640.12604"
   height="480.40631"
   id="svg2">
  <defs
     id="defs4" />
  <metadata
     id="metadata7">
    <rdf:RDF>
      <cc:Work
         rdf:about="">
        <dc:format>image/svg+xml</dc:format>
        <dc:type
           rdf:resource="http://purl.org/dc/dcmitype/StillImage" />
        <dc:title></dc:title>
      </cc:Work>
    </rdf:RDF>
  </metadata>
  <g
     transform="translate(0.0625,0.0625)"
     id="layer1">
    <path
       d="M 0,0 0,480.28131 M 5,0 5,480.28131 M 10,0 10,480.28131 M 15,0 15,480.28131 M 20,0 20,480.28131 M 25,0 25,480.28131 M 30,0 30,480.28131 M 35,0 35,480.28131 M 40,0 40,480.28131 M 45,0 45,480.28131 M 50,0 50,480.28131 M 55,0 55,480.28131 M 60,0 60,480.28131 M 65,0 65,480.28131 M 70,0 70,480.28131 M 75,0 75,480.28131 M 80,0 80,480.28131 M 85,0 85,480.28131 M 90,0 90,480.28131 M 95,0 95,480.28131 M 100,0 100,480.28131 M 105,0 105,480.28131 M 110,0 110,480.28131 M 115,0 115,480.28131 M 120,0 120,480.28131 M 125,0 125,480.28131 M 130,0 130,480.28131 M 135,0 135,480.28131 M 140,0 140,480.28131 M 145,0 145,480.28131 M 150,0 150,480.28131 M 155,0 155,480.28131 M 160,0 160,480.28131 M 165,0 165,480.28131 M 170,0 170,480.28131 M 175,0 175,480.28131 M 180,0 180,480.28131 M 185,0 185,480.28131 M 190,0 190,480.28131 M 195,0 195,480.28131 M 200,0 200,480.28131 M 205,0 205,480.28131 M 210,0 210,480.28131 M 215,0 215,480.28131 M 220,0 220,480.28131 M 225,0 225,480.28131 M 230,0 230,480.28131 M 235,0 235,480.28131 M 240,0 240,480.28131 M 245,0 245,480.28131 M 250,0 250,480.28131 M 255,0 255,480.28131 M 260,0 260,480.28131 M 265,0 265,480.28131 M 270,0 270,480.28131 M 275,0 275,480.28131 M 280,0 280,480.28131 M 285,0 285,480.28131 M 290,0 290,480.28131 M 295,0 295,480.28131 M 300,0 300,480.28131 M 305,0 305,480.28131 M 310,0 310,480.28131 M 315,0 315,480.28131 M 320,0 320,480.28131 M 325,0 325,480.28131 M 330,0 330,480.28131 M 335,0 335,480.28131 M 340,0 340,480.28131 M 345,0 345,480.28131 M 350,0 350,480.28131 M 355,0 355,480.28131 M 360,0 360,480.28131 M 365,0 365,480.28131 M 370,0 370,480.28131 M 375,0 375,480.28131 M 380,0 380,480.28131 M 385,0 385,480.28131 M 390,0 390,480.28131 M 395,0 395,480.28131 M 400,0 400,480.28131 M 405,0 405,480.28131 M 410,0 410,480.28131 M 415,0 415,480.28131 M 420,0 420,480.28131 M 425,0 425,480.28131 M 430,0 430,480.28131 M 435,0 435,480.28131 M 440,0 440,480.28131 M 445,0 445,480.28131 M 450,0 450,480.28131 M 455,0 455,480.28131 M 460,0 460,480.28131 M 465,0 465,480.28131 M 470,0 470,480.28131 M 475,0 475,480.28131 M 480,0 480,480.28131 M 485,0 485,480.28131 M 490,0 490,480.28131 M 495,0 495,480.28131 M 500,0 500,480.28131 M 505,0 505,480.28131 M 510,0 510,480.28131 M 515,0 515,480.28131 M 520,0 520,480.28131 M 525,0 525,480.28131 M 530,0 530,480.28131 M 535,0 535,480.28131 M 540,0 540,480.28131 M 545,0 545,480.28131 M 550,0 550,480.28131 M 555,0 555,480.28131 M 560,0 560,480.28131 M 565,0 565,480.28131 M 570,0 570,480.28131 M 575,0 575,480.28131 M 580,0 580,480.28131 M 585,0 585,480.28131 M 590,0 590,480.28131 M 595,0 595,480.28131 M 600,0 600,480.28131 M 605,0 605,480.28131 M 610,0 610,480.28131 M 615,0 615,480.28131 M 620,0 620,480.28131 M 625,0 625,480.28131 M 630,0 630,480.28131 M 635,0 635,480.28131 M 640,0 640,480.28131 M 0,0 640.00104,0 M 0,5 640.00104,5 M 0,10 640.00104,10 M 0,15 640.00104,15 M 0,20 640.00104,20 M 0,25 640.00104,25 M 0,30 640.00104,30 M 0,35 640.00104,35 M 0,40 640.00104,40 M 0,45 640.00104,45 M 0,50 640.00104,50 M 0,55 640.00104,55 M 0,60 640.00104,60 M 0,65 640.00104,65 M 0,70 640.00104,70 M 0,75 640.00104,75 M 0,80 640.00104,80 M 0,85 640.00104,85 M 0,90 640.00104,90 M 0,95 640.00104,95 M 0,100 640.00104,100 M 0,105 640.00104,105 M 0,110 640.00104,110 M 0,115 640.00104,115 M 0,120 640.00104,120 M 0,125 640.00104,125 M 0,130 640.00104,130 M 0,135 640.00104,135 M 0,140 640.00104,140 M 0,145 640.00104,145 M 0,150 640.00104,150 M 0,155 640.00104,155 M 0,160 640.00104,160 M 0,165 640.00104,165 M 0,170 640.00104,170 M 0,175 640.00104,175 M 0,180 640.00104,180 M 0,185 640.00104,185 M 0,190 640.00104,190 M 0,195 640.00104,195 M 0,200 640.00104,200 M 0,205 640.00104,205 M 0,210 640.00104,210 M 0,215 640.00104,215 M 0,220 640.00104,220 M 0,225 640.00104,225 M 0,230 640.00104,230 M 0,235 640.00104,235 M 0,240 640.00104,240 M 0,245 640.00104,245 M 0,250 640.00104,250 M 0,255 640.00104,255 M 0,260 640.00104,260 M 0,265 640.00104,265 M 0,270 640.00104,270 M 0,275 640.00104,275 M 0,280 640.00104,280 M 0,285 640.00104,285 M 0,290 640.00104,290 M 0,295 640.00104,295 M 0,300 640.00104,300 M 0,305 640.00104,305 M 0,310 640.00104,310 M 0,315 640.00104,315 M 0,320 640.00104,320 M 0,325 640.00104,325 M 0,330 640.00104,330 M 0,335 640.00104,335 M 0,340 640.00104,340 M 0,345 640.00104,345 M 0,350 640.00104,350 M 0,355 640.00104,355 M 0,360 640.00104,360 M 0,365 640.00104,365 M 0,370 640.00104,370 M 0,375 640.00104,375 M 0,380 640.00104,380 M 0,385 640.00104,385 M 0,390 640.00104,390 M 0,395 640.00104,395 M 0,400 640.00104,400 M 0,405 640.00104,405 M 0,410 640.00104,410 M 0,415 640.00104,415 M 0,420 640.00104,420 M 0,425 640.00104,425 M 0,430 640.00104,430 M 0,435 640.00104,435 M 0,440 640.00104,440 M 0,445 640.00104,445 M 0,450 640.00104,450 M 0,455 640.00104,455 M 0,460 640.00104,460 M 0,465 640.00104,465 M 0,470 640.00104,470 M 0,475 640.00104,475 M 0,480 l 640.00104,0"
       id="path2987"
       style="fill:none;stroke:#000000;stroke-width:0.1pt;stroke-linecap:butt;stroke-linejoin:miter;stroke-opacity:1" />
  </g>
</svg>
