<?xml version="1.0" encoding="UTF-8" standalone="no"?>
<!-- Created with Inkscape (http://www.inkscape.org/) -->

<svg
   xmlns:dc="http://purl.org/dc/elements/1.1/"
   xmlns:cc="http://creativecommons.org/ns#"
   xmlns:rdf="http://www.w3.org/1999/02/22-rdf-syntax-ns#"
   xmlns:svg="http://www.w3.org/2000/svg"
   xmlns="http://www.w3.org/2000/svg"
   version="1.1"
   width="32.009197"
   height="32.009197"
   viewBox="0 0 32.009197 32.009197"
   id="Capa_1"
   xml:space="preserve"><metadata
     id="metadata3546"><rdf:RDF><cc:Work
         rdf:about=""><dc:format>image/svg+xml</dc:format><dc:type
           rdf:resource="http://purl.org/dc/dcmitype/StillImage" /><dc:title></dc:title></cc:Work></rdf:RDF></metadata><defs
     id="defs3544" /><g
     transform="matrix(0.70738554,0,0,0.70738554,0.35369277,0.35369277)"
     id="g3506"
     style="fill:#ff0000;stroke:#ff0000"><path
       d="M 22.118,44.237 C 9.922,44.237 0,34.314 0,22.118 0,9.922 9.922,0 22.118,0 c 12.196,0 22.119,9.922 22.119,22.118 0,12.196 -9.923,22.119 -22.119,22.119 z m 0,-42.737 C 10.75,1.5 1.5,10.749 1.5,22.118 c 0,11.369 9.25,20.619 20.618,20.619 11.37,0 20.619,-9.25 20.619,-20.619 C 42.737,10.749 33.488,1.5 22.118,1.5 z"
       id="path3508"
       style="fill:#ff0000;stroke:#ff0000" /></g><g
     transform="translate(-6.1185002,-6.1185002)"
     id="g3512" /><g
     transform="translate(-6.1185002,-6.1185002)"
     id="g3514" /><g
     transform="translate(-6.1185002,-6.1185002)"
     id="g3516" /><g
     transform="translate(-6.1185002,-6.1185002)"
     id="g3518" /><g
     transform="translate(-6.1185002,-6.1185002)"
     id="g3520" /><g
     transform="translate(-6.1185002,-6.1185002)"
     id="g3522" /><g
     transform="translate(-6.1185002,-6.1185002)"
     id="g3524" /><g
     transform="translate(-6.1185002,-6.1185002)"
     id="g3526" /><g
     transform="translate(-6.1185002,-6.1185002)"
     id="g3528" /><g
     transform="translate(-6.1185002,-6.1185002)"
     id="g3530" /><g
     transform="translate(-6.1185002,-6.1185002)"
     id="g3532" /><g
     transform="translate(-6.1185002,-6.1185002)"
     id="g3534" /><g
     transform="translate(-6.1185002,-6.1185002)"
     id="g3536" /><g
     transform="translate(-6.1185002,-6.1185002)"
     id="g3538" /><g
     transform="translate(-6.1185002,-6.1185002)"
     id="g3540" /><text
     x="10.484941"
     y="22.20442"
     id="text3616"
     xml:space="preserve"
     style="font-size:16.20000076px;font-style:normal;font-weight:normal;line-height:125%;letter-spacing:0px;word-spacing:0px;fill:#ff0000;fill-opacity:1;stroke:none;font-family:Sans"><tspan
       x="10.484941"
       y="22.20442"
       id="tspan3618">X</tspan></text>
</svg>