<?xml version="1.0" encoding="UTF-8" standalone="no"?>
<!-- Created with Inkscape (http://www.inkscape.org/) -->

<svg
   xmlns:dc="http://purl.org/dc/elements/1.1/"
   xmlns:cc="http://creativecommons.org/ns#"
   xmlns:rdf="http://www.w3.org/1999/02/22-rdf-syntax-ns#"
   xmlns:svg="http://www.w3.org/2000/svg"
   xmlns="http://www.w3.org/2000/svg"
   version="1.1"
   width="33"
   height="33"
   viewBox="0 0 33 33"
   id="Layer_1"
   xml:space="preserve"><metadata
     id="metadata16036"><rdf:RDF><cc:Work
         rdf:about=""><dc:format>image/svg+xml</dc:format><dc:type
           rdf:resource="http://purl.org/dc/dcmitype/StillImage" /><dc:title></dc:title></cc:Work></rdf:RDF></metadata><defs
     id="defs16034" /><g
     transform="matrix(0.0625,0,0,0.0625,0.5,0.5)"
     id="g16026"
     style="fill:#ffffff"><path
       d="M 256,0 C 114.609,0 0,114.609 0,256 0,397.391 114.609,512 256,512 397.391,512 512,397.391 512,256 512,114.609 397.391,0 256,0 z m 0,472 C 136.703,472 40,375.297 40,256 40,136.703 136.703,40 256,40 c 119.297,0 216,96.703 216,216 0,119.297 -96.703,216 -216,216 z"
       id="path16028"
       style="fill:#ffffff" /><polygon
       points="192,336 352,256 192,176 "
       id="polygon16030"
       style="fill:#ffffff" /></g></svg>