<?xml version="1.0" encoding="UTF-8" standalone="no"?>
<!-- Created with Inkscape (http://www.inkscape.org/) -->

<svg
   xmlns:dc="http://purl.org/dc/elements/1.1/"
   xmlns:cc="http://creativecommons.org/ns#"
   xmlns:rdf="http://www.w3.org/1999/02/22-rdf-syntax-ns#"
   xmlns:svg="http://www.w3.org/2000/svg"
   xmlns="http://www.w3.org/2000/svg"
   version="1.1"
   width="32"
   height="32.000362"
   id="svg5023">
  <defs
     id="defs5025" />
  <metadata
     id="metadata5028">
    <rdf:RDF>
      <cc:Work
         rdf:about="">
        <dc:format>image/svg+xml</dc:format>
        <dc:type
           rdf:resource="http://purl.org/dc/dcmitype/StillImage" />
        <dc:title></dc:title>
        <cc:license
           rdf:resource="http://artlibre.org/licence/lal" />
      </cc:Work>
      <cc:License
         rdf:about="http://artlibre.org/licence/lal">
        <cc:permits
           rdf:resource="http://creativecommons.org/ns#Reproduction" />
        <cc:permits
           rdf:resource="http://creativecommons.org/ns#Distribution" />
        <cc:permits
           rdf:resource="http://creativecommons.org/ns#DerivativeWorks" />
        <cc:requires
           rdf:resource="http://creativecommons.org/ns#ShareAlike" />
        <cc:requires
           rdf:resource="http://creativecommons.org/ns#Notice" />
        <cc:requires
           rdf:resource="http://creativecommons.org/ns#Attribution" />
      </cc:License>
    </rdf:RDF>
  </metadata>
  <g
     id="g5098"
     style="fill:#ffffff">
    <g
       transform="matrix(0.49999997,0,0,0.49999997,2.3722849e-6,4.9999997e-5)"
       id="g5093"
       style="fill:#ffffff">
      <g
         transform="translate(-307.99998,-454.64755)"
         id="g6455"
         style="fill:#ffffff">
        <g
           id="g6423"
           style="fill:#ffffff">
          <path
             d="m 340.57853,454.65045 -0.59117,-0.003 c -17.32046,0 -31.66546,14.09003 -31.98206,31.4161 -0.3194,17.64546 13.77064,32.25943 31.4133,32.58163 l 0.58837,0.003 c 17.32046,0 31.67106,-14.09564 31.98766,-31.4161 0.1541,-8.55096 -3.0259,-16.64524 -8.96002,-22.79509 -5.93412,-6.15827 -13.90792,-9.62404 -22.45608,-9.78654 z m -0.57156,61.70029 -0.55194,-0.008 c -16.37347,-0.29138 -29.45487,-13.85749 -29.15509,-30.23376 0.29139,-16.08208 13.60534,-29.16348 29.68462,-29.16348 l 0.55194,0.006 c 7.93738,0.13729 15.33682,3.36491 20.84227,9.08049 5.51106,5.70999 8.46411,13.2243 8.32122,21.15047 -0.29418,16.08488 -13.61654,29.16909 -29.69302,29.16909 z"
             id="path4050"
             style="fill:#ffffff" />
        </g>
      </g>
    </g>
  </g>
  <path
     d="m 12.9205,10.301306 c -0.16,0.16 -0.16,0.42 0,0.58 l 5.121,5.121 -5.121,5.117 c -0.16,0.16 -0.16,0.419 0,0.579 0.08,0.08 0.186,0.12 0.291,0.12 0.104,0 0.209,-0.04 0.289,-0.12 l 5.699,-5.696 -5.699,-5.701 c -0.16,-0.159 -0.42,-0.159 -0.58,0 z"
     id="path4567"
     style="fill:#ffffff" />
</svg>
