<?xml version="1.0" encoding="UTF-8" standalone="no"?>
<!-- Created with Inkscape (http://www.inkscape.org/) -->

<svg
   xmlns:dc="http://purl.org/dc/elements/1.1/"
   xmlns:cc="http://creativecommons.org/ns#"
   xmlns:rdf="http://www.w3.org/1999/02/22-rdf-syntax-ns#"
   xmlns:svg="http://www.w3.org/2000/svg"
   xmlns="http://www.w3.org/2000/svg"
   version="1.1"
   width="33"
   height="33"
   viewBox="0 0 33 33"
   id="Layer_1"
   xml:space="preserve"><metadata
     id="metadata11505"><rdf:RDF><cc:Work
         rdf:about=""><dc:format>image/svg+xml</dc:format><dc:type
           rdf:resource="http://purl.org/dc/dcmitype/StillImage" /><dc:title></dc:title></cc:Work></rdf:RDF></metadata><defs
     id="defs11503" /><g
     id="g3945"><path
       d="m 16.5,0.5 c -8.83694,0 -16,7.16306 -16,16 0,8.83694 7.16306,16 16,16 8.83694,0 16,-7.16306 16,-16 0,-8.83694 -7.16306,-16 -16,-16 z m 0,29.5 C 9.04394,30 3,23.95606 3,16.5 3,9.04394 9.04394,3 16.5,3 23.95606,3 30,9.04394 30,16.5 30,23.95606 23.95606,30 16.5,30 z"
       id="path11497"
       style="fill:#ffffff" /><path
       d="m 22.65962,15.28325 c 0.40138,1.98731 -0.17187,4.12794 -1.71775,5.66894 -2.45212,2.45018 -6.43168,2.45018 -8.88575,0 -2.45506,-2.44925 -2.45412,-6.418 0,-8.86619 C 14.4995,9.6495 18.48,9.67094 20.90575,12.0557 l -0.86425,0.89944 3.97556,0.90431 -1.11719,-3.876 -0.80568,0.83594 c -3.23244,-3.16213 -8.14557,-3.04007 -11.251,0.0566 -3.124,3.11719 -3.124,8.16894 0,11.28513 3.125,3.11819 8.1885,3.11819 11.3125,0 1.76562,-1.75782 2.53125,-4.13282 2.30568,-6.42675 l -1.80175,-0.45119 z"
       id="path11499"
       style="fill:#ffffff" /></g></svg>