<?xml version="1.0" encoding="UTF-8" standalone="no"?>
<!-- Created with Inkscape (http://www.inkscape.org/) -->

<svg
   xmlns:dc="http://purl.org/dc/elements/1.1/"
   xmlns:cc="http://creativecommons.org/ns#"
   xmlns:rdf="http://www.w3.org/1999/02/22-rdf-syntax-ns#"
   xmlns:svg="http://www.w3.org/2000/svg"
   xmlns="http://www.w3.org/2000/svg"
   version="1.1"
   width="479.78333"
   height="270.03848"
   id="svg2">
  <defs
     id="defs4" />
  <metadata
     id="metadata7">
    <rdf:RDF>
      <cc:Work
         rdf:about="">
        <dc:format>image/svg+xml</dc:format>
        <dc:type
           rdf:resource="http://purl.org/dc/dcmitype/StillImage" />
        <dc:title></dc:title>
      </cc:Work>
    </rdf:RDF>
  </metadata>
  <g
     transform="translate(0.0625,0.0625)"
     id="layer1">
    <path
       d="M 0,0 0,269.97598 M 5,0 5,269.97598 M 10,0 10,269.97598 M 15,0 15,269.97598 M 20,0 20,269.97598 M 25,0 25,269.97598 M 30,0 30,269.97598 M 35,0 35,269.97598 M 40,0 40,269.97598 M 45,0 45,269.97598 M 50,0 50,269.97598 M 55,0 55,269.97598 M 60,0 60,269.97598 M 65,0 65,269.97598 M 70,0 70,269.97598 M 75,0 75,269.97598 M 80,0 80,269.97598 M 85,0 85,269.97598 M 90,0 90,269.97598 M 95,0 95,269.97598 M 100,0 100,269.97598 M 105,0 105,269.97598 M 110,0 110,269.97598 M 115,0 115,269.97598 M 120,0 120,269.97598 M 125,0 125,269.97598 M 130,0 130,269.97598 M 135,0 135,269.97598 M 140,0 140,269.97598 M 145,0 145,269.97598 M 150,0 150,269.97598 M 155,0 155,269.97598 M 160,0 160,269.97598 M 165,0 165,269.97598 M 170,0 170,269.97598 M 175,0 175,269.97598 M 180,0 180,269.97598 M 185,0 185,269.97598 M 190,0 190,269.97598 M 195,0 195,269.97598 M 200,0 200,269.97598 M 205,0 205,269.97598 M 210,0 210,269.97598 M 215,0 215,269.97598 M 220,0 220,269.97598 M 225,0 225,269.97598 M 230,0 230,269.97598 M 235,0 235,269.97598 M 240,0 240,269.97598 M 245,0 245,269.97598 M 250,0 250,269.97598 M 255,0 255,269.97598 M 260,0 260,269.97598 M 265,0 265,269.97598 M 270,0 270,269.97598 M 275,0 275,269.97598 M 280,0 280,269.97598 M 285,0 285,269.97598 M 290,0 290,269.97598 M 295,0 295,269.97598 M 300,0 300,269.97598 M 305,0 305,269.97598 M 310,0 310,269.97598 M 315,0 315,269.97598 M 320,0 320,269.97598 M 325,0 325,269.97598 M 330,0 330,269.97598 M 335,0 335,269.97598 M 340,0 340,269.97598 M 345,0 345,269.97598 M 350,0 350,269.97598 M 355,0 355,269.97598 M 360,0 360,269.97598 M 365,0 365,269.97598 M 370,0 370,269.97598 M 375,0 375,269.97598 M 380,0 380,269.97598 M 385,0 385,269.97598 M 390,0 390,269.97598 M 395,0 395,269.97598 M 400,0 400,269.97598 M 405,0 405,269.97598 M 410,0 410,269.97598 M 415,0 415,269.97598 M 420,0 420,269.97598 M 425,0 425,269.97598 M 430,0 430,269.97598 M 435,0 435,269.97598 M 440,0 440,269.97598 M 445,0 445,269.97598 M 450,0 450,269.97598 M 455,0 455,269.97598 M 460,0 460,269.97598 M 465,0 465,269.97598 M 470,0 470,269.97598 M 475,0 475,269.97598 M 0,0 479.72083,0 M 0,5 479.72083,5 M 0,10 479.72083,10 M 0,15 479.72083,15 M 0,20 479.72083,20 M 0,25 479.72083,25 M 0,30 479.72083,30 M 0,35 479.72083,35 M 0,40 479.72083,40 M 0,45 479.72083,45 M 0,50 479.72083,50 M 0,55 479.72083,55 M 0,60 479.72083,60 M 0,65 479.72083,65 M 0,70 479.72083,70 M 0,75 479.72083,75 M 0,80 479.72083,80 M 0,85 479.72083,85 M 0,90 479.72083,90 M 0,95 479.72083,95 M 0,100 479.72083,100 M 0,105 479.72083,105 M 0,110 479.72083,110 M 0,115 479.72083,115 M 0,120 479.72083,120 M 0,125 479.72083,125 M 0,130 479.72083,130 M 0,135 479.72083,135 M 0,140 479.72083,140 M 0,145 479.72083,145 M 0,150 479.72083,150 M 0,155 479.72083,155 M 0,160 479.72083,160 M 0,165 479.72083,165 M 0,170 479.72083,170 M 0,175 479.72083,175 M 0,180 479.72083,180 M 0,185 479.72083,185 M 0,190 479.72083,190 M 0,195 479.72083,195 M 0,200 479.72083,200 M 0,205 479.72083,205 M 0,210 479.72083,210 M 0,215 479.72083,215 M 0,220 479.72083,220 M 0,225 479.72083,225 M 0,230 479.72083,230 M 0,235 479.72083,235 M 0,240 479.72083,240 M 0,245 479.72083,245 M 0,250 479.72083,250 M 0,255 479.72083,255 M 0,260 479.72083,260 M 0,265 l 479.72083,0"
       id="path3223"
       style="fill:none;stroke:#000000;stroke-width:0.1pt;stroke-linecap:butt;stroke-linejoin:miter;stroke-opacity:1" />
  </g>
</svg>
