<?xml version="1.0" encoding="UTF-8" standalone="no"?>
<!-- Created with Inkscape (http://www.inkscape.org/) -->

<svg
   xmlns:dc="http://purl.org/dc/elements/1.1/"
   xmlns:cc="http://creativecommons.org/ns#"
   xmlns:rdf="http://www.w3.org/1999/02/22-rdf-syntax-ns#"
   xmlns:svg="http://www.w3.org/2000/svg"
   xmlns="http://www.w3.org/2000/svg"
   version="1.1"
   width="33"
   height="33"
   viewBox="0 0 33 33"
   id="Layer_1"
   xml:space="preserve"><metadata
     id="metadata13449"><rdf:RDF><cc:Work
         rdf:about=""><dc:format>image/svg+xml</dc:format><dc:type
           rdf:resource="http://purl.org/dc/dcmitype/StillImage" /><dc:title></dc:title></cc:Work></rdf:RDF></metadata><defs
     id="defs13447" /><g
     transform="matrix(0.0625,0,0,0.0625,0.5,0.5)"
     id="g13435"
     style="fill:#ffff00;fill-opacity:1"><path
       d="M 256,0 C 114.609,0 0,114.609 0,256 0,397.391 114.609,512 256,512 397.391,512 512,397.391 512,256 512,114.609 397.391,0 256,0 z m 0,472 C 136.703,472 40,375.297 40,256 40,136.703 136.703,40 256,40 c 119.297,0 216,96.703 216,216 0,119.297 -96.703,216 -216,216 z"
       id="path13437"
       style="fill:#ffff00;fill-opacity:1" /><path
       d="M 351.938,224 C 334.266,224 320,238.297 320,255.969 320,273.641 334.266,288 351.938,288 369.672,288 384,273.641 384,255.969 384,238.297 369.672,224 351.938,224 z"
       id="path13439"
       style="fill:#ffff00;fill-opacity:1" /><path
       d="M 255.938,224 C 238.266,224 224,238.297 224,255.969 224,273.641 238.266,288 255.938,288 273.672,288 288,273.641 288,255.969 288,238.297 273.672,224 255.938,224 z"
       id="path13441"
       style="fill:#ffff00;fill-opacity:1" /><path
       d="m 160,224 c -17.688,0 -32,14.297 -32,31.969 0,17.672 14.312,32.031 32,32.031 17.656,0 32,-14.359 32,-32.031 C 192,238.297 177.656,224 160,224 z"
       id="path13443"
       style="fill:#ffff00;fill-opacity:1" /></g></svg>