<?xml version="1.0" encoding="UTF-8" standalone="no"?>
<!-- Created with Inkscape (http://www.inkscape.org/) -->

<svg
   xmlns:dc="http://purl.org/dc/elements/1.1/"
   xmlns:cc="http://creativecommons.org/ns#"
   xmlns:rdf="http://www.w3.org/1999/02/22-rdf-syntax-ns#"
   xmlns:svg="http://www.w3.org/2000/svg"
   xmlns="http://www.w3.org/2000/svg"
   version="1.1"
   width="32"
   height="32.000362"
   id="svg5023">
  <defs
     id="defs5025" />
  <metadata
     id="metadata5028">
    <rdf:RDF>
      <cc:Work
         rdf:about="">
        <dc:format>image/svg+xml</dc:format>
        <dc:type
           rdf:resource="http://purl.org/dc/dcmitype/StillImage" />
        <dc:title></dc:title>
        <cc:license
           rdf:resource="http://creativecommons.org/licenses/by-sa/3.0/" />
      </cc:Work>
      <cc:License
         rdf:about="http://creativecommons.org/licenses/by-sa/3.0/">
        <cc:permits
           rdf:resource="http://creativecommons.org/ns#Reproduction" />
        <cc:permits
           rdf:resource="http://creativecommons.org/ns#Distribution" />
        <cc:requires
           rdf:resource="http://creativecommons.org/ns#Notice" />
        <cc:requires
           rdf:resource="http://creativecommons.org/ns#Attribution" />
        <cc:permits
           rdf:resource="http://creativecommons.org/ns#DerivativeWorks" />
        <cc:requires
           rdf:resource="http://creativecommons.org/ns#ShareAlike" />
      </cc:License>
    </rdf:RDF>
  </metadata>
  <g
     id="g5098"
     style="fill:#ffff00">
    <g
       transform="matrix(0.49999997,0,0,0.49999997,2.3722849e-6,4.9999997e-5)"
       id="g5093"
       style="fill:#ffff00">
      <g
         transform="translate(-307.99998,-454.64755)"
         id="g6455"
         style="fill:#ffff00">
        <g
           id="g6423"
           style="fill:#ffff00">
          <path
             d="m 340.57853,454.65045 -0.59117,-0.003 c -17.32046,0 -31.66546,14.09003 -31.98206,31.4161 -0.3194,17.64546 13.77064,32.25943 31.4133,32.58163 l 0.58837,0.003 c 17.32046,0 31.67106,-14.09564 31.98766,-31.4161 0.1541,-8.55096 -3.0259,-16.64524 -8.96002,-22.79509 -5.93412,-6.15827 -13.90792,-9.62404 -22.45608,-9.78654 z m -0.57156,61.70029 -0.55194,-0.008 c -16.37347,-0.29138 -29.45487,-13.85749 -29.15509,-30.23376 0.29139,-16.08208 13.60534,-29.16348 29.68462,-29.16348 l 0.55194,0.006 c 7.93738,0.13729 15.33682,3.36491 20.84227,9.08049 5.51106,5.70999 8.46411,13.2243 8.32122,21.15047 -0.29418,16.08488 -13.61654,29.16909 -29.69302,29.16909 z"
             id="path4050"
             style="fill:#ffff00" />
        </g>
      </g>
    </g>
  </g>
  <text
     x="8.5"
     y="16.810728"
     id="text5184"
     xml:space="preserve"
     style="font-size:20px;font-style:normal;font-variant:normal;font-weight:normal;font-stretch:normal;text-align:start;line-height:50%;letter-spacing:0px;word-spacing:0px;writing-mode:lr-tb;text-anchor:start;fill:#ffff00;fill-opacity:1;stroke:none;font-family:Times New Roman;-inkscape-font-specification:'Times New Roman,'"><tspan
       x="8.5"
       y="16.810728"
       id="tspan5186"
       style="fill:#ffff00">...</tspan></text>
</svg>
