<?xml version="1.0" encoding="UTF-8" standalone="no"?>
<!-- Created with Inkscape (http://www.inkscape.org/) -->

<svg
   xmlns:dc="http://purl.org/dc/elements/1.1/"
   xmlns:cc="http://creativecommons.org/ns#"
   xmlns:rdf="http://www.w3.org/1999/02/22-rdf-syntax-ns#"
   xmlns:svg="http://www.w3.org/2000/svg"
   xmlns="http://www.w3.org/2000/svg"
   version="1.1"
   width="32"
   height="32.000362"
   id="svg5023">
  <defs
     id="defs5025" />
  <metadata
     id="metadata5028">
    <rdf:RDF>
      <cc:Work
         rdf:about="">
        <dc:format>image/svg+xml</dc:format>
        <dc:type
           rdf:resource="http://purl.org/dc/dcmitype/StillImage" />
        <dc:title></dc:title>
        <cc:license
           rdf:resource="http://creativecommons.org/licenses/by-sa/3.0/" />
      </cc:Work>
      <cc:License
         rdf:about="http://creativecommons.org/licenses/by-sa/3.0/">
        <cc:permits
           rdf:resource="http://creativecommons.org/ns#Reproduction" />
        <cc:permits
           rdf:resource="http://creativecommons.org/ns#Distribution" />
        <cc:requires
           rdf:resource="http://creativecommons.org/ns#Notice" />
        <cc:requires
           rdf:resource="http://creativecommons.org/ns#Attribution" />
        <cc:permits
           rdf:resource="http://creativecommons.org/ns#DerivativeWorks" />
        <cc:requires
           rdf:resource="http://creativecommons.org/ns#ShareAlike" />
      </cc:License>
    </rdf:RDF>
  </metadata>
  <g
     id="g5098"
     style="fill:#ffffff">
    <g
       transform="matrix(0.49999997,0,0,0.49999997,2.3722849e-6,4.9999997e-5)"
       id="g5093"
       style="fill:#ffffff">
      <g
         transform="translate(-307.99998,-454.64755)"
         id="g6455"
         style="fill:#ffffff">
        <g
           id="g6423"
           style="fill:#ffffff">
          <path
             d="m 340.57853,454.65045 -0.59117,-0.003 c -17.32046,0 -31.66546,14.09003 -31.98206,31.4161 -0.3194,17.64546 13.77064,32.25943 31.4133,32.58163 l 0.58837,0.003 c 17.32046,0 31.67106,-14.09564 31.98766,-31.4161 0.1541,-8.55096 -3.0259,-16.64524 -8.96002,-22.79509 -5.93412,-6.15827 -13.90792,-9.62404 -22.45608,-9.78654 z m -0.57156,61.70029 -0.55194,-0.008 c -16.37347,-0.29138 -29.45487,-13.85749 -29.15509,-30.23376 0.29139,-16.08208 13.60534,-29.16348 29.68462,-29.16348 l 0.55194,0.006 c 7.93738,0.13729 15.33682,3.36491 20.84227,9.08049 5.51106,5.70999 8.46411,13.2243 8.32122,21.15047 -0.29418,16.08488 -13.61654,29.16909 -29.69302,29.16909 z"
             id="path4050"
             style="fill:#ffffff" />
        </g>
      </g>
    </g>
  </g>
  <g
     transform="translate(-199.1875,-466.7258)"
     id="g4585">
    <path
       d="m 220.206,475.487 c -0.127,-0.072 -0.286,-0.072 -0.413,0.008 l -6.782,4.07 h -2.641 c -0.226,0 -0.409,0.184 -0.409,0.409 v 5.505 c 0,0.226 0.183,0.41 0.409,0.41 h 2.639 l 6.784,4.07 c 0.065,0.039 0.138,0.059 0.211,0.059 0.069,0 0.14,-0.018 0.202,-0.053 0.128,-0.074 0.208,-0.211 0.208,-0.357 v -13.764 c 0,-0.146 -0.08,-0.282 -0.208,-0.357 z m -9.426,4.897 h 1.934 v 4.687 h -1.934 v -4.687 z m 8.814,8.501 -6.061,-3.637 v -5.041 l 6.061,-3.639 v 12.317 z"
       id="path4587"
       style="fill:#ffffff" />
  </g>
  <g
     transform="translate(-255.0475,-466.7263)"
     id="g4589">
    <path
       d="m 281.493,482.363 h -20.892 c -0.227,0 -0.409,0.185 -0.409,0.41 0,0.225 0.182,0.409 0.409,0.409 h 20.892 c 0.227,0 0.41,-0.184 0.41,-0.409 0,-0.225 -0.183,-0.41 -0.41,-0.41 z"
       id="path4591"
       style="fill:#ffffff" />
    <path
       d="m 266.23,481.909 c 0.227,0 0.409,-0.185 0.409,-0.41 v -1.115 h 1.934 v 1.115 c 0,0.226 0.184,0.41 0.41,0.41 0.227,0 0.41,-0.185 0.41,-0.41 v -1.292 l 6.061,-3.639 v 4.931 c 0,0.226 0.184,0.41 0.41,0.41 0.226,0 0.408,-0.185 0.408,-0.41 v -5.654 c 0,-0.146 -0.079,-0.283 -0.208,-0.357 -0.127,-0.072 -0.284,-0.072 -0.413,0.008 l -6.782,4.07 h -2.64 c -0.227,0 -0.41,0.184 -0.41,0.409 v 1.524 c 10e-4,0.226 0.184,0.41 0.411,0.41 z"
       id="path4593"
       style="fill:#ffffff" />
    <path
       d="m 275.864,483.548 c -0.227,0 -0.41,0.184 -0.41,0.41 v 4.927 l -6.061,-3.636 v -1.291 c 0,-0.227 -0.183,-0.41 -0.41,-0.41 -0.226,0 -0.41,0.184 -0.41,0.41 v 1.113 h -1.934 v -1.113 c 0,-0.227 -0.183,-0.41 -0.409,-0.41 -0.226,0 -0.41,0.184 -0.41,0.41 v 1.523 c 0,0.226 0.184,0.41 0.41,0.41 h 2.639 l 6.784,4.068 c 0.064,0.039 0.137,0.059 0.211,0.059 0.069,0 0.139,-0.018 0.2,-0.053 0.129,-0.074 0.208,-0.211 0.208,-0.357 v -5.65 c 0,-0.227 -0.182,-0.41 -0.408,-0.41 z"
       id="path4595"
       style="fill:#ffffff" />
  </g>
</svg>
