<?xml version="1.0" encoding="UTF-8" standalone="no"?>
<svg
   xmlns:dc="http://purl.org/dc/elements/1.1/"
   xmlns:cc="http://creativecommons.org/ns#"
   xmlns:rdf="http://www.w3.org/1999/02/22-rdf-syntax-ns#"
   xmlns:svg="http://www.w3.org/2000/svg"
   xmlns="http://www.w3.org/2000/svg"
   xml:space="preserve"
   enable-background="new 0 0 512 512"
   viewBox="0 0 24.00012 24.00012"
   height="24.00012"
   width="24.00012"
   y="0px"
   x="0px"
   id="Layer_1"
   version="1.1"><metadata
     id="metadata9359"><rdf:RDF><cc:Work
         rdf:about=""><dc:format>image/svg+xml</dc:format><dc:type
           rdf:resource="http://purl.org/dc/dcmitype/StillImage" /><dc:title></dc:title></cc:Work></rdf:RDF></metadata><defs
     id="defs9357" /><g
     id="g9955"><path
       style="clip-rule:evenodd;fill-rule:evenodd;fill:#ffffff"
       id="path9337"
       d="m 13.71435,22.28583 c 0,0.94757 -0.76671,1.71429 -1.71429,1.71429 -0.94758,0 -1.71429,-0.76672 -1.71429,-1.71429 0,-0.94758 0.76671,-1.7143 1.71429,-1.7143 0.94758,0 1.71429,0.76672 1.71429,1.7143 z" /><path
       style="clip-rule:evenodd;fill-rule:evenodd;fill:#ffffff"
       id="path9339"
       d="m 13.71435,1.71429 c 0,0.94758 -0.76671,1.7143 -1.71429,1.7143 -0.94758,0 -1.71429,-0.76672 -1.71429,-1.7143 C 10.28577,0.76672 11.05248,0 12.00006,0 c 0.94758,0 1.71429,0.76672 1.71429,1.71429 z" /><path
       style="clip-rule:evenodd;fill-rule:evenodd;fill:#ffffff"
       id="path9341"
       d="m 24.00012,12.00006 c 0,0.94758 -0.76672,1.71429 -1.71429,1.71429 -0.94758,0 -1.7143,-0.76671 -1.7143,-1.71429 0,-0.94758 0.76672,-1.71429 1.7143,-1.71429 0.94757,0 1.71429,0.76671 1.71429,1.71429 z" /><path
       style="clip-rule:evenodd;fill-rule:evenodd;fill:#ffffff"
       id="path9343"
       d="m 3.42859,12.00006 c 0,0.94758 -0.76672,1.71429 -1.7143,1.71429 C 0.76672,13.71435 0,12.94764 0,12.00006 c 0,-0.94758 0.76672,-1.71429 1.71429,-1.71429 0.94758,0 1.7143,0.76671 1.7143,1.71429 z" /><g
       id="g9345"
       transform="matrix(0.1071434,0,0,0.1071434,-15.42865,-15.42865)"
       style="fill:#ffffff"><path
         style="clip-rule:evenodd;fill-rule:evenodd;fill:#ffffff"
         id="path9347"
         d="m 173.062,226.844 c 8.844,-25.062 28.719,-44.938 53.781,-53.781 -1.797,-4 -2.844,-8.391 -2.844,-13.062 0,-1.031 0.219,-2.016 0.312,-3.031 -31.891,10.25 -57.094,35.453 -67.344,67.344 1.016,-0.094 2,-0.312 3.031,-0.312 4.674,-0.002 9.064,1.045 13.064,2.842 z" /><path
         style="clip-rule:evenodd;fill-rule:evenodd;fill:#ffffff"
         id="path9349"
         d="m 226.844,338.938 c -25.062,-8.859 -44.938,-28.703 -53.781,-53.781 -4,1.797 -8.391,2.844 -13.062,2.844 -1.031,0 -2.016,-0.203 -3.031,-0.297 10.25,31.875 35.453,57.094 67.344,67.312 -0.094,-1 -0.312,-1.984 -0.312,-3.016 -0.002,-4.672 1.045,-9.078 2.842,-13.062 z" /><path
         style="clip-rule:evenodd;fill-rule:evenodd;fill:#ffffff"
         id="path9351"
         d="m 285.156,173.062 c 25.078,8.844 44.922,28.719 53.781,53.781 3.985,-1.796 8.391,-2.843 13.063,-2.843 1.031,0 2.016,0.219 3.016,0.312 -10.219,-31.891 -35.438,-57.094 -67.312,-67.344 0.094,1.016 0.297,2 0.297,3.031 -10e-4,4.673 -1.048,9.063 -2.845,13.063 z" /><path
         style="clip-rule:evenodd;fill-rule:evenodd;fill:#ffffff"
         id="path9353"
         d="m 338.922,285.156 c -8.844,25.062 -28.703,44.922 -53.766,53.766 1.797,4 2.844,8.406 2.844,13.078 0,1.031 -0.203,2.016 -0.297,3.016 31.875,-10.219 57.094,-35.438 67.312,-67.312 -1,0.094 -1.984,0.297 -3.016,0.297 -4.671,-10e-4 -9.077,-1.048 -13.077,-2.845 z" /></g></g></svg>