<?xml version="1.0" encoding="UTF-8" standalone="no"?>
<!-- Created with Inkscape (http://www.inkscape.org/) -->

<svg
   xmlns:dc="http://purl.org/dc/elements/1.1/"
   xmlns:cc="http://creativecommons.org/ns#"
   xmlns:rdf="http://www.w3.org/1999/02/22-rdf-syntax-ns#"
   xmlns:svg="http://www.w3.org/2000/svg"
   xmlns="http://www.w3.org/2000/svg"
   version="1.1"
   width="33"
   height="33"
   viewBox="0 0 33 33"
   id="Layer_1"
   xml:space="preserve"><metadata
     id="metadata6984"><rdf:RDF><cc:Work
         rdf:about=""><dc:format>image/svg+xml</dc:format><dc:type
           rdf:resource="http://purl.org/dc/dcmitype/StillImage" /><dc:title></dc:title></cc:Work></rdf:RDF></metadata><defs
     id="defs6982" /><g
     transform="matrix(0.0625,0,0,0.0625,0.5,0.5)"
     id="g6974"><g
       id="g6976"><path
         d="M 302.188,279.563 C 313.36,263.875 320,244.727 320,224 c 0,-53.032 -42.984,-96 -96,-96 -53.017,0 -96,42.968 -96,96 0,53.016 42.983,96 96,96 20.727,0 39.875,-6.64 55.563,-17.812 l 77.124,77.124 c 6.25,6.252 16.375,6.252 22.624,0 6.252,-6.249 6.252,-16.374 0,-22.623 l -77.123,-77.126 z m -23.235,-23.244 c -5.53,9.36 -13.273,17.104 -22.634,22.634 -9.514,5.61 -20.476,9.047 -32.319,9.047 -35.345,0 -64,-28.656 -64,-64 0,-35.344 28.655,-64 64,-64 35.344,0 64,28.656 64,64 0,11.843 -3.437,22.805 -9.047,32.319 z M 256,0 C 114.609,0 0,114.609 0,256 0,397.391 114.609,512 256,512 397.391,512 512,397.391 512,256 512,114.609 397.391,0 256,0 z m 0,472 C 136.702,472 40,375.298 40,256 40,136.703 136.702,40 256,40 c 119.298,0 216,96.703 216,216 0,119.298 -96.702,216 -216,216 z"
         id="path6978"
         style="fill:#1d1d1b" /></g></g></svg>