<?xml version="1.0" encoding="UTF-8" standalone="no"?>
<!-- Created with Inkscape (http://www.inkscape.org/) -->

<svg
   xmlns:dc="http://purl.org/dc/elements/1.1/"
   xmlns:cc="http://creativecommons.org/ns#"
   xmlns:rdf="http://www.w3.org/1999/02/22-rdf-syntax-ns#"
   xmlns:svg="http://www.w3.org/2000/svg"
   xmlns="http://www.w3.org/2000/svg"
   version="1.1"
   width="54"
   height="54.001072"
   id="svg3026">
  <metadata
     id="metadata3046">
    <rdf:RDF>
      <cc:Work
         rdf:about="">
        <dc:format>image/svg+xml</dc:format>
        <dc:type
           rdf:resource="http://purl.org/dc/dcmitype/StillImage" />
        <dc:title></dc:title>
      </cc:Work>
    </rdf:RDF>
  </metadata>
  <defs
     id="defs3044" />
  <g
     transform="matrix(1.0728548,0,0,1.0728548,-7.3313533,-7.3308168)"
     id="g3028">
    <title
       id="title3030">Layer 1</title>
    <g
       id="g3032">
      <path
         d="m 37.4095,15.206 c -0.646,0 -1.064,0.057 -1.312,0.114 v 8.384 c 0.248,0.057 0.646,0.057 1.008,0.057 2.624,0.019 4.335,-1.426 4.335,-4.487 0.018,-2.661 -1.541,-4.068 -4.031,-4.068 z"
         id="path3034" />
      <path
         d="M 6.8335,6.833 V 31 h 50.333 V 6.833 H 6.8335 l 0,0 z m 23.83,19.058 h -2.89 V 20.53 h -4.772 v 5.361 h -2.909 V 13.076 h 2.909 V 18 h 4.772 v -4.924 h 2.89 v 12.815 l 0,0 z m 11.727,-1.521 c -1.35001,1.122 -3.403,1.654 -5.913,1.654 -1.502,0 -2.566,-0.095 -3.289,-0.19 V 13.248 c 1.064,-0.171 2.453,-0.267 3.917,-0.267 2.434,0 4.012,0.438 5.248,1.369 1.331,0.989 2.167,2.566 2.167,4.829 -10e-4,2.453 -0.89399,4.145 -2.12999,5.191 z"
         id="path3036" />
      <path
         d="m 6.8335,57.167 h 50.333 V 33 H 6.8335 v 24.167 l 0,0 z m 35.765,-18.51 c 3.309,0 4.601,2.947 4.601,6.332 0,3.821 -1.54,6.445 -4.696,6.445 -3.194,0 -4.60101,-2.87099 -4.62,-6.369 0,-3.575 1.521,-6.408 4.715,-6.408 z m -15.074,10.818 1.597,-1.445 c 2.7,-2.415 4.012,-3.803 4.05,-5.248 0,-1.008 -0.608,-1.806 -2.034,-1.806 -1.065,0 -1.997,0.532 -2.643,1.026 l -0.817,-2.072 c 0.932,-0.704 2.376,-1.274 4.05,-1.274 2.794,0 4.334,1.635 4.334,3.87901 0,2.072 -1.502,3.726 -3.289,5.323 l -1.141,0.951 v 0.038 h 4.658 v 2.376 h -8.765 v -1.748 l 0,0 0,0 z M 17.1085,38.866 h 8.727 v 1.825 l -5.095,10.533 h -3.061 l 5.095,-9.943 v -0.038 h -5.666 v -2.377 l 0,0 z"
         id="path3038" />
      <path
         d="m 42.5795,49.247 c 1.122,0 1.73,-1.40701 1.73,-4.221 0,-2.738 -0.589,-4.183 -1.749,-4.183 -1.065,0 -1.788,1.35 -1.769,4.221 -0.019,2.833 0.666,4.183 1.78801,4.183 z"
         id="path3040" />
    </g>
  </g>
  <path
     d="m 12.566654,45.901773 c 0.472023,-0.920585 1.697613,-3.309786 2.723534,-5.309336 1.02592,-1.99955 1.851189,-3.659843 1.83393,-3.689539 -0.01726,-0.0297 -1.390096,-0.05399 -3.050752,-0.05399 l -3.019373,0 0,-1.223847 0,-1.223847 4.643419,0 4.64342,0 0,0.960152 0,0.960152 -2.71766,5.625874 -2.717661,5.625873 -1.59854,0.0012 -1.598541,0.0012 0.858224,-1.673791 z"
     id="path3161"
     style="color:#000000;fill:#ffffff;fill-opacity:1;fill-rule:nonzero;stroke:#ffffff;stroke-width:0.071991;stroke-linecap:butt;stroke-linejoin:miter;stroke-miterlimit:4;stroke-opacity:1;stroke-dasharray:0.01799775, 0.01799775;stroke-dashoffset:0;marker:none;visibility:visible;display:inline;overflow:visible;enable-background:accumulate" />
  <path
     d="m 22.212598,46.685807 0,-0.889756 1.421822,-1.287239 c 3.597329,-3.25682 4.525197,-4.424592 4.609495,-5.801301 0.08242,-1.346093 -0.670871,-2.075841 -2.148489,-2.081332 -0.856714,-0.0032 -1.716073,0.273744 -2.479559,0.799036 -0.183437,0.126208 -0.346026,0.216966 -0.361308,0.201684 -0.03087,-0.03087 -0.825988,-2.057462 -0.825988,-2.105267 0,-0.06814 0.887225,-0.562281 1.35848,-0.756611 0.991021,-0.408664 1.665556,-0.536401 2.852994,-0.54027 1.248579,-0.0041 1.680654,0.08498 2.601311,0.536126 1.290824,0.632533 2.042899,1.914924 2.050238,3.49593 0.0053,1.133935 -0.38651,2.193557 -1.239159,3.351538 -0.506626,0.688049 -1.98829,2.177697 -2.856213,2.871606 -0.321909,0.257368 -0.586838,0.508436 -0.588731,0.55793 -0.0027,0.07032 0.539454,0.08999 2.480248,0.08999 l 2.483689,0 0,1.223847 0,1.223847 -4.679415,0 -4.679415,0 0,-0.889757 z"
     id="path3163"
     style="color:#000000;fill:#ffffff;fill-opacity:1;fill-rule:nonzero;stroke:#ffffff;stroke-width:0.071991;stroke-linecap:butt;stroke-linejoin:miter;stroke-miterlimit:4;stroke-opacity:1;stroke-dasharray:0.01799775, 0.01799775;stroke-dashoffset:0;marker:none;visibility:visible;display:inline;overflow:visible;enable-background:accumulate" />
  <path
     d="m 37.402699,47.741802 c -0.605388,-0.10134 -1.432874,-0.484248 -1.957378,-0.905751 -0.866362,-0.696227 -1.578896,-2.07843 -1.909046,-3.703246 -0.198395,-0.976395 -0.178936,-3.397648 0.03523,-4.383343 0.266877,-1.228302 0.642407,-2.083188 1.279552,-2.912873 1.235471,-1.608818 3.610827,-2.107374 5.611453,-1.177768 0.628187,0.291892 1.496675,1.186163 1.882238,1.938115 0.321094,0.626222 0.534731,1.23063 0.712496,2.015748 0.153238,0.676787 0.222233,3.107224 0.111773,3.937283 -0.452422,3.399743 -2.202639,5.270012 -4.895942,5.231766 -0.379718,-0.0054 -0.771386,-0.02336 -0.870374,-0.03993 z m 1.595591,-2.36806 c 0.403423,-0.208618 0.832549,-0.983537 1.033812,-1.866865 0.157857,-0.692819 0.226258,-3.322165 0.110375,-4.242817 -0.237572,-1.887429 -0.803617,-2.764296 -1.789472,-2.772093 -0.788142,-0.0062 -1.291338,0.511536 -1.627943,1.675088 -0.493209,1.704892 -0.406326,4.91043 0.168301,6.209469 0.186242,0.421032 0.455953,0.78504 0.700304,0.945144 0.371875,0.243662 0.98983,0.266572 1.404623,0.05207 l 0,0 z"
     id="path3165"
     style="color:#000000;fill:#ffffff;fill-opacity:1;fill-rule:nonzero;stroke:#ffffff;stroke-width:0.071991;stroke-linecap:butt;stroke-linejoin:miter;stroke-miterlimit:4;stroke-opacity:1;stroke-dasharray:0.01799775, 0.01799775;stroke-dashoffset:0;marker:none;visibility:visible;display:inline;overflow:visible;enable-background:accumulate" />
  <path
     d="m 30.167604,20.509981 c -0.514736,-0.03016 -1.138358,-0.07876 -1.385827,-0.107999 l -0.449944,-0.05315 0,-6.71489 0,-6.7148888 0.269966,-0.042274 c 1.619634,-0.2536195 4.8264,-0.3021455 6.101238,-0.092326 1.865343,0.3070074 3.105794,0.920642 4.157633,2.0567255 1.118766,1.2083713 1.648448,3.0429883 1.484617,5.1421493 -0.254445,3.260208 -1.996667,5.378582 -5.069977,6.164604 -1.281687,0.3278 -3.277779,0.46929 -5.107706,0.362053 z m 3.847711,-2.485234 c 1.523063,-0.37549 2.533524,-1.41095 2.96318,-3.036489 0.199694,-0.755513 0.219817,-2.357063 0.0383,-3.04824 C 36.613018,10.40252 35.639024,9.4449132 34.119877,9.0918398 33.608608,8.9730129 32.108788,8.935076 31.611385,9.0283894 l -0.25593,0.048013 0,4.5224136 0,4.522414 0.16198,0.03599 c 0.319852,0.07107 2.042948,-0.02032 2.49788,-0.132473 l 0,0 z"
     id="path3208"
     style="color:#000000;fill:#ffffff;fill-opacity:1;fill-rule:nonzero;stroke:#ffffff;stroke-width:0.071991;stroke-linecap:butt;stroke-linejoin:miter;stroke-miterlimit:4;stroke-opacity:1;stroke-dasharray:0.01799775, 0.01799775;stroke-dashoffset:0;marker:none;visibility:visible;display:inline;overflow:visible;enable-background:accumulate" />
  <path
     d="m 14.293588,13.595811 0,-6.8391448 1.511811,0 1.511811,0 0,2.6276715 0,2.6276713 2.591676,0 2.591676,0 0,-2.6276713 0,-2.6276715 1.511811,0 1.511811,0 0,6.8391448 0,6.839145 -1.511811,0 -1.511811,0 0,-2.87964 0,-2.87964 -2.591676,0 -2.591676,0 0,2.87964 0,2.87964 -1.511811,0 -1.511811,0 0,-6.839145 z"
     id="path3210"
     style="color:#000000;fill:#ffffff;fill-opacity:1;fill-rule:nonzero;stroke:#ffffff;stroke-width:0.071991;stroke-linecap:butt;stroke-linejoin:miter;stroke-miterlimit:4;stroke-opacity:1;stroke-dasharray:0.01799775, 0.01799775;stroke-dashoffset:0;marker:none;visibility:visible;display:inline;overflow:visible;enable-background:accumulate" />
</svg>
