<?xml version="1.0" encoding="UTF-8" standalone="no"?>
<!-- Created with Inkscape (http://www.inkscape.org/) -->

<svg
   xmlns:dc="http://purl.org/dc/elements/1.1/"
   xmlns:cc="http://creativecommons.org/ns#"
   xmlns:rdf="http://www.w3.org/1999/02/22-rdf-syntax-ns#"
   xmlns:svg="http://www.w3.org/2000/svg"
   xmlns="http://www.w3.org/2000/svg"
   version="1.1"
   width="54"
   height="54.001072"
   id="svg3026">
  <metadata
     id="metadata3046">
    <rdf:RDF>
      <cc:Work
         rdf:about="">
        <dc:format>image/svg+xml</dc:format>
        <dc:type
           rdf:resource="http://purl.org/dc/dcmitype/StillImage" />
        <dc:title></dc:title>
      </cc:Work>
    </rdf:RDF>
  </metadata>
  <defs
     id="defs3044" />
  <g
     transform="matrix(1.0728548,0,0,1.0728548,-7.3313533,-7.3308168)"
     id="g3028">
    <title
       id="title3030">Layer 1</title>
    <g
       id="g3032">
      <path
         d="m 37.4095,15.206 c -0.646,0 -1.064,0.057 -1.312,0.114 v 8.384 c 0.248,0.057 0.646,0.057 1.008,0.057 2.624,0.019 4.335,-1.426 4.335,-4.487 0.018,-2.661 -1.541,-4.068 -4.031,-4.068 z"
         id="path3034" />
      <path
         d="M 6.8335,6.833 V 31 h 50.333 V 6.833 H 6.8335 l 0,0 z m 23.83,19.058 h -2.89 V 20.53 h -4.772 v 5.361 h -2.909 V 13.076 h 2.909 V 18 h 4.772 v -4.924 h 2.89 v 12.815 l 0,0 z m 11.727,-1.521 c -1.35001,1.122 -3.403,1.654 -5.913,1.654 -1.502,0 -2.566,-0.095 -3.289,-0.19 V 13.248 c 1.064,-0.171 2.453,-0.267 3.917,-0.267 2.434,0 4.012,0.438 5.248,1.369 1.331,0.989 2.167,2.566 2.167,4.829 -10e-4,2.453 -0.89399,4.145 -2.12999,5.191 z"
         id="path3036" />
      <path
         d="m 6.8335,57.167 h 50.333 V 33 H 6.8335 v 24.167 l 0,0 z m 35.765,-18.51 c 3.309,0 4.601,2.947 4.601,6.332 0,3.821 -1.54,6.445 -4.696,6.445 -3.194,0 -4.60101,-2.87099 -4.62,-6.369 0,-3.575 1.521,-6.408 4.715,-6.408 z m -15.074,10.818 1.597,-1.445 c 2.7,-2.415 4.012,-3.803 4.05,-5.248 0,-1.008 -0.608,-1.806 -2.034,-1.806 -1.065,0 -1.997,0.532 -2.643,1.026 l -0.817,-2.072 c 0.932,-0.704 2.376,-1.274 4.05,-1.274 2.794,0 4.334,1.635 4.334,3.87901 0,2.072 -1.502,3.726 -3.289,5.323 l -1.141,0.951 v 0.038 h 4.658 v 2.376 h -8.765 v -1.748 l 0,0 0,0 z M 17.1085,38.866 h 8.727 v 1.825 l -5.095,10.533 h -3.061 l 5.095,-9.943 v -0.038 h -5.666 v -2.377 l 0,0 z"
         id="path3038" />
      <path
         d="m 42.5795,49.247 c 1.122,0 1.73,-1.40701 1.73,-4.221 0,-2.738 -0.589,-4.183 -1.749,-4.183 -1.065,0 -1.788,1.35 -1.769,4.221 -0.019,2.833 0.666,4.183 1.78801,4.183 z"
         id="path3040" />
    </g>
  </g>
</svg>
