<?xml version="1.0" encoding="UTF-8" standalone="no"?>
<!-- Created with Inkscape (http://www.inkscape.org/) -->

<svg
   xmlns:dc="http://purl.org/dc/elements/1.1/"
   xmlns:cc="http://creativecommons.org/ns#"
   xmlns:rdf="http://www.w3.org/1999/02/22-rdf-syntax-ns#"
   xmlns:svg="http://www.w3.org/2000/svg"
   xmlns="http://www.w3.org/2000/svg"
   xmlns:sodipodi="http://sodipodi.sourceforge.net/DTD/sodipodi-0.dtd"
   xmlns:inkscape="http://www.inkscape.org/namespaces/inkscape"
   version="1.1"
   width="64"
   height="64"
   viewBox="0 0 64 64"
   id="Capa_1"
   xml:space="preserve"
   inkscape:version="0.48.5 r10040"
   sodipodi:docname="1080p.svg"><sodipodi:namedview
     pagecolor="#ffffff"
     bordercolor="#666666"
     borderopacity="1"
     objecttolerance="10"
     gridtolerance="10"
     guidetolerance="10"
     inkscape:pageopacity="0"
     inkscape:pageshadow="2"
     inkscape:window-width="1920"
     inkscape:window-height="1080"
     id="namedview3189"
     showgrid="true"
     showguides="false"
     inkscape:zoom="0.99674932"
     inkscape:cx="30.599753"
     inkscape:cy="33.02865"
     inkscape:window-x="0"
     inkscape:window-y="0"
     inkscape:window-maximized="0"
     inkscape:current-layer="Capa_1"
     fit-margin-top="0"
     fit-margin-left="0"
     fit-margin-right="0"
     fit-margin-bottom="0"><inkscape:grid
       type="xygrid"
       id="grid3195"
       empspacing="5"
       visible="true"
       enabled="true"
       snapvisiblegridlinesonly="true"
       originx="16px"
       originy="15.990803px" /></sodipodi:namedview><metadata
     id="metadata3546"><rdf:RDF><cc:Work
         rdf:about=""><dc:format>image/svg+xml</dc:format><dc:type
           rdf:resource="http://purl.org/dc/dcmitype/StillImage" /><dc:title /></cc:Work></rdf:RDF></metadata><defs
     id="defs3544" /><g
     transform="matrix(0.70738554,0,0,0.70738554,16.353693,16.353693)"
     id="g3506"
     style="fill:#000000;stroke:#ffffff" /><g
     transform="translate(9.8814998,9.8814998)"
     id="g3512" /><g
     transform="translate(9.8814998,9.8814998)"
     id="g3514" /><g
     transform="translate(9.8814998,9.8814998)"
     id="g3516" /><g
     transform="translate(9.8814998,9.8814998)"
     id="g3518" /><g
     transform="translate(9.8814998,9.8814998)"
     id="g3520" /><g
     transform="translate(9.8814998,9.8814998)"
     id="g3522" /><g
     transform="translate(9.8814998,9.8814998)"
     id="g3524" /><g
     transform="translate(9.8814998,9.8814998)"
     id="g3526" /><g
     transform="translate(9.8814998,9.8814998)"
     id="g3528" /><g
     transform="translate(9.8814998,9.8814998)"
     id="g3530" /><g
     transform="translate(9.8814998,9.8814998)"
     id="g3532" /><g
     transform="translate(9.8814998,9.8814998)"
     id="g3534" /><g
     transform="translate(9.8814998,9.8814998)"
     id="g3536" /><g
     transform="translate(9.8814998,9.8814998)"
     id="g3538" /><g
     transform="translate(9.8814998,9.8814998)"
     id="g3540" /><g
     style="font-size:9px;font-style:normal;font-variant:normal;font-weight:normal;font-stretch:normal;text-align:start;line-height:50%;letter-spacing:0px;word-spacing:0px;writing-mode:lr-tb;text-anchor:start;fill:#000000;fill-opacity:1;stroke:none;font-family:Times New Roman;-inkscape-font-specification:'Times New Roman,'"
     id="text3191"
     transform="translate(16,16)"><path
       id="path3256"
       d="m 29.032645,14.739555 2.534544,-1.024604 0.341534,0 0,1.923378 c 0.425418,-0.725005 0.850837,-1.231313 1.276261,-1.518929 0.431406,-0.29359 0.883789,-0.440391 1.357149,-0.440399 0.826866,8e-6 1.515927,0.323566 2.06718,0.970677 0.67707,0.790928 1.015607,1.82152 1.015615,3.091782 -8e-6,1.420068 -0.407451,2.594465 -1.222332,3.523198 -0.671091,0.760961 -1.515939,1.141442 -2.534544,1.141442 -0.4434,0 -0.826877,-0.06291 -1.150432,-0.188752 -0.239676,-0.08989 -0.509308,-0.269633 -0.808897,-0.539265 l 0,2.50758 c -2e-6,0.56323 0.03295,0.919743 0.09887,1.069543 0.07189,0.155784 0.191738,0.278615 0.359509,0.368496 0.173761,0.08987 0.485335,0.13482 0.934727,0.13482 l 0,0.332547 -4.314117,0 0,-0.332547 0.224693,0 c 0.329551,0.0059 0.611166,-0.05692 0.844848,-0.188752 0.113836,-0.06592 0.200717,-0.173762 0.260644,-0.323559 0.06592,-0.143799 0.09886,-0.515299 0.09886,-1.11448 l 0,-7.783386 c 0,-0.533267 -0.02397,-0.871804 -0.07191,-1.015615 -0.04794,-0.143799 -0.125821,-0.251649 -0.233681,-0.323559 -0.101852,-0.07189 -0.242671,-0.107844 -0.422424,-0.107844 -0.143799,6e-6 -0.326555,0.04195 -0.548252,0.125821 l -0.107844,-0.287607 m 2.876078,1.42905 0,3.073809 c -2e-6,0.665096 0.02696,1.102498 0.08089,1.312211 0.08387,0.347527 0.287606,0.65311 0.611167,0.91675 0.329546,0.26364 0.742982,0.39546 1.24031,0.39546 0.599177,0 1.084514,-0.23368 1.456014,-0.701043 0.485331,-0.611167 0.727999,-1.470992 0.728007,-2.579484 -8e-6,-1.258279 -0.275631,-2.225958 -0.826872,-2.90304 -0.383484,-0.467355 -0.838862,-0.701037 -1.366138,-0.701045 -0.287612,8e-6 -0.572224,0.07191 -0.853835,0.215706 -0.21571,0.107865 -0.572223,0.431419 -1.069543,0.970676 m -11.396458,-0.03593 c -2e-6,-1.390098 0.209712,-2.585466 0.629142,-3.58611 0.419426,-1.006616 0.976666,-1.755595 1.671721,-2.246934 0.539261,-0.3894578 1.096501,-0.5841925 1.67172,-0.5842048 0.934719,1.23e-5 1.773575,0.4763628 2.516567,1.4290498 0.928726,1.180402 1.393094,2.780217 1.393102,4.799456 -8e-6,1.414078 -0.203724,2.615437 -0.611167,3.604085 -0.407453,0.988653 -0.92874,1.707674 -1.563868,2.15706 -0.629148,0.443396 -1.237318,0.665092 -1.824512,0.665092 -1.162419,0 -2.130098,-0.686064 -2.90304,-2.058194 -0.653112,-1.156419 -0.979667,-2.549519 -0.979665,-4.1793 m 1.761598,0.224695 c -2e-6,1.677715 0.206715,3.046847 0.620155,4.107397 0.34153,0.892784 0.850834,1.339176 1.527916,1.339176 0.323554,0 0.659096,-0.143799 1.006626,-0.431413 0.34752,-0.293598 0.61116,-0.781931 0.790922,-1.465003 0.275617,-1.03059 0.413429,-2.483608 0.413437,-4.359055 -8e-6,-1.390097 -0.143819,-2.549515 -0.431412,-3.478257 -0.215713,-0.68905 -0.494332,-1.177383 -0.83586,-1.465001 -0.245671,-0.197711 -0.542267,-0.296585 -0.889787,-0.296597 -0.407449,1.2e-5 -0.769955,0.18276 -1.087517,0.548252 -0.431414,0.497334 -0.725015,1.279267 -0.880798,2.345802 -0.155784,1.066553 -0.233684,2.118118 -0.233682,3.154699 M 14.175906,16.01582 c -0.964687,-0.790914 -1.587836,-1.426048 -1.86945,-1.905401 -0.275627,-0.479338 -0.413437,-0.97666 -0.413437,-1.491965 0,-0.790911 0.305583,-1.470983 0.916749,-2.040218 0.611165,-0.575204 1.423058,-0.8628115 2.435679,-0.8628238 0.982654,1.23e-5 1.773576,0.2666485 2.372766,0.7999088 0.599175,0.533285 0.898766,1.141455 0.898774,1.824512 -8e-6,0.455389 -0.161776,0.919754 -0.485339,1.3931 -0.323564,0.473364 -0.997645,1.030602 -2.022241,1.67172 1.054554,0.814896 1.752603,1.456021 2.094143,1.923378 0.455372,0.611171 0.683061,1.255291 0.68307,1.932365 -9e-6,0.856833 -0.326563,1.590832 -0.979665,2.201997 -0.653115,0.605175 -1.509946,0.907762 -2.570495,0.907762 -1.156425,0 -2.058196,-0.362505 -2.705311,-1.087516 -0.515299,-0.581206 -0.772946,-1.21634 -0.772946,-1.905402 0,-0.539261 0.179753,-1.072534 0.539265,-1.599818 0.365499,-0.533268 0.991645,-1.120467 1.878438,-1.761599 m 1.411077,-0.961687 c 0.719012,-0.647111 1.174391,-1.156416 1.366136,-1.527918 0.191738,-0.377476 0.287601,-0.802895 0.287607,-1.276259 -6e-6,-0.629131 -0.176767,-1.12046 -0.530276,-1.473989 -0.353523,-0.359499 -0.835865,-0.539253 -1.447025,-0.539265 -0.611173,1.2e-5 -1.108493,0.176767 -1.491968,0.530276 -0.383479,0.353529 -0.575217,0.766964 -0.575215,1.240308 -2e-6,0.311586 0.07788,0.623161 0.233682,0.934727 0.161776,0.311584 0.389465,0.608178 0.683069,0.889785 l 1.47399,1.222335 m -0.988653,1.303223 c -0.497326,0.419432 -0.865822,0.877806 -1.105492,1.375124 -0.239676,0.491333 -0.359513,1.024606 -0.359509,1.599817 -4e-6,0.772949 0.20971,1.393102 0.629142,1.860463 0.425416,0.461373 0.964679,0.692057 1.617792,0.692057 0.647113,0 1.165407,-0.18276 1.55488,-0.548252 0.389464,-0.3655 0.584198,-0.808895 0.584204,-1.330187 -6e-6,-0.431408 -0.113856,-0.817882 -0.341533,-1.159418 C 16.752387,18.21183 15.89256,17.381961 14.59833,16.357356 M 2.1053657,16.132655 c -8e-7,-1.390098 0.2097131,-2.585466 0.6291421,-3.58611 C 3.153934,11.539929 3.7111736,10.79095 4.4062285,10.29961 4.9454893,9.9101532 5.5027296,9.7154184 6.0779493,9.7154062 c 0.9347187,1.22e-5 1.7735742,0.4763628 2.5165667,1.4290498 0.9287262,1.180402 1.3930934,2.780217 1.3931016,4.799456 -8.2e-6,1.414078 -0.2037235,2.615437 -0.6111663,3.604085 -0.4074531,0.988653 -0.9287406,1.707674 -1.5638686,2.15706 -0.6291478,0.443396 -1.2373179,0.665092 -1.8245123,0.665092 -1.1624182,0 -2.1300975,-0.686064 -2.9030406,-2.058194 -0.6531103,-1.156419 -0.9796649,-2.549519 -0.9796641,-4.1793 m 1.761598,0.224695 c -2.1e-6,1.677715 0.2067156,3.046847 0.620155,4.107397 0.3415298,0.892784 0.8508344,1.339175 1.5279158,1.339175 0.3235544,0 0.6590958,-0.143798 1.0066263,-0.431412 C 7.369181,21.078912 7.6328209,20.590579 7.8125827,19.907507 8.0881995,18.876917 8.2260119,17.423899 8.2260201,15.548452 8.2260119,14.158355 8.0822008,12.998937 7.7946074,12.070195 7.5788949,11.381145 7.3002758,10.892812 6.958748,10.605194 6.7130773,10.407483 6.4164808,10.308609 6.0689606,10.308597 c -0.407449,1.2e-5 -0.7699545,0.18276 -1.0875165,0.548252 -0.4314147,0.497334 -0.725015,1.279267 -0.8807987,2.345801 -0.1557837,1.066553 -0.2336838,2.118119 -0.2336817,3.1547 m -9.4730821,-5.194916 2.9659554,-1.4470278 0.2965955,0 0,10.2909658 c -5.3e-6,0.68307 0.026958,1.10849 0.08089,1.276261 0.059912,0.167769 0.1797495,0.296596 0.3595096,0.386473 0.1797495,0.08989 0.5452502,0.140813 1.09650472,0.152798 l 0,0.332545 -4.58374922,0 0,-0.332545 c 0.5752127,-0.01207 0.9467057,-0.05992 1.1144803,-0.143799 0.1677666,-0.08989 0.284608,-0.206717 0.3505219,-0.350522 0.065907,-0.149792 0.098861,-0.590193 0.098866,-1.321199 l 0,-6.579028 c -3.9e-6,-0.886781 -0.029962,-1.456004 -0.089877,-1.707672 -0.041947,-0.191718 -0.1198412,-0.332535 -0.2336813,-0.422424 -0.1078562,-0.08987 -0.2396764,-0.1348 -0.3954608,-0.13482 -0.2217006,10e-6 -0.5302794,0.09289 -0.9257375,0.278619 L -5.6061171,11.16244 M 15.999276,48 C -1.6453196,48 -16,33.643872 -16,15.999276 -16,-1.6453196 -1.6453196,-16 15.999276,-16 33.643872,-16 48,-1.6453196 48,15.999276 48,33.643872 33.643872,48 15.999276,48 z m 0,-61.829871 c -16.44668437,0 -29.829147,13.38101585 -29.829147,29.829147 0,16.448131 13.38246263,29.830595 29.829147,29.830595 16.449579,0 29.830595,-13.382464 29.830595,-29.830595 0,-16.44813115 -13.381016,-29.829147 -29.830595,-29.829147 z"
       inkscape:connector-curvature="0" /></g></svg>