<svg width="64" height="64" xmlns="http://www.w3.org/2000/svg">
 <g>
  <title>Layer 1</title>
  <g>
   <path d="m37.4095,15.206c-0.646,0 -1.064,0.057 -1.312,0.114v8.384c0.248,0.057 0.646,0.057 1.008,0.057c2.624,0.019 4.335,-1.426 4.335,-4.487c0.018,-2.661 -1.541,-4.068 -4.031,-4.068z"/>
   <path d="m6.8335,6.833v24.167h50.333v-24.167h-50.333l0,0zm23.83,19.058h-2.89v-5.361h-4.772v5.361h-2.909v-12.815h2.909v4.924h4.772v-4.924h2.89v12.815l0,0zm11.727,-1.521c-1.35001,1.122 -3.403,1.654 -5.913,1.654c-1.502,0 -2.566,-0.095 -3.289,-0.19v-12.586c1.064,-0.171 2.453,-0.267 3.917,-0.267c2.434,0 4.012,0.438 5.248,1.369c1.331,0.989 2.167,2.566 2.167,4.829c-0.001,2.453 -0.89399,4.145 -2.12999,5.191z"/>
   <path d="m6.8335,57.167h50.333v-24.167h-50.333v24.167l0,0zm35.765,-18.51c3.309,0 4.601,2.947 4.601,6.332c0,3.821 -1.54,6.445 -4.696,6.445c-3.194,0 -4.60101,-2.87099 -4.62,-6.369c0,-3.575 1.521,-6.408 4.715,-6.408zm-15.074,10.818l1.597,-1.445c2.7,-2.415 4.012,-3.803 4.05,-5.248c0,-1.008 -0.608,-1.806 -2.034,-1.806c-1.065,0 -1.997,0.532 -2.643,1.026l-0.817,-2.072c0.932,-0.704 2.376,-1.274 4.05,-1.274c2.794,0 4.334,1.635 4.334,3.87901c0,2.072 -1.502,3.726 -3.289,5.323l-1.141,0.951v0.038h4.658v2.376h-8.765v-1.748l0,0l0,0zm-10.416,-10.609h8.727v1.825l-5.095,10.533h-3.061l5.095,-9.943v-0.038h-5.666v-2.377l0,0z"/>
   <path d="m42.5795,49.247c1.122,0 1.73,-1.40701 1.73,-4.221c0,-2.738 -0.589,-4.183 -1.749,-4.183c-1.065,0 -1.788,1.35 -1.769,4.221c-0.019,2.833 0.666,4.183 1.78801,4.183z"/>
  </g>
 </g>
</svg>

