<?xml version="1.0" encoding="UTF-8" standalone="no"?>
<!-- Created with Inkscape (http://www.inkscape.org/) -->

<svg
   xmlns:dc="http://purl.org/dc/elements/1.1/"
   xmlns:cc="http://creativecommons.org/ns#"
   xmlns:rdf="http://www.w3.org/1999/02/22-rdf-syntax-ns#"
   xmlns:svg="http://www.w3.org/2000/svg"
   xmlns="http://www.w3.org/2000/svg"
   version="1.1"
   width="41.91161"
   height="17.29521"
   id="svg3187">
  <defs
     id="defs3189" />
  <metadata
     id="metadata3192">
    <rdf:RDF>
      <cc:Work
         rdf:about="">
        <dc:format>image/svg+xml</dc:format>
        <dc:type
           rdf:resource="http://purl.org/dc/dcmitype/StillImage" />
        <dc:title></dc:title>
      </cc:Work>
    </rdf:RDF>
  </metadata>
  <g
     transform="translate(458.42857,-430.79561)"
     id="layer1">
    <path
       d="m -421.51696,439.44122 c 0,2.01358 -1.63079,3.6456 -3.64564,3.6456 -2.01233,0 -3.64565,-1.63202 -3.64565,-3.6456 0,-2.01359 1.63332,-3.64561 3.64565,-3.64561 2.01485,0 3.64564,1.63202 3.64564,3.64561 z m -12.26537,0.004 c 0,2.01359 -1.63079,3.6456 -3.64565,3.6456 -2.01233,0 -3.64564,-1.63201 -3.64564,-3.6456 0,-2.0136 1.63331,-3.6456 3.64564,-3.6456 2.01486,0 3.64565,1.632 3.64565,3.6456 z m -12.35495,0 c 0,2.01359 -1.63198,3.6456 -3.64565,3.6456 -2.01352,0 -3.64564,-1.63201 -3.64564,-3.6456 0,-2.0136 1.63212,-3.6456 3.64564,-3.6456 2.01367,0 3.64565,1.632 3.64565,3.6456 z"
       id="svg_1"
       style="fill:#000000" />
  </g>
</svg>
