<?xml version="1.0" encoding="UTF-8" standalone="no"?>
<!-- Created with Inkscape (http://www.inkscape.org/) -->

<svg
   xmlns:dc="http://purl.org/dc/elements/1.1/"
   xmlns:cc="http://creativecommons.org/ns#"
   xmlns:rdf="http://www.w3.org/1999/02/22-rdf-syntax-ns#"
   xmlns:svg="http://www.w3.org/2000/svg"
   xmlns="http://www.w3.org/2000/svg"
   version="1.1"
   width="54"
   height="25.927683"
   id="svg3094">
  <metadata
     id="metadata3108">
    <rdf:RDF>
      <cc:Work
         rdf:about="">
        <dc:format>image/svg+xml</dc:format>
        <dc:type
           rdf:resource="http://purl.org/dc/dcmitype/StillImage" />
        <dc:title></dc:title>
      </cc:Work>
    </rdf:RDF>
  </metadata>
  <defs
     id="defs3106" />
  <g
     transform="matrix(1.0728548,0,0,1.0728548,-7.3313533,-7.3308168)"
     id="g3096">
    <title
       id="title3098">Layer 1</title>
    <path
       d="m 37.4095,15.206 c -0.646,0 -1.064,0.057 -1.312,0.114 v 8.384 c 0.248,0.057 0.646,0.057 1.008,0.057 2.624,0.019 4.335,-1.426 4.335,-4.487 0.018,-2.661 -1.541,-4.068 -4.031,-4.068 z"
       id="path3100" />
    <path
       d="M 6.8335,6.833 V 31 h 50.333 V 6.833 H 6.8335 l 0,0 z m 23.83,19.058 h -2.89 V 20.53 h -4.772 v 5.361 h -2.909 V 13.076 h 2.909 V 18 h 4.772 v -4.924 h 2.89 v 12.815 l 0,0 z m 11.727,-1.521 c -1.35,1.122 -3.403,1.654 -5.913,1.654 -1.502,0 -2.566,-0.095 -3.289,-0.19 V 13.248 c 1.064,-0.171 2.453,-0.267 3.917,-0.267 2.434,0 4.012,0.438 5.248,1.369 1.331,0.989 2.167,2.566 2.167,4.829 -10e-4,2.453 -0.894,4.145 -2.13,5.191 l 0,0 z"
       id="path3102"
       style="fill:#000000" />
  </g>
</svg>
