<?xml version="1.0" encoding="UTF-8" standalone="no"?>
<!-- Created with Inkscape (http://www.inkscape.org/) -->

<svg
   xmlns:dc="http://purl.org/dc/elements/1.1/"
   xmlns:cc="http://creativecommons.org/ns#"
   xmlns:rdf="http://www.w3.org/1999/02/22-rdf-syntax-ns#"
   xmlns:svg="http://www.w3.org/2000/svg"
   xmlns="http://www.w3.org/2000/svg"
   version="1.1"
   width="33"
   height="33"
   viewBox="0 0 33 33"
   id="Layer_1"
   xml:space="preserve"><metadata
     id="metadata7560"><rdf:RDF><cc:Work
         rdf:about=""><dc:format>image/svg+xml</dc:format><dc:type
           rdf:resource="http://purl.org/dc/dcmitype/StillImage" /><dc:title></dc:title></cc:Work></rdf:RDF></metadata><defs
     id="defs7558" /><polygon
     points="154.188,335.188 176.812,357.812 256,278.625 335.188,357.812 357.812,335.188 278.625,256 357.812,176.812 335.188,154.188 256,233.375 176.812,154.188 154.188,176.812 233.375,256 "
     transform="matrix(0.0625,0,0,0.0625,0.5,0.5)"
     id="polygon7552"
     style="fill:#ff0000" /><path
     d="m 16.5,0.5 c -8.83694,0 -16,7.16306 -16,16 0,8.83694 7.16306,16 16,16 8.83694,0 16,-7.16306 16,-16 0,-8.83694 -7.16306,-16 -16,-16 z m 0,29.5 C 9.04394,30 3,23.95606 3,16.5 3,9.04394 9.04394,3 16.5,3 23.95606,3 30,9.04394 30,16.5 30,23.95606 23.95606,30 16.5,30 z"
     id="path7554"
     style="fill:#ff0000" /></svg>