<?xml version="1.0" encoding="UTF-8" standalone="no"?>
<svg
   xmlns:dc="http://purl.org/dc/elements/1.1/"
   xmlns:cc="http://creativecommons.org/ns#"
   xmlns:rdf="http://www.w3.org/1999/02/22-rdf-syntax-ns#"
   xmlns:svg="http://www.w3.org/2000/svg"
   xmlns="http://www.w3.org/2000/svg"
   xml:space="preserve"
   id="Layer_1"
   viewBox="0 0 24 24"
   height="24"
   width="24"
   version="1.1"><metadata
     id="metadata12739"><rdf:RDF><cc:Work
         rdf:about=""><dc:format>image/svg+xml</dc:format><dc:type
           rdf:resource="http://purl.org/dc/dcmitype/StillImage" /><dc:title></dc:title></cc:Work></rdf:RDF></metadata><defs
     id="defs12737" /><g
     id="g9677"><g
       transform="scale(0.046875,0.046875)"
       id="g12729"
       style="fill:#ffffff"><path
         d="M 256,0 C 114.609,0 0,114.609 0,256 0,397.391 114.609,512 256,512 397.391,512 512,397.391 512,256 512,114.609 397.391,0 256,0 Z m 0,472 C 136.703,472 40,375.297 40,256 40,136.703 136.703,40 256,40 c 119.297,0 216,96.703 216,216 0,119.297 -96.703,216 -216,216 z"
         id="path12731"
         style="fill:#ffffff;fill-rule:evenodd" /><path
         d="M 331.141,148.297 232.156,208 168,208 c -4.422,0 -8,3.578 -8,8 l 0,80 c 0,4.422 3.578,8 8,8 l 67.5,0 95.641,59.719 C 348.172,373.688 352,365.657 352,345.875 l 0,-179.766 c 0,-19.75 -3.828,-27.797 -20.859,-17.812 z"
         id="path12733"
         style="fill:#ffffff" /></g></g></svg>