<?xml version="1.0" encoding="UTF-8" standalone="no"?>
<svg
   xmlns:dc="http://purl.org/dc/elements/1.1/"
   xmlns:cc="http://creativecommons.org/ns#"
   xmlns:rdf="http://www.w3.org/1999/02/22-rdf-syntax-ns#"
   xmlns:svg="http://www.w3.org/2000/svg"
   xmlns="http://www.w3.org/2000/svg"
   xml:space="preserve"
   id="Layer_1"
   viewBox="0 0 24 24"
   height="24"
   width="24"
   version="1.1"><metadata
     id="metadata15907"><rdf:RDF><cc:Work
         rdf:about=""><dc:format>image/svg+xml</dc:format><dc:type
           rdf:resource="http://purl.org/dc/dcmitype/StillImage" /><dc:title></dc:title></cc:Work></rdf:RDF></metadata><defs
     id="defs15905" /><g
     id="g6642"><g
       transform="scale(0.046875,0.046875)"
       id="g15893"
       style="fill:#ffffff"><path
         d="M 256,0 C 114.609,0 0,114.609 0,256 0,397.391 114.609,512 256,512 397.391,512 512,397.391 512,256 512,114.609 397.391,0 256,0 Z m 0,472 C 136.703,472 40,375.297 40,256 40,136.703 136.703,40 256,40 c 119.297,0 216,96.703 216,216 0,119.297 -96.703,216 -216,216 z"
         id="path15895"
         style="fill:#ffffff" /><g
         id="g15897"
         style="fill:#ffffff"><polygon
           points="271.5,176.5 271.5,336.5 335.5,336.5 335.5,211.5 335.5,176.5 "
           id="polygon15899"
           style="fill:#ffffff" /><rect
           width="64"
           height="160"
           x="175.5"
           y="176.5"
           id="rect15901"
           style="fill:#ffffff" /></g></g></g></svg>