<?xml version="1.0" encoding="UTF-8" standalone="no"?>
<svg
   xmlns:dc="http://purl.org/dc/elements/1.1/"
   xmlns:cc="http://creativecommons.org/ns#"
   xmlns:rdf="http://www.w3.org/1999/02/22-rdf-syntax-ns#"
   xmlns:svg="http://www.w3.org/2000/svg"
   xmlns="http://www.w3.org/2000/svg"
   xml:space="preserve"
   id="Layer_1"
   viewBox="0 0 24 24"
   height="24"
   width="24"
   version="1.1"><metadata
     id="metadata5855"><rdf:RDF><cc:Work
         rdf:about=""><dc:format>image/svg+xml</dc:format><dc:type
           rdf:resource="http://purl.org/dc/dcmitype/StillImage" /><dc:title></dc:title></cc:Work></rdf:RDF></metadata><defs
     id="defs5853" /><g
     id="g7856"><g
       id="g3635"
       transform="matrix(0.75,0,0,0.75,-0.375,-0.375)"><path
         d="m 16.5,32.5 c 8.83694,0 16,-7.16306 16,-16 0,-8.83694 -7.16306,-16 -16,-16 -8.83694,0 -16,7.16306 -16,16 0,8.83694 7.16306,16 16,16 z M 16.5,3 C 23.95606,3 30,9.04394 30,16.5 30,23.95606 23.95606,30 16.5,30 9.04394,30 3,23.95606 3,16.5 3,9.04394 9.04394,3 16.5,3 Z"
         id="path5847"
         style="fill:#ffffff;fill-rule:evenodd" /><polygon
         points="274,256 194,336 226,368 338,256 226,144 194,176 "
         transform="matrix(0.0625,0,0,0.0625,0.5,0.5)"
         id="polygon5849"
         style="fill:#ffffff;fill-rule:evenodd" /></g></g></svg>