<?xml version="1.0" encoding="UTF-8" standalone="no"?>
<svg
   xmlns:dc="http://purl.org/dc/elements/1.1/"
   xmlns:cc="http://creativecommons.org/ns#"
   xmlns:rdf="http://www.w3.org/1999/02/22-rdf-syntax-ns#"
   xmlns:svg="http://www.w3.org/2000/svg"
   xmlns="http://www.w3.org/2000/svg"
   xml:space="preserve"
   id="Layer_1"
   viewBox="0 0 33 33"
   height="33"
   width="33"
   version="1.1"><metadata
     id="metadata17548"><rdf:RDF><cc:Work
         rdf:about=""><dc:format>image/svg+xml</dc:format><dc:type
           rdf:resource="http://purl.org/dc/dcmitype/StillImage" /><dc:title></dc:title></cc:Work></rdf:RDF></metadata><defs
     id="defs17546" /><g
     id="g18774"><path
       style="fill:#000000"
       id="path17540"
       d="m 16.5,0.5 c -8.83694,0 -16,7.16306 -16,16 0,8.83694 7.16306,16 16,16 8.83694,0 16,-7.16306 16,-16 0,-8.83694 -7.16306,-16 -16,-16 z m 0,29.5 C 9.04394,30 3,23.95606 3,16.5 3,9.04394 9.04394,3 16.5,3 23.95606,3 30,9.04394 30,16.5 30,23.95606 23.95606,30 16.5,30 z" /><path
       style="fill:#00470c;fill-opacity:1;fill-rule:evenodd"
       id="path17542"
       d="m 16.5,8.5 c -4.41844,0 -8,3.582 -8,8 0,4.418 3.58156,8 8,8 4.418,0 8,-3.582 8,-8 0,-4.418 -3.582,-8 -8,-8 z m 4,9 -3,0 0,3 -2,0 0,-3 -3,0 0,-2 3,0 0,-3 2,0 0,3 3,0 0,2 z" /></g></svg>