<?xml version="1.0" encoding="UTF-8" standalone="no"?>
<svg
   xmlns:dc="http://purl.org/dc/elements/1.1/"
   xmlns:cc="http://creativecommons.org/ns#"
   xmlns:rdf="http://www.w3.org/1999/02/22-rdf-syntax-ns#"
   xmlns:svg="http://www.w3.org/2000/svg"
   xmlns="http://www.w3.org/2000/svg"
   version="1.1"
   width="77"
   height="77"
   viewBox="0 0 77 77"
   id="Layer_1"
   xml:space="preserve"><metadata
     id="metadata17548"><rdf:RDF><cc:Work
         rdf:about=""><dc:format>image/svg+xml</dc:format><dc:type
           rdf:resource="http://purl.org/dc/dcmitype/StillImage" /><dc:title></dc:title></cc:Work></rdf:RDF></metadata><defs
     id="defs17546" /><g
     transform="matrix(2.375,0,0,2.375,-0.6875,-0.6875)"
     id="g17550"
     style="fill:#000000;fill-opacity:1" /><g
     id="g6652"><ellipse
       style="color:#000000;display:inline;overflow:visible;visibility:visible;opacity:1;fill:#000000;fill-opacity:1;fill-rule:nonzero;stroke:#ff0000;stroke-width:0.96223044;stroke-linecap:butt;stroke-linejoin:miter;stroke-miterlimit:4;stroke-dasharray:none;stroke-dashoffset:0;stroke-opacity:1;marker:none;enable-background:accumulate"
       id="path4323"
       cx="38.694641"
       cy="38.538464"
       rx="35.100471"
       ry="34.867374" /><path
       style="fill:#ffffff;fill-opacity:1"
       id="path17540"
       d="m 38.5,0.5 c -20.987733,0 -38,17.012267 -38,38 0,20.987732 17.012267,38 38,38 20.987732,0 38,-17.012268 38,-38 0,-20.987733 -17.012268,-38 -38,-38 z m 0,70.0625 C 20.791857,70.5625 6.4375,56.208142 6.4375,38.5 6.4375,20.791857 20.791857,6.4375 38.5,6.4375 c 17.708142,0 32.0625,14.354357 32.0625,32.0625 0,17.708142 -14.354358,32.0625 -32.0625,32.0625 z" /><text
       xml:space="preserve"
       style="font-style:normal;font-variant:normal;font-weight:bold;font-stretch:normal;font-size:22.5px;line-height:50%;font-family:Sans;-inkscape-font-specification:'Sans, Bold';text-align:start;letter-spacing:0px;word-spacing:0px;writing-mode:lr-tb;text-anchor:start;fill:#ffffff;fill-opacity:1;stroke:none;stroke-width:1px;stroke-linecap:butt;stroke-linejoin:miter;stroke-opacity:1"
       x="21.151295"
       y="46.748543"
       id="text4176"><tspan
         id="tspan4178"
         x="21.151295"
         y="46.748543"
         style="font-style:normal;font-variant:normal;font-weight:bold;font-stretch:normal;font-size:22.5px;line-height:50%;font-family:Sans;-inkscape-font-specification:'Sans, Bold';text-align:start;writing-mode:lr-tb;text-anchor:start">SD</tspan></text>
</g></svg>