<svg width="56" height="56" xmlns="http://www.w3.org/2000/svg">
 <g>
  <title>default</title>
  <path fill="#ffffff" d="m43.4175,45.25l-30.834,0c-5.79,0 -10.5,-4.711 -10.5,-10.5c0,-5.102 3.76,-9.483 8.709,-10.342c0.441,-4.772 4.44,-8.492 9.291,-8.492c1.504,0 2.97,0.359 4.291,1.045c2.625,-3.854 7.025,-6.211 11.708,-6.211c7.811,0 14.166,6.355 14.166,14.167c0,0.566 -0.039,1.149 -0.121,1.77c2.383,1.988 3.789,4.958 3.789,8.064c0.001,5.788 -4.708,10.499 -10.499,10.499zm-23.334,-27.335c-4.043,0 -7.333,3.29 -7.333,7.334l0,0.917l-0.911,0.12c-4.35,0.378 -7.756,4.094 -7.756,8.463c0,4.686 3.813,8.5 8.5,8.5l30.833,0c4.688,0 8.5,-3.814 8.5,-8.5c0,-2.717 -1.26,-5.207 -3.459,-6.833l-0.494,-0.364l0.102,-0.604c0.125,-0.736 0.184,-1.4 0.184,-2.031c0,-6.709 -5.457,-12.167 -12.166,-12.167c-4.311,0 -8.339,2.325 -10.516,6.067l-0.534,0.919l-0.885,-0.59c-1.207,-0.805 -2.613,-1.231 -4.065,-1.231z" id="svg_1"/>
 </g>
</svg>
