<svg width="56" height="56" xmlns="http://www.w3.org/2000/svg">
 <g>
  <title>error</title>
  <path fill="#ff0000" d="m50.1275,26.6855c0.081,-0.615 0.121,-1.198 0.121,-1.768c0,-7.812 -6.354,-14.167 -14.166,-14.167c-4.685,0 -9.083,2.356 -11.708,6.211c-1.321,-0.687 -2.787,-1.045 -4.291,-1.045c-4.851,0 -8.85,3.72 -9.291,8.491c-4.95,0.859 -8.709,5.241 -8.709,10.342c0,5.79 4.71,10.5 10.5,10.5l30.833,0c5.79,0 10.5,-4.71 10.5,-10.5c0,-3.155 -1.373,-6.061 -3.789,-8.064zm-6.711,16.564l-30.834,0c-4.687,0 -8.5,-3.813 -8.5,-8.5c0,-4.368 3.407,-8.085 7.755,-8.463l0.912,-0.12l0,-0.917c0,-4.043 3.29,-7.333 7.333,-7.333c1.452,0 2.857,0.426 4.064,1.231l0.885,0.591l0.535,-0.92c2.176,-3.743 6.205,-6.068 10.516,-6.068c6.708,0 12.166,5.458 12.166,12.167c0,0.637 -0.06,1.3 -0.184,2.028l-0.103,0.606l0.494,0.365c2.199,1.625 3.46,4.115 3.46,6.833c0.001,4.686 -3.813,8.5 -8.499,8.5zm-1.752,-18.596l-4.346,4.346l4.346,4.346c0.586,0.586 0.586,1.535 0,2.121c-0.293,0.293 -0.677,0.439 -1.061,0.439s-0.768,-0.146 -1.061,-0.439l-4.346,-4.346l-4.346,4.346c-0.293,0.293 -0.677,0.439 -1.061,0.439s-0.768,-0.146 -1.061,-0.439c-0.586,-0.586 -0.586,-1.535 0,-2.121l4.346,-4.346l-4.346,-4.346c-0.586,-0.585 -0.586,-1.536 0,-2.121c0.586,-0.586 1.535,-0.586 2.121,0l4.346,4.346l4.346,-4.346c0.586,-0.586 1.535,-0.586 2.121,0c0.588,0.585 0.588,1.536 0.002,2.121z" id="svg_1"/>
 </g>
</svg>
