<?xml version="1.0" encoding="UTF-8" standalone="no"?>
<!-- Created with Inkscape (http://www.inkscape.org/) -->

<svg
   xmlns:dc="http://purl.org/dc/elements/1.1/"
   xmlns:cc="http://creativecommons.org/ns#"
   xmlns:rdf="http://www.w3.org/1999/02/22-rdf-syntax-ns#"
   xmlns:svg="http://www.w3.org/2000/svg"
   xmlns="http://www.w3.org/2000/svg"
   version="1.1"
   width="64"
   height="42.598343"
   id="svg3132">
  <metadata
     id="metadata3143">
    <rdf:RDF>
      <cc:Work
         rdf:about="">
        <dc:format>image/svg+xml</dc:format>
        <dc:type
           rdf:resource="http://purl.org/dc/dcmitype/StillImage" />
        <dc:title></dc:title>
        <cc:license
           rdf:resource="http://creativecommons.org/licenses/publicdomain/" />
      </cc:Work>
      <cc:License
         rdf:about="http://creativecommons.org/licenses/publicdomain/">
        <cc:permits
           rdf:resource="http://creativecommons.org/ns#Reproduction" />
        <cc:permits
           rdf:resource="http://creativecommons.org/ns#Distribution" />
        <cc:permits
           rdf:resource="http://creativecommons.org/ns#DerivativeWorks" />
      </cc:License>
    </rdf:RDF>
  </metadata>
  <defs
     id="defs3141" />
  <g
     id="g3213">
    <g
       transform="matrix(1.2347346,0,0,1.2347346,-2.5725695,-13.273397)"
       id="g3134"
       style="fill:#ffffff">
      <title
         id="title3136">default</title>
      <path
         d="m 43.4175,45.25 -30.834,0 c -5.79,0 -10.5,-4.711 -10.5,-10.5 0,-5.102 3.76,-9.483 8.709,-10.342 0.441,-4.772 4.44,-8.492 9.291,-8.492 1.504,0 2.97,0.359 4.291,1.045 2.625,-3.854 7.025,-6.211 11.708,-6.211 7.811,0 14.166,6.355 14.166,14.167 0,0.566 -0.039,1.149 -0.121,1.77 2.383,1.988 3.789,4.958 3.789,8.064 10e-4,5.788 -4.708,10.499 -10.499,10.499 z M 20.0835,17.915 c -4.043,0 -7.333,3.29 -7.333,7.334 l 0,0.917 -0.911,0.12 c -4.35,0.378 -7.756,4.094 -7.756,8.463 0,4.686 3.813,8.5 8.5,8.5 l 30.833,0 c 4.688,0 8.5,-3.814 8.5,-8.5 0,-2.717 -1.26,-5.207 -3.459,-6.833 l -0.494,-0.364 0.102,-0.604 c 0.125,-0.736 0.184,-1.4 0.184,-2.031 0,-6.709 -5.457,-12.167 -12.166,-12.167 -4.311,0 -8.339,2.325 -10.516,6.067 l -0.534,0.919 -0.885,-0.59 c -1.207,-0.805 -2.613,-1.231 -4.065,-1.231 z"
         id="svg_1"
         style="fill:#ffffff" />
    </g>
    <polygon
       points="335.188,357.812 357.812,335.188 278.625,256 357.812,176.812 335.188,154.188 256,233.375 176.812,154.188 154.188,176.812 233.375,256 154.188,335.188 176.812,357.812 256,278.625 "
       transform="matrix(0.0825,0,0,0.0825,20.338496,1.0816783)"
       id="polygon8621"
       style="fill:#ff0000;stroke:#ff0000" />
  </g>
</svg>
