<?xml version="1.0" encoding="UTF-8" standalone="no"?>
<!-- Created with Inkscape (http://www.inkscape.org/) -->

<svg
   xmlns:dc="http://purl.org/dc/elements/1.1/"
   xmlns:cc="http://creativecommons.org/ns#"
   xmlns:rdf="http://www.w3.org/1999/02/22-rdf-syntax-ns#"
   xmlns:svg="http://www.w3.org/2000/svg"
   xmlns="http://www.w3.org/2000/svg"
   version="1.1"
   width="32"
   height="32.000362"
   id="svg5023">
  <defs
     id="defs5025" />
  <metadata
     id="metadata5028">
    <rdf:RDF>
      <cc:Work
         rdf:about="">
        <dc:format>image/svg+xml</dc:format>
        <dc:type
           rdf:resource="http://purl.org/dc/dcmitype/StillImage" />
        <dc:title></dc:title>
        <cc:license
           rdf:resource="http://artlibre.org/licence/lal" />
      </cc:Work>
      <cc:License
         rdf:about="http://artlibre.org/licence/lal">
        <cc:permits
           rdf:resource="http://creativecommons.org/ns#Reproduction" />
        <cc:permits
           rdf:resource="http://creativecommons.org/ns#Distribution" />
        <cc:permits
           rdf:resource="http://creativecommons.org/ns#DerivativeWorks" />
        <cc:requires
           rdf:resource="http://creativecommons.org/ns#ShareAlike" />
        <cc:requires
           rdf:resource="http://creativecommons.org/ns#Notice" />
        <cc:requires
           rdf:resource="http://creativecommons.org/ns#Attribution" />
      </cc:License>
    </rdf:RDF>
  </metadata>
  <g
     id="g3060"
     style="fill:#ffffff">
    <g
       transform="matrix(0.49999997,0,0,0.49999997,2.3722849e-6,4.9999997e-5)"
       id="g5093"
       style="fill:#ffffff">
      <g
         transform="translate(-307.99998,-454.64755)"
         id="g6455"
         style="fill:#ffffff">
        <g
           id="g6423"
           style="fill:#ffffff">
          <path
             d="m 340.57853,454.65045 -0.59117,-0.003 c -17.32046,0 -31.66546,14.09003 -31.98206,31.4161 -0.3194,17.64546 13.77064,32.25943 31.4133,32.58163 l 0.58837,0.003 c 17.32046,0 31.67106,-14.09564 31.98766,-31.4161 0.1541,-8.55096 -3.0259,-16.64524 -8.96002,-22.79509 -5.93412,-6.15827 -13.90792,-9.62404 -22.45608,-9.78654 z m -0.57156,61.70029 -0.55194,-0.008 c -16.37347,-0.29138 -29.45487,-13.85749 -29.15509,-30.23376 0.29139,-16.08208 13.60534,-29.16348 29.68462,-29.16348 l 0.55194,0.006 c 7.93738,0.13729 15.33682,3.36491 20.84227,9.08049 5.51106,5.70999 8.46411,13.2243 8.32122,21.15047 -0.29418,16.08488 -13.61654,29.16909 -29.69302,29.16909 z"
             id="path4050"
             style="fill:#ffffff" />
        </g>
      </g>
    </g>
  </g>
  <g
     id="g6267"
     style="fill:#ffffff">
    <path
       d="m 24.187181,18.273995 c -0.5586,0 -1.0484,0.29 -1.33,0.7272 l -3.439,-1.6494 c 0.018,-0.0732 0.0304,-0.1488 0.0304,-0.228 0,-0.526 -0.427,-0.9528 -0.9532,-0.9528 -0.5262,0 -0.9528,0.4268 -0.9528,0.9528 0,0.15 0.0378,0.29 0.0996,0.4162 l -0.7704,0.6762 -1.832,-1.1702 c 0.0308,-0.0966 0.052,-0.198 0.052,-0.305 0,-0.1328 -0.027,-0.259 -0.0738,-0.375 l 1.5566,-1.0808 c 0.1508,0.1666 0.3672,0.2734 0.6098,0.2734 0.4558,0 0.8254,-0.3694 0.8254,-0.825 0,-0.1196 -0.0266,-0.2322 -0.0722,-0.3348 l 0.7958,-0.5076 c 0.116,0.0982 0.264,0.1596 0.4282,0.1596 0.2542,0 0.4726,-0.1444 0.5852,-0.3542 l 0.08739,-0.289271 -0.0224,-0.214264 -0.06733,-0.119867 c -0.004,-0.0288 0.06393,0.164601 0.05653,0.137001 l 0.5378,-0.3434 c 0.1054,0.1006 0.2476,0.163 0.4046,0.163 0.3254,0 0.5894,-0.2636 0.5894,-0.5888 0,-0.3252 -0.264,-0.589 -0.5894,-0.589 -0.325,0 -0.5886,0.2638 -0.5886,0.589 0,0.019 0.0036,0.037 0.0054,0.0554 l -0.5836,0.3722 c -0.1144,-0.0918 -0.2574,-0.149 -0.4152,-0.149 -0.3676,0 -0.6656,0.298 -0.6656,0.6656 0,0.055 0.0086,0.108 0.021,0.1594 l -0.836,0.5336 c -0.1386,-0.1052 -0.3094,-0.1698 -0.4964,-0.1698 -0.241,0 -0.4558,0.105 -0.607,0.2702 l -1.1278,-0.2542 c 0,-0.0052 0.0016,-0.0104 0.0016,-0.0158 0,-0.03 -0.005,-0.0584 -0.0086,-0.0872 l 1.0126,-0.5042 c 0.116,0.1318 0.2844,0.2168 0.4742,0.2168 0.35,0 0.634,-0.284 0.634,-0.6336 0,-0.3498 -0.284,-0.6336 -0.634,-0.6336 -0.35,0 -0.634,0.2838 -0.634,0.6336 0,0.0128 0.0032,0.025 0.004,0.0378 l -1.0312,0.5138 c -0.1214,-0.1284 -0.2922,-0.2092 -0.4828,-0.2092 -0.2348,0 -0.4406,0.1228 -0.559,0.3068 l -0.4484,-0.1792 c 4e-4,-0.0056 0.002,-0.0112 0.002,-0.0172 0,-0.3496 -0.284,-0.6336 -0.6344,-0.6336 -0.1864,0 -0.3528,0.0822 -0.4688,0.211 l -0.2778,-0.111 c -0.0218,-0.2838 -0.257,-0.5084 -0.5468,-0.5084 -0.304,0 -0.5508,0.2466 -0.5508,0.5508 0,0.3042 0.2468,0.5508 0.5508,0.5508 0.1714,0 0.3226,-0.0798 0.4238,-0.2028 l 0.2406,0.0962 c -0.0012,0.0158 -0.0046,0.031 -0.0046,0.0468 0,0.3498 0.284,0.6338 0.6336,0.6338 0.198,0 0.3722,-0.0926 0.4886,-0.2342 l 0.4898,0.1958 c 0.0016,0.0234 0.0032,0.0468 0.007,0.0698 l -1.655,0.8242 c -0.146,-0.1846 -0.37,-0.305 -0.6238,-0.305 -0.4414,0 -0.7996,0.3582 -0.7996,0.7996 0,0.0698 0.0118,0.136 0.0286,0.2002 l -2.7607997,1.3754 c -0.2062,-0.3012 -0.5524,-0.499 -0.945,-0.499 -0.632,0 -1.1442,0.5124 -1.1442,1.1442 0,0.6318 0.5122,1.1442 1.1442,1.1442 0.6316,0 1.1446,-0.5124 1.1446,-1.1442 0,-0.0938 -0.0126,-0.1844 -0.034,-0.2714 l 2.7941997,-1.3914 c 0.1454,0.1488 0.3472,0.242 0.5718,0.242 0.4418,0 0.8,-0.3582 0.8,-0.7996 0,-0.041 -0.0062,-0.0804 -0.0122,-0.12 l 1.6778,-0.8358 c 0.1204,0.1188 0.2856,0.1924 0.4676,0.1924 0.2152,0 0.4046,-0.1038 0.5266,-0.2622 l 1.0688,0.241 c -0.0128,0.0582 -0.021,0.1184 -0.021,0.1806 0,0.0648 0.0094,0.1272 0.0234,0.1878 l -1.5914,1.1044 c -0.1812,-0.1782 -0.4292,-0.2886 -0.7036,-0.2886 -0.5542,0 -1.004,0.4494 -1.004,1.0038 0,0.5544 0.4496,1.0038 1.004,1.0038 0.2996,0 0.566,-0.1342 0.75,-0.3428 l 1.714,1.0948 -0.4086,0.3588 c -0.2422,-0.223 -0.5648,-0.3602 -0.92,-0.3602 -0.7516,0 -1.361,0.6094 -1.361,1.3612 0,0.7516 0.6094,1.361 1.361,1.361 0.7516,0 1.3618,-0.6094 1.3618,-1.361 0,-0.249 -0.068,-0.4818 -0.1852,-0.6826 l 1.4972,-1.3142 c 0.1636,0.1336 0.3704,0.217 0.598,0.217 0.3004,0 0.5656,-0.142 0.7402,-0.3594 l 3.446,1.6528 c -0.0496,0.1534 -0.077,0.3166 -0.077,0.4866 0,0.8738 0.7086,1.5822 1.5824,1.5822 0.8738,0 1.5824,-0.7084 1.5824,-1.5822 4e-4,-0.8742 -0.7082,-1.5826 -1.58199,-1.582599 z"
       id="path6238"
       style="fill:#ffffff" />
  </g>
</svg>
