<?xml version="1.0" encoding="UTF-8" standalone="no"?>
<svg
   xmlns:dc="http://purl.org/dc/elements/1.1/"
   xmlns:cc="http://creativecommons.org/ns#"
   xmlns:rdf="http://www.w3.org/1999/02/22-rdf-syntax-ns#"
   xmlns:svg="http://www.w3.org/2000/svg"
   xmlns="http://www.w3.org/2000/svg"
   xml:space="preserve"
   id="Layer_1"
   viewBox="0 0 33 33"
   height="33"
   width="33"
   version="1.1"><metadata
     id="metadata3372"><rdf:RDF><cc:Work
         rdf:about=""><dc:format>image/svg+xml</dc:format><dc:type
           rdf:resource="http://purl.org/dc/dcmitype/StillImage" /><dc:title></dc:title></cc:Work></rdf:RDF></metadata><defs
     id="defs3370" /><g
     style="fill:#808080"
     id="g3353"><path
       style="fill:#808080;fill-opacity:1;fill-rule:evenodd"
       id="path3364"
       d="m 0.5,16.5 c 0,8.83787 7.16306,16 16,16 8.83694,0 16,-7.16213 16,-16 0,-8.83594 -7.16306,-16 -16,-16 -8.83694,0 -16,7.16406 -16,16 z m 29.5,0 C 30,23.957 23.95606,30 16.5,30 9.04394,30 3,23.957 3,16.5 3,9.04494 9.04394,3 16.5,3 23.95606,3 30,9.04494 30,16.5 z" /><polygon
       style="fill:#808080;fill-opacity:1;fill-rule:evenodd"
       id="polygon3366"
       transform="matrix(0.0625,0,0,0.0625,0.5,0.5)"
       points="175.992,309.344 255.992,384 336.008,309.344 313.102,288 271.961,326.406 271.961,128 239.961,128 239.961,326.406 198.836,288 " /></g></svg>