<?xml version="1.0" encoding="UTF-8" standalone="no"?>
<svg
   xmlns:dc="http://purl.org/dc/elements/1.1/"
   xmlns:cc="http://creativecommons.org/ns#"
   xmlns:rdf="http://www.w3.org/1999/02/22-rdf-syntax-ns#"
   xmlns:svg="http://www.w3.org/2000/svg"
   xmlns="http://www.w3.org/2000/svg"
   xml:space="preserve"
   id="Layer_1"
   viewBox="0 0 33 33"
   height="33"
   width="33"
   version="1.1"><metadata
     id="metadata23012"><rdf:RDF><cc:Work
         rdf:about=""><dc:format>image/svg+xml</dc:format><dc:type
           rdf:resource="http://purl.org/dc/dcmitype/StillImage" /><dc:title></dc:title></cc:Work></rdf:RDF></metadata><defs
     id="defs23010" /><g
     style="fill:#808080"
     id="g3194"><path
       style="fill:#808080;fill-opacity:1"
       id="path23004"
       d="m 16.5,0.5 c -8.83694,0 -16,7.16306 -16,16 0,8.83694 7.16306,16 16,16 8.83694,0 16,-7.16306 16,-16 0,-8.83694 -7.16306,-16 -16,-16 z m 0,29.5 C 9.04394,30 3,23.95606 3,16.5 3,9.04394 9.04394,3 16.5,3 23.95606,3 30,9.04394 30,16.5 30,23.95606 23.95606,30 16.5,30 z" /><path
       style="fill:#808080;fill-opacity:1;fill-rule:evenodd"
       id="path23006"
       d="m 24.5,11.5 v -3 h -3 v 1 h -10 v -1 h -3 v 3 h 1 v 10 h -1 v 3 h 3 v -1 h 10 v 1 h 3 v -3 h -1 v -10 h 1 z m -2,-2 h 1 v 1 h -1 v -1 z m -13,0 h 1 v 1 h -1 v -1 z m 1,14 h -1 v -1 h 1 v 1 z m 13,0 h -1 v -1 h 1 v 1 z m -1,-2 h -1 v 1 h -10 v -1 h -1 v -10 h 1 v -1 h 10 v 1 h 1 v 10 z" /></g></svg>