<?xml version="1.0" encoding="UTF-8" standalone="no"?>
<svg
   xmlns:dc="http://purl.org/dc/elements/1.1/"
   xmlns:cc="http://creativecommons.org/ns#"
   xmlns:rdf="http://www.w3.org/1999/02/22-rdf-syntax-ns#"
   xmlns:svg="http://www.w3.org/2000/svg"
   xmlns="http://www.w3.org/2000/svg"
   xml:space="preserve"
   enable-background="new 0 0 512 512"
   viewBox="0 0 23.999996 23.99987"
   height="23.99987"
   width="23.999996"
   y="0px"
   x="0px"
   id="Layer_1"
   version="1.1"><metadata
     id="metadata4205"><rdf:RDF><cc:Work
         rdf:about=""><dc:format>image/svg+xml</dc:format><dc:type
           rdf:resource="http://purl.org/dc/dcmitype/StillImage" /><dc:title></dc:title></cc:Work></rdf:RDF></metadata><defs
     id="defs4203" /><g
     id="g4814"><path
       d="m 21.239587,10.174796 c 0.60208,2.98103 -0.257819,6.19203 -2.57668,8.50358 -3.67826,3.67535 -9.6477195,3.67535 -13.3288895,0 -3.68267,-3.67395 -3.68127,-9.6272003 0,-13.2995603 3.66513,-3.65482 9.6360095,-3.62267 13.2747105,-0.0454 l -1.29641,1.34918 5.96347,1.3565 -1.67582,-5.81412 -1.20855,1.25393 c -4.848761,-4.74328 -12.2186005,-4.56019 -16.8768505,0.0849 -4.68609,4.67588 -4.68609,12.2536603 0,16.9280303 4.6876,4.67738 12.2830005,4.67738 16.9691005,0 2.64849,-2.63677 3.79695,-6.19934 3.4586,-9.64032 l -2.70268,-0.67679 z"
       id="path4199"
       style="fill:#ffffff" /></g></svg>