<?xml version="1.0" encoding="UTF-8" standalone="no"?>
<svg
   xmlns:dc="http://purl.org/dc/elements/1.1/"
   xmlns:cc="http://creativecommons.org/ns#"
   xmlns:rdf="http://www.w3.org/1999/02/22-rdf-syntax-ns#"
   xmlns:svg="http://www.w3.org/2000/svg"
   xmlns="http://www.w3.org/2000/svg"
   version="1.1"
   id="Layer_1"
   x="0px"
   y="0px"
   viewBox="0 0 24 24"
   enable-background="new 0 0 96 96"
   xml:space="preserve"
   width="24"
   height="24"><metadata
     id="metadata4197"><rdf:RDF><cc:Work
         rdf:about=""><dc:format>image/svg+xml</dc:format><dc:type
           rdf:resource="http://purl.org/dc/dcmitype/StillImage" /><dc:title></dc:title></cc:Work></rdf:RDF></metadata><defs
     id="defs4195" /><path
     d="M 24,14.229645 24,9.820459 21.3,9.36952 C 21.1,8.617954 20.8,7.916493 20.45,7.31524 L 22.05,5.110647 18.95,1.954071 16.7,3.507307 C 16.05,3.156576 15.35,2.85595 14.65,2.655532 L 14.2,0 9.8,0 9.35,2.705637 C 8.6,2.906054 7.95,3.206681 7.3,3.557411 L 5.1,2.004175 1.95,5.110647 3.55,7.31524 C 3.2,7.966597 2.9,8.668058 2.7,9.419624 L 0,9.820459 l 0,4.409186 2.7,0.45094 c 0.2,0.751565 0.5,1.402922 0.85,2.054279 l -1.6,2.254698 3.1,3.106471 2.25,-1.60334 c 0.65,0.350731 1.35,0.651357 2.1,0.851775 L 9.85,24 l 4.4,0 0.45,-2.705637 c 0.7,-0.200417 1.4,-0.501044 2.05,-0.851774 l 2.25,1.60334 3.1,-3.106472 -1.6,-2.254697 c 0.35,-0.651357 0.65,-1.302714 0.85,-2.05428 L 24,14.229645 Z m -12,2.405011 c -2.55,0 -4.6,-2.05428 -4.6,-4.609604 0,-2.555323 2.1,-4.609603 4.6,-4.609603 2.5,0 4.6,2.05428 4.6,4.609603 0,2.555324 -2.05,4.609604 -4.6,4.609604 z"
     id="path4191"
     style="fill:#ffffff" /></svg>