<?xml version="1.0" encoding="UTF-8" standalone="no"?>
<svg
   xmlns:dc="http://purl.org/dc/elements/1.1/"
   xmlns:cc="http://creativecommons.org/ns#"
   xmlns:rdf="http://www.w3.org/1999/02/22-rdf-syntax-ns#"
   xmlns:svg="http://www.w3.org/2000/svg"
   xmlns="http://www.w3.org/2000/svg"
   xml:space="preserve"
   enable-background="new 0 0 512 512"
   viewBox="0 0 27.428572 24"
   height="24"
   width="27.428572"
   y="0px"
   x="0px"
   id="Layer_1"
   version="1.1"><metadata
     id="metadata6289"><rdf:RDF><cc:Work
         rdf:about=""><dc:format>image/svg+xml</dc:format><dc:type
           rdf:resource="http://purl.org/dc/dcmitype/StillImage" /><dc:title></dc:title></cc:Work></rdf:RDF></metadata><defs
     id="defs6287" /><g
     id="g9750"><g
       id="g6277"
       transform="matrix(0.10714286,0,0,0.10714286,-13.714286,-15.428572)"
       style="fill:#ffffff;fill-opacity:1"><path
         d="M 358.719,240.734 C 364.484,231.125 368,220.016 368,208 c 0,-35.344 -28.656,-64 -64,-64 -29.375,0 -53.859,19.906 -61.391,46.875 C 233.875,181.742 221.625,176 208,176 c -26.5,0 -48,21.492 -48,48 0,5.75 1.188,11.203 3.031,16.312 -1,-0.094 -2,-0.312 -3.031,-0.312 -17.672,0 -32,22.328 -32,40 0,17.672 14.328,40 32,40 l 101.594,0 c 9,-32 28.094,-40 50.406,-40 21.656,0 40.219,8.406 49.531,26.391 C 374.516,302.312 384,288.328 384,274 c 0,-15.359 -10.844,-30.172 -25.281,-33.266 z"
         id="path6281"
         style="fill:#ffffff;fill-opacity:1" /><path
         d="m 311.99999,367.99999 c 22.09403,2e-5 40.00003,-17.90599 40,-39.99998 2e-5,-22.09403 -17.90599,-40.00003 -39.99998,-40 -22.09403,-2e-5 -40.00003,17.90599 -40,39.99998 -2e-5,22.09403 17.90599,40.00003 39.99998,40 z m -2e-5,-70.40603 19.20304,22.40607 -11.20295,-3e-5 -8e-5,32 -15.99999,-2e-5 10e-6,-32.00004 -11.20297,5e-5 19.20294,-22.40603 z"
         id="path6283"
         style="fill:#ffffff;fill-opacity:1" /></g></g></svg>