<?xml version="1.0" encoding="UTF-8" standalone="no"?>
<!-- Created with Inkscape (http://www.inkscape.org/) -->

<svg
   xmlns:dc="http://purl.org/dc/elements/1.1/"
   xmlns:cc="http://creativecommons.org/ns#"
   xmlns:rdf="http://www.w3.org/1999/02/22-rdf-syntax-ns#"
   xmlns:svg="http://www.w3.org/2000/svg"
   xmlns="http://www.w3.org/2000/svg"
   version="1.1"
   width="32"
   height="25.333305"
   viewBox="0 0 32 25.333305"
   id="svg28708"
   xml:space="preserve"><metadata
     id="metadata28716"><rdf:RDF><cc:Work
         rdf:about=""><dc:format>image/svg+xml</dc:format><dc:type
           rdf:resource="http://purl.org/dc/dcmitype/StillImage" /><dc:title></dc:title></cc:Work></rdf:RDF></metadata><defs
     id="defs28714" /><path
     d="m 0,10.666611 2.666695,0 0,6.666695 -2.666695,0 0,-6.666695 z M 3.333305,10 l 22.333306,0 0,3.333306 1.000084,0 L 32,8 32,25.333306 26.666695,20 l -1.000084,0 0,5.333306 -22.333306,0 0,-15.333306 z M 8.666695,0 c 2.577263,0 4.66661,2.089348 4.66661,4.666611 0,2.577347 -2.089347,4.666695 -4.66661,4.666695 C 6.089347,9.333306 4,7.243958 4,4.666611 4,2.089348 6.089347,0 8.666695,0 z m 10.66661,0 C 21.910653,0 24,2.089348 24,4.666611 c 0,2.577347 -2.089347,4.666695 -4.666695,4.666695 -2.577347,0 -4.66661,-2.089348 -4.66661,-4.666695 C 14.666695,2.089348 16.755958,0 19.333305,0 z"
     id="path28710"
     style="fill:#ffffff;fill-opacity:1;stroke-width:0.2;stroke-linejoin:round" /></svg>