<?xml version="1.0" encoding="UTF-8" standalone="no"?>
<svg
   xmlns:dc="http://purl.org/dc/elements/1.1/"
   xmlns:cc="http://creativecommons.org/ns#"
   xmlns:rdf="http://www.w3.org/1999/02/22-rdf-syntax-ns#"
   xmlns:svg="http://www.w3.org/2000/svg"
   xmlns="http://www.w3.org/2000/svg"
   xml:space="preserve"
   enable-background="new 0 0 512 512"
   viewBox="0 0 27.428572 24"
   height="24"
   width="27.428572"
   y="0px"
   x="0px"
   id="Layer_1"
   version="1.1"><metadata
     id="metadata6289"><rdf:RDF><cc:Work
         rdf:about=""><dc:format>image/svg+xml</dc:format><dc:type
           rdf:resource="http://purl.org/dc/dcmitype/StillImage" /><dc:title></dc:title></cc:Work></rdf:RDF></metadata><defs
     id="defs6287" /><g
     id="g9860"><g
       id="g9828"><g
         style="fill:#1c1c1c;fill-opacity:1"
         transform="matrix(0.10714286,0,0,0.10714286,-13.714286,-15.428572)"
         id="g6277"><path
           style="fill:#1c1c1c;fill-opacity:1"
           id="path6281"
           d="M 358.719,240.734 C 364.484,231.125 368,220.016 368,208 c 0,-35.344 -28.656,-64 -64,-64 -29.375,0 -53.859,19.906 -61.391,46.875 C 233.875,181.742 221.625,176 208,176 c -26.5,0 -48,21.492 -48,48 0,5.75 1.188,11.203 3.031,16.312 -1,-0.094 -2,-0.312 -3.031,-0.312 -17.672,0 -32,22.328 -32,40 0,17.672 14.328,40 32,40 l 101.594,0 c 9,-32 28.094,-40 50.406,-40 21.656,0 40.219,8.406 49.531,26.391 C 374.516,302.312 384,288.328 384,274 c 0,-15.359 -10.844,-30.172 -25.281,-33.266 z" /><path
           style="fill:#1c1c1c;fill-opacity:1"
           id="path6283"
           d="m 312,288 c -22.094,0 -40,17.906 -40,40 0,22.094 17.906,40 40,40 22.094,0 40,-17.906 40,-40 0,-22.094 -17.906,-40 -40,-40 z m 0,70.406 L 292.797,336 304,336 l 0,-32 16,0 0,32 11.203,0 L 312,358.406 Z" /></g></g></g></svg>