<?xml version="1.0" encoding="UTF-8" standalone="no"?>
<!-- Created with Inkscape (http://www.inkscape.org/) -->

<svg
   xmlns:dc="http://purl.org/dc/elements/1.1/"
   xmlns:cc="http://creativecommons.org/ns#"
   xmlns:rdf="http://www.w3.org/1999/02/22-rdf-syntax-ns#"
   xmlns:svg="http://www.w3.org/2000/svg"
   xmlns="http://www.w3.org/2000/svg"
   version="1.1"
   width="1920.0032"
   height="608.9801"
   id="svg2">
  <defs
     id="defs4" />
  <metadata
     id="metadata7">
    <rdf:RDF>
      <cc:Work
         rdf:about="">
        <dc:format>image/svg+xml</dc:format>
        <dc:type
           rdf:resource="http://purl.org/dc/dcmitype/StillImage" />
        <dc:title></dc:title>
      </cc:Work>
    </rdf:RDF>
  </metadata>
  <g
     transform="translate(0.0625,0.0625)"
     id="layer1">
    <path
       d="M 0,0 0,608.9176 M 5,0 5,608.9176 M 10,0 10,608.9176 M 15,0 15,608.9176 M 20,0 20,608.9176 M 25,0 25,608.9176 M 30,0 30,608.9176 M 35,0 35,608.9176 M 40,0 40,608.9176 M 45,0 45,608.9176 M 50,0 50,608.9176 M 55,0 55,608.9176 M 60,0 60,608.9176 M 65,0 65,608.9176 M 70,0 70,608.9176 M 75,0 75,608.9176 M 80,0 80,608.9176 M 85,0 85,608.9176 M 90,0 90,608.9176 M 95,0 95,608.9176 M 100,0 100,608.9176 M 105,0 105,608.9176 M 110,0 110,608.9176 M 115,0 115,608.9176 M 120,0 120,608.9176 M 125,0 125,608.9176 M 130,0 130,608.9176 M 135,0 135,608.9176 M 140,0 140,608.9176 M 145,0 145,608.9176 M 150,0 150,608.9176 M 155,0 155,608.9176 M 160,0 160,608.9176 M 165,0 165,608.9176 M 170,0 170,608.9176 M 175,0 175,608.9176 M 180,0 180,608.9176 M 185,0 185,608.9176 M 190,0 190,608.9176 M 195,0 195,608.9176 M 200,0 200,608.9176 M 205,0 205,608.9176 M 210,0 210,608.9176 M 215,0 215,608.9176 M 220,0 220,608.9176 M 225,0 225,608.9176 M 230,0 230,608.9176 M 235,0 235,608.9176 M 240,0 240,608.9176 M 245,0 245,608.9176 M 250,0 250,608.9176 M 255,0 255,608.9176 M 260,0 260,608.9176 M 265,0 265,608.9176 M 270,0 270,608.9176 M 275,0 275,608.9176 M 280,0 280,608.9176 M 285,0 285,608.9176 M 290,0 290,608.9176 M 295,0 295,608.9176 M 300,0 300,608.9176 M 305,0 305,608.9176 M 310,0 310,608.9176 M 315,0 315,608.9176 M 320,0 320,608.9176 M 325,0 325,608.9176 M 330,0 330,608.9176 M 335,0 335,608.9176 M 340,0 340,608.9176 M 345,0 345,608.9176 M 350,0 350,608.9176 M 355,0 355,608.9176 M 360,0 360,608.9176 M 365,0 365,608.9176 M 370,0 370,608.9176 M 375,0 375,608.9176 M 380,0 380,608.9176 M 385,0 385,608.9176 M 390,0 390,608.9176 M 395,0 395,608.9176 M 400,0 400,608.9176 M 405,0 405,608.9176 M 410,0 410,608.9176 M 415,0 415,608.9176 M 420,0 420,608.9176 M 425,0 425,608.9176 M 430,0 430,608.9176 M 435,0 435,608.9176 M 440,0 440,608.9176 M 445,0 445,608.9176 M 450,0 450,608.9176 M 455,0 455,608.9176 M 460,0 460,608.9176 M 465,0 465,608.9176 M 470,0 470,608.9176 M 475,0 475,608.9176 M 480,0 480,608.9176 M 485,0 485,608.9176 M 490,0 490,608.9176 M 495,0 495,608.9176 M 500,0 500,608.9176 M 505,0 505,608.9176 M 510,0 510,608.9176 M 515,0 515,608.9176 M 520,0 520,608.9176 M 525,0 525,608.9176 M 530,0 530,608.9176 M 535,0 535,608.9176 M 540,0 540,608.9176 M 545,0 545,608.9176 M 550,0 550,608.9176 M 555,0 555,608.9176 M 560,0 560,608.9176 M 565,0 565,608.9176 M 570,0 570,608.9176 M 575,0 575,608.9176 M 580,0 580,608.9176 M 585,0 585,608.9176 M 590,0 590,608.9176 M 595,0 595,608.9176 M 600,0 600,608.9176 M 605,0 605,608.9176 M 610,0 610,608.9176 M 615,0 615,608.9176 M 620,0 620,608.9176 M 625,0 625,608.9176 M 630,0 630,608.9176 M 635,0 635,608.9176 M 640,0 640,608.9176 M 645,0 645,608.9176 M 650,0 650,608.9176 M 655,0 655,608.9176 M 660,0 660,608.9176 M 665,0 665,608.9176 M 670,0 670,608.9176 M 675,0 675,608.9176 M 680,0 680,608.9176 M 685,0 685,608.9176 M 690,0 690,608.9176 M 695,0 695,608.9176 M 700,0 700,608.9176 M 705,0 705,608.9176 M 710,0 710,608.9176 M 715,0 715,608.9176 M 720,0 720,608.9176 M 725,0 725,608.9176 M 730,0 730,608.9176 M 735,0 735,608.9176 M 740,0 740,608.9176 M 745,0 745,608.9176 M 750,0 750,608.9176 M 755,0 755,608.9176 M 760,0 760,608.9176 M 765,0 765,608.9176 M 770,0 770,608.9176 M 775,0 775,608.9176 M 780,0 780,608.9176 M 785,0 785,608.9176 M 790,0 790,608.9176 M 795,0 795,608.9176 M 800,0 800,608.9176 M 805,0 805,608.9176 M 810,0 810,608.9176 M 815,0 815,608.9176 M 820,0 820,608.9176 M 825,0 825,608.9176 M 830,0 830,608.9176 M 835,0 835,608.9176 M 840,0 840,608.9176 M 845,0 845,608.9176 M 850,0 850,608.9176 M 855,0 855,608.9176 M 860,0 860,608.9176 M 865,0 865,608.9176 M 870,0 870,608.9176 M 875,0 875,608.9176 M 880,0 880,608.9176 M 885,0 885,608.9176 M 890,0 890,608.9176 M 895,0 895,608.9176 M 900,0 900,608.9176 M 905,0 905,608.9176 M 910,0 910,608.9176 M 915,0 915,608.9176 M 920,0 920,608.9176 M 925,0 925,608.9176 M 930,0 930,608.9176 M 935,0 935,608.9176 M 940,0 940,608.9176 M 945,0 945,608.9176 M 950,0 950,608.9176 M 955,0 955,608.9176 M 960,0 960,608.9176 M 965,0 965,608.9176 M 970,0 970,608.9176 M 975,0 975,608.9176 M 980,0 980,608.9176 M 985,0 985,608.9176 M 990,0 990,608.9176 M 995,0 995,608.9176 M 1000,0 l 0,608.9176 M 1005,0 l 0,608.9176 M 1010,0 l 0,608.9176 M 1015,0 l 0,608.9176 M 1020,0 l 0,608.9176 M 1025,0 l 0,608.9176 M 1030,0 l 0,608.9176 M 1035,0 l 0,608.9176 M 1040,0 l 0,608.9176 M 1045,0 l 0,608.9176 M 1050,0 l 0,608.9176 M 1055,0 l 0,608.9176 M 1060,0 l 0,608.9176 M 1065,0 l 0,608.9176 M 1070,0 l 0,608.9176 M 1075,0 l 0,608.9176 M 1080,0 l 0,608.9176 M 1085,0 l 0,608.9176 M 1090,0 l 0,608.9176 M 1095,0 l 0,608.9176 M 1100,0 l 0,608.9176 M 1105,0 l 0,608.9176 M 1110,0 l 0,608.9176 M 1115,0 l 0,608.9176 M 1120,0 l 0,608.9176 M 1125,0 l 0,608.9176 M 1130,0 l 0,608.9176 M 1135,0 l 0,608.9176 M 1140,0 l 0,608.9176 M 1145,0 l 0,608.9176 M 1150,0 l 0,608.9176 M 1155,0 l 0,608.9176 M 1160,0 l 0,608.9176 M 1165,0 l 0,608.9176 M 1170,0 l 0,608.9176 M 1175,0 l 0,608.9176 M 1180,0 l 0,608.9176 M 1185,0 l 0,608.9176 M 1190,0 l 0,608.9176 M 1195,0 l 0,608.9176 M 1200,0 l 0,608.9176 M 1205,0 l 0,608.9176 M 1210,0 l 0,608.9176 M 1215,0 l 0,608.9176 M 1220,0 l 0,608.9176 M 1225,0 l 0,608.9176 M 1230,0 l 0,608.9176 M 1235,0 l 0,608.9176 M 1240,0 l 0,608.9176 M 1245,0 l 0,608.9176 M 1250,0 l 0,608.9176 M 1255,0 l 0,608.9176 M 1260,0 l 0,608.9176 M 1265,0 l 0,608.9176 M 1270,0 l 0,608.9176 M 1275,0 l 0,608.9176 M 1280,0 l 0,608.9176 M 1285,0 l 0,608.9176 M 1290,0 l 0,608.9176 M 1295,0 l 0,608.9176 M 1300,0 l 0,608.9176 M 1305,0 l 0,608.9176 M 1310,0 l 0,608.9176 M 1315,0 l 0,608.9176 M 1320,0 l 0,608.9176 M 1325,0 l 0,608.9176 M 1330,0 l 0,608.9176 M 1335,0 l 0,608.9176 M 1340,0 l 0,608.9176 M 1345,0 l 0,608.9176 M 1350,0 l 0,608.9176 M 1355,0 l 0,608.9176 M 1360,0 l 0,608.9176 M 1365,0 l 0,608.9176 M 1370,0 l 0,608.9176 M 1375,0 l 0,608.9176 M 1380,0 l 0,608.9176 M 1385,0 l 0,608.9176 M 1390,0 l 0,608.9176 M 1395,0 l 0,608.9176 M 1400,0 l 0,608.9176 M 1405,0 l 0,608.9176 M 1410,0 l 0,608.9176 M 1415,0 l 0,608.9176 M 1420,0 l 0,608.9176 M 1425,0 l 0,608.9176 M 1430,0 l 0,608.9176 M 1435,0 l 0,608.9176 M 1440,0 l 0,608.9176 M 1445,0 l 0,608.9176 M 1450,0 l 0,608.9176 M 1455,0 l 0,608.9176 M 1460,0 l 0,608.9176 M 1465,0 l 0,608.9176 M 1470,0 l 0,608.9176 M 1475,0 l 0,608.9176 M 1480,0 l 0,608.9176 M 1485,0 l 0,608.9176 M 1490,0 l 0,608.9176 M 1495,0 l 0,608.9176 M 1500,0 l 0,608.9176 M 1505,0 l 0,608.9176 M 1510,0 l 0,608.9176 M 1515,0 l 0,608.9176 M 1520,0 l 0,608.9176 M 1525,0 l 0,608.9176 M 1530,0 l 0,608.9176 M 1535,0 l 0,608.9176 M 1540,0 l 0,608.9176 M 1545,0 l 0,608.9176 M 1550,0 l 0,608.9176 M 1555,0 l 0,608.9176 M 1560,0 l 0,608.9176 M 1565,0 l 0,608.9176 M 1570,0 l 0,608.9176 M 1575,0 l 0,608.9176 M 1580,0 l 0,608.9176 M 1585,0 l 0,608.9176 M 1590,0 l 0,608.9176 M 1595,0 l 0,608.9176 M 1600,0 l 0,608.9176 M 1605,0 l 0,608.9176 M 1610,0 l 0,608.9176 M 1615,0 l 0,608.9176 M 1620,0 l 0,608.9176 M 1625,0 l 0,608.9176 M 1630,0 l 0,608.9176 M 1635,0 l 0,608.9176 M 1640,0 l 0,608.9176 M 1645,0 l 0,608.9176 M 1650,0 l 0,608.9176 M 1655,0 l 0,608.9176 M 1660,0 l 0,608.9176 M 1665,0 l 0,608.9176 M 1670,0 l 0,608.9176 M 1675,0 l 0,608.9176 M 1680,0 l 0,608.9176 M 1685,0 l 0,608.9176 M 1690,0 l 0,608.9176 M 1695,0 l 0,608.9176 M 1700,0 l 0,608.9176 M 1705,0 l 0,608.9176 M 1710,0 l 0,608.9176 M 1715,0 l 0,608.9176 M 1720,0 l 0,608.9176 M 1725,0 l 0,608.9176 M 1730,0 l 0,608.9176 M 1735,0 l 0,608.9176 M 1740,0 l 0,608.9176 M 1745,0 l 0,608.9176 M 1750,0 l 0,608.9176 M 1755,0 l 0,608.9176 M 1760,0 l 0,608.9176 M 1765,0 l 0,608.9176 M 1770,0 l 0,608.9176 M 1775,0 l 0,608.9176 M 1780,0 l 0,608.9176 M 1785,0 l 0,608.9176 M 1790,0 l 0,608.9176 M 1795,0 l 0,608.9176 M 1800,0 l 0,608.9176 M 1805,0 l 0,608.9176 M 1810,0 l 0,608.9176 M 1815,0 l 0,608.9176 M 1820,0 l 0,608.9176 M 1825,0 l 0,608.9176 M 1830,0 l 0,608.9176 M 1835,0 l 0,608.9176 M 1840,0 l 0,608.9176 M 1845,0 l 0,608.9176 M 1850,0 l 0,608.9176 M 1855,0 l 0,608.9176 M 1860,0 l 0,608.9176 M 1865,0 l 0,608.9176 M 1870,0 l 0,608.9176 M 1875,0 l 0,608.9176 M 1880,0 l 0,608.9176 M 1885,0 l 0,608.9176 M 1890,0 l 0,608.9176 M 1895,0 l 0,608.9176 M 1900,0 l 0,608.9176 M 1905,0 l 0,608.9176 M 1910,0 l 0,608.9176 M 1915,0 l 0,608.9176 M 0,0 1919.9407,0 M 0,5 1919.9407,5 M 0,10 1919.9407,10 M 0,15 1919.9407,15 M 0,20 1919.9407,20 M 0,25 1919.9407,25 M 0,30 1919.9407,30 M 0,35 1919.9407,35 M 0,40 1919.9407,40 M 0,45 1919.9407,45 M 0,50 1919.9407,50 M 0,55 1919.9407,55 M 0,60 1919.9407,60 M 0,65 1919.9407,65 M 0,70 1919.9407,70 M 0,75 1919.9407,75 M 0,80 1919.9407,80 M 0,85 1919.9407,85 M 0,90 1919.9407,90 M 0,95 1919.9407,95 M 0,100 1919.9407,100 M 0,105 1919.9407,105 M 0,110 1919.9407,110 M 0,115 1919.9407,115 M 0,120 1919.9407,120 M 0,125 1919.9407,125 M 0,130 1919.9407,130 M 0,135 1919.9407,135 M 0,140 1919.9407,140 M 0,145 1919.9407,145 M 0,150 1919.9407,150 M 0,155 1919.9407,155 M 0,160 1919.9407,160 M 0,165 1919.9407,165 M 0,170 1919.9407,170 M 0,175 1919.9407,175 M 0,180 1919.9407,180 M 0,185 1919.9407,185 M 0,190 1919.9407,190 M 0,195 1919.9407,195 M 0,200 1919.9407,200 M 0,205 1919.9407,205 M 0,210 1919.9407,210 M 0,215 1919.9407,215 M 0,220 1919.9407,220 M 0,225 1919.9407,225 M 0,230 1919.9407,230 M 0,235 1919.9407,235 M 0,240 1919.9407,240 M 0,245 1919.9407,245 M 0,250 1919.9407,250 M 0,255 1919.9407,255 M 0,260 1919.9407,260 M 0,265 1919.9407,265 M 0,270 1919.9407,270 M 0,275 1919.9407,275 M 0,280 1919.9407,280 M 0,285 1919.9407,285 M 0,290 1919.9407,290 M 0,295 1919.9407,295 M 0,300 1919.9407,300 M 0,305 1919.9407,305 M 0,310 1919.9407,310 M 0,315 1919.9407,315 M 0,320 1919.9407,320 M 0,325 1919.9407,325 M 0,330 1919.9407,330 M 0,335 1919.9407,335 M 0,340 1919.9407,340 M 0,345 1919.9407,345 M 0,350 1919.9407,350 M 0,355 1919.9407,355 M 0,360 1919.9407,360 M 0,365 1919.9407,365 M 0,370 1919.9407,370 M 0,375 1919.9407,375 M 0,380 1919.9407,380 M 0,385 1919.9407,385 M 0,390 1919.9407,390 M 0,395 1919.9407,395 M 0,400 1919.9407,400 M 0,405 1919.9407,405 M 0,410 1919.9407,410 M 0,415 1919.9407,415 M 0,420 1919.9407,420 M 0,425 1919.9407,425 M 0,430 1919.9407,430 M 0,435 1919.9407,435 M 0,440 1919.9407,440 M 0,445 1919.9407,445 M 0,450 1919.9407,450 M 0,455 1919.9407,455 M 0,460 1919.9407,460 M 0,465 1919.9407,465 M 0,470 1919.9407,470 M 0,475 1919.9407,475 M 0,480 1919.9407,480 M 0,485 1919.9407,485 M 0,490 1919.9407,490 M 0,495 1919.9407,495 M 0,500 1919.9407,500 M 0,505 1919.9407,505 M 0,510 1919.9407,510 M 0,515 1919.9407,515 M 0,520 1919.9407,520 M 0,525 1919.9407,525 M 0,530 1919.9407,530 M 0,535 1919.9407,535 M 0,540 1919.9407,540 M 0,545 1919.9407,545 M 0,550 1919.9407,550 M 0,555 1919.9407,555 M 0,560 1919.9407,560 M 0,565 1919.9407,565 M 0,570 1919.9407,570 M 0,575 1919.9407,575 M 0,580 1919.9407,580 M 0,585 1919.9407,585 M 0,590 1919.9407,590 M 0,595 1919.9407,595 M 0,600 1919.9407,600 M 0,605 l 1919.9407,0"
       id="path3518"
       style="fill:none;stroke:#000000;stroke-width:0.1pt;stroke-linecap:butt;stroke-linejoin:miter;stroke-opacity:1" />
  </g>
</svg>
