<?xml version="1.0" encoding="UTF-8" standalone="no"?>
<svg
   xmlns:dc="http://purl.org/dc/elements/1.1/"
   xmlns:cc="http://creativecommons.org/ns#"
   xmlns:rdf="http://www.w3.org/1999/02/22-rdf-syntax-ns#"
   xmlns:svg="http://www.w3.org/2000/svg"
   xmlns="http://www.w3.org/2000/svg"
   xml:space="preserve"
   id="Layer_1"
   viewBox="0 0 77 77"
   height="77"
   width="77"
   version="1.1"><metadata
     id="metadata17548"><rdf:RDF><cc:Work
         rdf:about=""><dc:format>image/svg+xml</dc:format><dc:type
           rdf:resource="http://purl.org/dc/dcmitype/StillImage" /><dc:title></dc:title></cc:Work></rdf:RDF></metadata><defs
     id="defs17546" /><g
     style="fill:#000000;fill-opacity:1"
     id="g17550"
     transform="matrix(2.375,0,0,2.375,-0.6875,-0.6875)" /><g
     id="g4469"><ellipse
       ry="34.867374"
       rx="35.100471"
       cy="38.538464"
       cx="38.694641"
       id="path4323"
       style="color:#000000;display:inline;overflow:visible;visibility:visible;opacity:1;fill:#000000;fill-opacity:1;fill-rule:nonzero;stroke:#ff0000;stroke-width:0.96223044;stroke-linecap:butt;stroke-linejoin:miter;stroke-miterlimit:4;stroke-dasharray:none;stroke-dashoffset:0;stroke-opacity:1;marker:none;enable-background:accumulate" /><path
       d="m 38.5,0.5 c -20.987733,0 -38,17.012267 -38,38 0,20.987732 17.012267,38 38,38 20.987732,0 38,-17.012268 38,-38 0,-20.987733 -17.012268,-38 -38,-38 z m 0,70.0625 C 20.791857,70.5625 6.4375,56.208142 6.4375,38.5 6.4375,20.791857 20.791857,6.4375 38.5,6.4375 c 17.708142,0 32.0625,14.354357 32.0625,32.0625 0,17.708142 -14.354358,32.0625 -32.0625,32.0625 z"
       id="path17540"
       style="fill:#808080;fill-opacity:1" /></g></svg>