<?xml version="1.0" encoding="UTF-8" standalone="no"?>
<!-- Created with Inkscape (http://www.inkscape.org/) -->

<svg
   xmlns:dc="http://purl.org/dc/elements/1.1/"
   xmlns:cc="http://creativecommons.org/ns#"
   xmlns:rdf="http://www.w3.org/1999/02/22-rdf-syntax-ns#"
   xmlns:svg="http://www.w3.org/2000/svg"
   xmlns="http://www.w3.org/2000/svg"
   version="1.1"
   width="65"
   height="70.041237"
   viewBox="0 0 64.999999 70.041234"
   id="Layer_1"
   xml:space="preserve"><metadata
     id="metadata8491"><rdf:RDF><cc:Work
         rdf:about=""><dc:format>image/svg+xml</dc:format><dc:type
           rdf:resource="http://purl.org/dc/dcmitype/StillImage" /><dc:title></dc:title></cc:Work></rdf:RDF></metadata><defs
     id="defs8489" /><g
     transform="matrix(1.5360246,0,0,1.5360246,-23.425119,-20.902968)"
     id="g8453"
     style="fill:#ffffff"><path
       d="m 52.785,20.466 h -32.75 c -2.459,0 -4.459,2 -4.459,4.458 v 22.965 c 0,2.459 2,4.457 4.459,4.457 h 32.75 c 2.457,0 4.457,-1.998 4.457,-4.457 V 24.924 c 0,-2.458 -2,-4.458 -4.457,-4.458 z m 2.336,27.423 c 0,1.289 -1.047,2.338 -2.336,2.338 h -32.75 c -1.289,0 -2.338,-1.049 -2.338,-2.338 V 24.924 c 0,-1.289 1.049,-2.337 2.338,-2.337 h 32.75 c 1.287,0 2.336,1.048 2.336,2.337 v 22.965 z"
       id="path8455"
       style="fill:#ffffff" /><path
       d="m 36.408,25.824 c -5.844,0 -10.582,4.739 -10.582,10.583 0,5.845 4.738,10.582 10.582,10.582 5.846,0 10.584,-4.736 10.584,-10.582 0,-5.844 -4.738,-10.583 -10.584,-10.583 z M 33.539,42.147 V 30.67 l 7.668,5.737 -7.668,5.74 z"
       id="path8457"
       style="fill:#ffffff" /><path
       d="m 41.526,18.183 h 2.467 c 0.203,0 0.365,-0.162 0.365,-0.364 v -3.521 c 0,-0.202 -0.162,-0.364 -0.365,-0.364 h -2.467 c -0.201,0 -0.365,0.163 -0.365,0.364 v 3.521 c -0.001,0.202 0.162,0.364 0.365,0.364 z"
       id="path8459"
       style="fill:#ffffff" /><path
       d="m 35.176,18.183 h 2.469 c 0.201,0 0.363,-0.162 0.363,-0.364 v -3.521 c 0,-0.202 -0.162,-0.364 -0.363,-0.364 h -2.469 c -0.201,0 -0.365,0.163 -0.365,0.364 v 3.521 c 0,0.202 0.164,0.364 0.365,0.364 z"
       id="path8461"
       style="fill:#ffffff" /><path
       d="m 28.828,18.183 h 2.469 c 0.201,0 0.363,-0.162 0.363,-0.364 v -3.521 c 0,-0.202 -0.162,-0.364 -0.363,-0.364 h -2.469 c -0.201,0 -0.365,0.163 -0.365,0.364 v 3.521 c 0,0.202 0.164,0.364 0.365,0.364 z"
       id="path8463"
       style="fill:#ffffff" /><path
       d="m 22.483,18.183 h 2.465 c 0.201,0 0.365,-0.162 0.365,-0.364 v -3.521 c 0,-0.202 -0.164,-0.364 -0.365,-0.364 h -2.465 c -0.205,0 -0.367,0.163 -0.367,0.364 v 3.521 c -0.001,0.202 0.162,0.364 0.367,0.364 z"
       id="path8465"
       style="fill:#ffffff" /><path
       d="M 16.135,18.183 H 18.6 c 0.199,0 0.365,-0.162 0.365,-0.364 v -3.521 c 0,-0.202 -0.166,-0.364 -0.365,-0.364 h -2.465 c -0.205,0 -0.369,0.163 -0.369,0.364 v 3.521 c 0,0.202 0.164,0.364 0.369,0.364 z"
       id="path8467"
       style="fill:#ffffff" /><path
       d="m 47.873,18.183 h 2.467 c 0.199,0 0.365,-0.162 0.365,-0.364 v -3.521 c 0,-0.202 -0.166,-0.364 -0.365,-0.364 h -2.467 c -0.205,0 -0.363,0.163 -0.363,0.364 v 3.521 c 0,0.202 0.158,0.364 0.363,0.364 z"
       id="path8469"
       style="fill:#ffffff" /><path
       d="m 54.221,18.183 h 2.468 c 0.2,0 0.364,-0.162 0.364,-0.364 v -3.521 c 0,-0.202 -0.164,-0.364 -0.364,-0.364 h -2.468 c -0.202,0 -0.362,0.163 -0.362,0.364 v 3.521 c -0.001,0.202 0.159,0.364 0.362,0.364 z"
       id="path8471"
       style="fill:#ffffff" /><path
       d="m 43.992,54.632 h -2.469 c -0.201,0 -0.363,0.162 -0.363,0.365 v 3.52 c 0,0.203 0.162,0.365 0.363,0.365 h 2.469 c 0.201,0 0.363,-0.164 0.363,-0.365 v -3.52 c 0.003,-0.203 -0.161,-0.365 -0.363,-0.365 z"
       id="path8473"
       style="fill:#ffffff" /><path
       d="m 37.645,54.632 h -2.47 c -0.2,0 -0.364,0.162 -0.364,0.365 v 3.52 c 0,0.203 0.164,0.365 0.364,0.365 h 2.47 c 0.2,0 0.362,-0.164 0.362,-0.365 v -3.52 c 0.001,-0.203 -0.161,-0.365 -0.362,-0.365 z"
       id="path8475"
       style="fill:#ffffff" /><path
       d="m 31.297,54.632 h -2.469 c -0.201,0 -0.365,0.162 -0.365,0.365 v 3.52 c 0,0.203 0.164,0.365 0.365,0.365 h 2.469 c 0.201,0 0.363,-0.164 0.363,-0.365 v -3.52 c 0,-0.203 -0.162,-0.365 -0.363,-0.365 z"
       id="path8477"
       style="fill:#ffffff" /><path
       d="m 24.948,54.632 h -2.467 c -0.203,0 -0.365,0.162 -0.365,0.365 v 3.52 c 0,0.203 0.162,0.365 0.365,0.365 h 2.467 c 0.199,0 0.365,-0.164 0.365,-0.365 v -3.52 c 0,-0.203 -0.164,-0.365 -0.365,-0.365 z"
       id="path8479"
       style="fill:#ffffff" /><path
       d="m 18.6,54.632 h -2.465 c -0.205,0 -0.369,0.162 -0.369,0.365 v 3.52 c 0,0.203 0.164,0.365 0.369,0.365 H 18.6 c 0.199,0 0.365,-0.164 0.365,-0.365 v -3.52 c 0,-0.203 -0.166,-0.365 -0.365,-0.365 z"
       id="path8481"
       style="fill:#ffffff" /><path
       d="m 50.34,54.632 h -2.467 c -0.205,0 -0.363,0.162 -0.363,0.365 v 3.52 c 0,0.203 0.158,0.365 0.363,0.365 h 2.467 c 0.199,0 0.365,-0.164 0.365,-0.365 v -3.52 c 0,-0.203 -0.166,-0.365 -0.365,-0.365 z"
       id="path8483"
       style="fill:#ffffff" /><path
       d="M 56.688,54.632 H 54.22 c -0.202,0 -0.362,0.162 -0.362,0.365 v 3.52 c 0,0.203 0.159,0.365 0.362,0.365 h 2.468 c 0.2,0 0.364,-0.164 0.364,-0.365 v -3.52 c 10e-4,-0.203 -0.163,-0.365 -0.364,-0.365 z"
       id="path8485"
       style="fill:#ffffff" /></g></svg>