<?xml version="1.0" encoding="UTF-8" standalone="no"?>
<svg
   xmlns:dc="http://purl.org/dc/elements/1.1/"
   xmlns:cc="http://creativecommons.org/ns#"
   xmlns:rdf="http://www.w3.org/1999/02/22-rdf-syntax-ns#"
   xmlns:svg="http://www.w3.org/2000/svg"
   xmlns="http://www.w3.org/2000/svg"
   version="1.1"
   id="svg3460"
   viewBox="0 0 65.000001 49.968472"
   height="49.968472"
   width="65">
  <defs
     id="defs3462" />
  <metadata
     id="metadata3465">
    <rdf:RDF>
      <cc:Work
         rdf:about="">
        <dc:format>image/svg+xml</dc:format>
        <dc:type
           rdf:resource="http://purl.org/dc/dcmitype/StillImage" />
        <dc:title></dc:title>
      </cc:Work>
    </rdf:RDF>
  </metadata>
  <g
     transform="translate(-641.78571,-478.80654)"
     id="layer1">
    <g
       style="fill:#ffffff"
       id="g3480">
      <g
         style="fill:#ffffff"
         id="g3476">
        <path
           d="m 699.43965,479.30654 -50.3048,0 c -3.77709,0 -6.84914,3.07205 -6.84914,6.8476 l 0,35.27481 c 0,3.77708 3.07205,6.84606 6.84914,6.84606 l 50.3048,0 c 3.77402,0 6.84606,-3.06898 6.84606,-6.84606 l 0,-35.27481 c 0,-3.77555 -3.07204,-6.8476 -6.84606,-6.8476 z m 3.58816,42.12241 c 0,1.97993 -1.60822,3.59122 -3.58816,3.59122 l -50.3048,0 c -1.97994,0 -3.59123,-1.61129 -3.59123,-3.59122 l 0,-35.27481 c 0,-1.97993 1.61129,-3.58969 3.59123,-3.58969 l 50.3048,0 c 1.97687,0 3.58816,1.60976 3.58816,3.58969 l 0,35.27481 z"
           id="path8455"
           style="fill:#ffffff" />
        <path
           d="m 674.28418,487.53656 c -8.97653,0 -16.25421,7.27922 -16.25421,16.25575 0,8.97807 7.27768,16.25421 16.25421,16.25421 8.9796,0 16.25728,-7.27461 16.25728,-16.25421 0,-8.97653 -7.27768,-16.25575 -16.25728,-16.25575 z m -4.40686,25.07253 0,-17.62895 11.77824,8.81217 -11.77824,8.81678 z"
           id="path8457"
           style="fill:#ffffff" />
      </g>
    </g>
  </g>
</svg>
