<?xml version="1.0" encoding="UTF-8" standalone="no"?>
<svg
   xmlns:dc="http://purl.org/dc/elements/1.1/"
   xmlns:cc="http://creativecommons.org/ns#"
   xmlns:rdf="http://www.w3.org/1999/02/22-rdf-syntax-ns#"
   xmlns:svg="http://www.w3.org/2000/svg"
   xmlns="http://www.w3.org/2000/svg"
   id="svg4842"
   xml:space="preserve"
   enable-background="new 0 0 50 50"
   viewBox="0 0 65 40.382813"
   height="40.382812"
   width="65"
   y="0px"
   x="0px"
   version="1.1"><metadata
     id="metadata5041"><rdf:RDF><cc:Work
         rdf:about=""><dc:format>image/svg+xml</dc:format><dc:type
           rdf:resource="http://purl.org/dc/dcmitype/StillImage" /><dc:title></dc:title></cc:Work></rdf:RDF></metadata><defs
     id="defs5039" /><g
     transform="translate(8.1142841,-4.2111423)"
     id="text" /><g
     transform="translate(8.1142841,-4.2111423)"
     id="_x31_" /><g
     transform="translate(8.1142841,-4.2111423)"
     id="_x32_" /><g
     transform="translate(8.1142841,-4.2111423)"
     id="_x33__1_" /><g
     transform="translate(8.1142841,-4.2111423)"
     id="_x34_" /><g
     transform="translate(8.1142841,-4.2111423)"
     id="_x35_" /><g
     transform="translate(8.1142841,-4.2111423)"
     id="_x36_" /><g
     transform="translate(8.1142841,-4.2111423)"
     id="_x37_" /><g
     transform="translate(8.1142841,-4.2111423)"
     id="_x38_" /><g
     transform="translate(8.1142841,-4.2111423)"
     id="_x39_" /><g
     transform="translate(8.1142841,-4.2111423)"
     id="_x31_0" /><g
     transform="translate(8.1142841,-4.2111423)"
     id="_x31_1" /><g
     transform="translate(8.1142841,-4.2111423)"
     id="_x31_2" /><g
     transform="translate(8.1142841,-4.2111423)"
     id="_x31_3" /><g
     transform="translate(8.1142841,-4.2111423)"
     id="_x31_4" /><g
     transform="translate(8.1142841,-4.2111423)"
     id="_x31_5" /><g
     transform="translate(8.1142841,-4.2111423)"
     id="_x31_6" /><g
     transform="translate(8.1142841,-4.2111423)"
     id="_x31_7" /><g
     transform="translate(8.1142841,-4.2111423)"
     id="_x31_8" /><g
     transform="translate(8.1142841,-4.2111423)"
     id="_x31_9" /><g
     transform="translate(8.1142841,-4.2111423)"
     id="_x32_0" /><g
     transform="translate(8.1142841,-4.2111423)"
     id="_x32_1" /><g
     transform="translate(8.1142841,-4.2111423)"
     id="_x32_2" /><g
     transform="translate(8.1142841,-4.2111423)"
     id="_x32_3" /><g
     transform="translate(8.1142841,-4.2111423)"
     id="_x32_4" /><g
     transform="translate(8.1142841,-4.2111423)"
     id="_x32_5" /><g
     transform="translate(8.1142841,-4.2111423)"
     id="_x32_6" /><g
     transform="translate(8.1142841,-4.2111423)"
     id="_x32_7" /><g
     transform="translate(8.1142841,-4.2111423)"
     id="_x32_8" /><g
     transform="translate(8.1142841,-4.2111423)"
     id="_x32_9" /><g
     transform="translate(8.1142841,-4.2111423)"
     id="_x33_0" /><g
     transform="translate(8.1142841,-4.2111423)"
     id="_x33_1" /><g
     transform="translate(8.1142841,-4.2111423)"
     id="_x33_2" /><g
     transform="translate(8.1142841,-4.2111423)"
     id="_x33_3" /><g
     transform="translate(8.1142841,-4.2111423)"
     id="_x33_4" /><g
     transform="translate(8.1142841,-4.2111423)"
     id="_x33_5" /><g
     transform="translate(8.1142841,-4.2111423)"
     id="_x33_6" /><g
     transform="translate(8.1142841,-4.2111423)"
     id="_x33_7" /><g
     transform="translate(8.1142841,-4.2111423)"
     id="_x33_8" /><g
     transform="translate(8.1142841,-4.2111423)"
     id="_x33_9" /><g
     transform="translate(8.1142841,-4.2111423)"
     id="_x34_0" /><g
     transform="translate(8.1142841,-4.2111423)"
     id="_x34_1" /><g
     transform="translate(8.1142841,-4.2111423)"
     id="_x34_2" /><g
     transform="translate(8.1142841,-4.2111423)"
     id="_x34_3" /><g
     transform="translate(8.1142841,-4.2111423)"
     id="_x34_4" /><g
     transform="translate(8.1142841,-4.2111423)"
     id="_x34_5" /><g
     transform="translate(8.1142841,-4.2111423)"
     id="_x34_6" /><g
     transform="translate(8.1142841,-4.2111423)"
     id="_x34_7" /><g
     transform="translate(8.1142841,-4.2111423)"
     id="_x34_8" /><g
     transform="translate(8.1142841,-4.2111423)"
     id="_x34_9" /><g
     transform="translate(8.1142841,-4.2111423)"
     id="_x35_0" /><g
     transform="translate(8.1142841,-4.2111423)"
     id="_x35_1" /><g
     transform="translate(8.1142841,-4.2111423)"
     id="_x35_2" /><g
     transform="translate(8.1142841,-4.2111423)"
     id="_x35_3" /><g
     transform="translate(8.1142841,-4.2111423)"
     id="_x35_4" /><g
     transform="translate(8.1142841,-4.2111423)"
     id="_x35_5" /><g
     transform="translate(8.1142841,-4.2111423)"
     id="_x35_6" /><g
     transform="translate(8.1142841,-4.2111423)"
     id="_x35_7" /><g
     transform="translate(8.1142841,-4.2111423)"
     id="_x35_8" /><g
     transform="translate(8.1142841,-4.2111423)"
     id="_x35_9" /><g
     transform="translate(8.1142841,-4.2111423)"
     id="_x36_0" /><g
     transform="translate(8.1142841,-4.2111423)"
     id="_x36_1" /><g
     transform="translate(8.1142841,-4.2111423)"
     id="_x36_2" /><g
     transform="translate(8.1142841,-4.2111423)"
     id="_x36_3" /><g
     transform="translate(8.1142841,-4.2111423)"
     id="_x36_4" /><g
     transform="translate(8.1142841,-4.2111423)"
     id="_x36_5" /><g
     transform="translate(8.1142841,-4.2111423)"
     id="_x36_6" /><g
     transform="translate(8.1142841,-4.2111423)"
     id="_x36_7" /><g
     transform="translate(8.1142841,-4.2111423)"
     id="_x36_8" /><g
     transform="translate(8.1142841,-4.2111423)"
     id="_x36_9" /><g
     transform="translate(8.1142841,-4.2111423)"
     id="_x37_0" /><g
     transform="translate(8.1142841,-4.2111423)"
     id="_x37_1" /><g
     transform="translate(8.1142841,-4.2111423)"
     id="_x37_2" /><g
     transform="translate(8.1142841,-4.2111423)"
     id="_x37_3" /><g
     transform="translate(8.1142841,-4.2111423)"
     id="_x37_4" /><g
     transform="translate(8.1142841,-4.2111423)"
     id="_x37_5" /><g
     transform="translate(8.1142841,-4.2111423)"
     id="_x37_6" /><g
     transform="translate(8.1142841,-4.2111423)"
     id="_x37_7" /><g
     transform="translate(8.1142841,-4.2111423)"
     id="_x37_8" /><g
     transform="translate(8.1142841,-4.2111423)"
     id="_x37_9" /><g
     transform="translate(8.1142841,-4.2111423)"
     id="_x38_0" /><g
     transform="translate(8.1142841,-4.2111423)"
     id="_x38_1" /><g
     transform="translate(8.1142841,-4.2111423)"
     id="_x38_2" /><g
     transform="translate(8.1142841,-4.2111423)"
     id="_x38_3" /><g
     transform="translate(8.1142841,-4.2111423)"
     id="_x38_4" /><g
     transform="translate(8.1142841,-4.2111423)"
     id="_x38_5" /><g
     transform="translate(8.1142841,-4.2111423)"
     id="_x38_6" /><g
     transform="translate(8.1142841,-4.2111423)"
     id="_x38_7" /><g
     transform="translate(8.1142841,-4.2111423)"
     id="_x38_8" /><g
     transform="translate(8.1142841,-4.2111423)"
     id="_x38_9" /><g
     transform="translate(8.1142841,-4.2111423)"
     id="_x39_0" /><g
     transform="translate(8.1142841,-4.2111423)"
     id="_x39_1" /><g
     transform="translate(8.1142841,-4.2111423)"
     id="_x39_2" /><g
     transform="translate(8.1142841,-4.2111423)"
     id="_x39_3" /><g
     transform="translate(8.1142841,-4.2111423)"
     id="_x39_4" /><g
     transform="translate(8.1142841,-4.2111423)"
     id="_x39_5" /><g
     transform="translate(8.1142841,-4.2111423)"
     id="_x39_6" /><g
     transform="translate(8.1142841,-4.2111423)"
     id="_x39_7" /><g
     transform="translate(8.1142841,-4.2111423)"
     id="_x39_8" /><g
     transform="translate(8.1142841,-4.2111423)"
     id="_x39_9" /><g
     transform="translate(8.1142841,-4.2111423)"
     id="_x31_00" /><g
     transform="translate(8.1142841,-4.2111423)"
     id="_x31_01" /><g
     transform="translate(8.1142841,-4.2111423)"
     id="_x31_02" /><g
     transform="translate(8.1142841,-4.2111423)"
     id="_x31_03" /><g
     transform="translate(8.1142841,-4.2111423)"
     id="_x31_04" /><g
     transform="translate(8.1142841,-4.2111423)"
     id="_x31_05" /><g
     transform="translate(8.1142841,-4.2111423)"
     id="_x31_06" /><g
     transform="translate(8.1142841,-4.2111423)"
     id="_x31_07" /><g
     transform="translate(8.1142841,-4.2111423)"
     id="_x31_08" /><g
     transform="translate(8.1142841,-4.2111423)"
     id="_x31_09" /><g
     transform="translate(8.1142841,-4.2111423)"
     id="_x31_10" /><g
     transform="translate(8.1142841,-4.2111423)"
     id="_x31_11" /><g
     transform="translate(8.1142841,-4.2111423)"
     id="_x31_12" /><g
     transform="translate(8.1142841,-4.2111423)"
     id="_x31_13" /><g
     transform="translate(8.1142841,-4.2111423)"
     id="_x31_14" /><g
     transform="translate(8.1142841,-4.2111423)"
     id="_x31_15" /><g
     transform="translate(8.1142841,-4.2111423)"
     id="_x31_16" /><g
     transform="translate(8.1142841,-4.2111423)"
     id="_x31_17" /><g
     transform="translate(8.1142841,-4.2111423)"
     id="_x31_18" /><g
     transform="translate(8.1142841,-4.2111423)"
     id="_x31_19" /><g
     transform="translate(8.1142841,-4.2111423)"
     id="_x31_20" /><g
     transform="translate(8.1142841,-4.2111423)"
     id="_x31_21" /><g
     transform="translate(8.1142841,-4.2111423)"
     id="_x31_22" /><g
     transform="translate(8.1142841,-4.2111423)"
     id="_x31_23" /><g
     transform="translate(8.1142841,-4.2111423)"
     id="_x31_24" /><g
     transform="translate(8.1142841,-4.2111423)"
     id="_x31_25" /><g
     transform="translate(8.1142841,-4.2111423)"
     id="_x31_26" /><g
     transform="translate(8.1142841,-4.2111423)"
     id="_x31_27" /><g
     transform="translate(8.1142841,-4.2111423)"
     id="_x31_28" /><g
     transform="translate(8.1142841,-4.2111423)"
     id="_x31_29" /><g
     transform="translate(8.1142841,-4.2111423)"
     id="_x31_30" /><g
     transform="translate(8.1142841,-4.2111423)"
     id="_x31_31" /><g
     transform="translate(8.1142841,-4.2111423)"
     id="_x31_32" /><g
     transform="translate(8.1142841,-4.2111423)"
     id="_x31_33" /><g
     transform="translate(8.1142841,-4.2111423)"
     id="_x31_34" /><g
     transform="translate(8.1142841,-4.2111423)"
     id="_x31_35" /><g
     transform="translate(8.1142841,-4.2111423)"
     id="_x31_36" /><g
     transform="translate(8.1142841,-4.2111423)"
     id="_x31_37" /><g
     transform="translate(8.1142841,-4.2111423)"
     id="_x31_38" /><g
     transform="translate(8.1142841,-4.2111423)"
     id="_x31_39" /><g
     transform="translate(8.1142841,-4.2111423)"
     id="_x31_40" /><g
     transform="translate(8.1142841,-4.2111423)"
     id="_x31_41" /><g
     transform="translate(8.1142841,-4.2111423)"
     id="_x31_42" /><g
     transform="translate(8.1142841,-4.2111423)"
     id="_x31_43" /><g
     transform="translate(8.1142841,-4.2111423)"
     id="_x31_44" /><g
     transform="translate(8.1142841,-4.2111423)"
     id="_x31_45" /><g
     transform="translate(8.1142841,-4.2111423)"
     id="_x31_46" /><g
     transform="translate(8.1142841,-4.2111423)"
     id="_x31_47" /><g
     transform="translate(8.1142841,-4.2111423)"
     id="_x31_48" /><g
     transform="translate(8.1142841,-4.2111423)"
     id="_x31_49" /><g
     transform="translate(8.1142841,-4.2111423)"
     id="_x31_50" /><g
     transform="translate(8.1142841,-4.2111423)"
     id="_x31_51" /><g
     transform="translate(8.1142841,-4.2111423)"
     id="_x31_52" /><g
     transform="translate(8.1142841,-4.2111423)"
     id="_x31_53" /><g
     transform="translate(8.1142841,-4.2111423)"
     id="_x31_54" /><g
     transform="translate(8.1142841,-4.2111423)"
     id="_x31_55" /><g
     transform="translate(8.1142841,-4.2111423)"
     id="_x31_56" /><g
     transform="translate(8.1142841,-4.2111423)"
     id="_x31_57" /><g
     transform="translate(8.1142841,-4.2111423)"
     id="_x31_58" /><g
     transform="translate(8.1142841,-4.2111423)"
     id="_x31_59" /><g
     transform="translate(8.1142841,-4.2111423)"
     id="_x31_60" /><g
     transform="translate(8.1142841,-4.2111423)"
     id="_x31_61" /><g
     transform="translate(8.1142841,-4.2111423)"
     id="_x31_62" /><g
     transform="translate(8.1142841,-4.2111423)"
     id="_x31_63" /><g
     transform="translate(8.1142841,-4.2111423)"
     id="_x31_64" /><g
     transform="translate(8.1142841,-4.2111423)"
     id="_x31_65" /><g
     transform="translate(8.1142841,-4.2111423)"
     id="_x31_66" /><g
     transform="translate(8.1142841,-4.2111423)"
     id="_x31_67" /><g
     transform="translate(8.1142841,-4.2111423)"
     id="_x31_68" /><g
     transform="translate(8.1142841,-4.2111423)"
     id="_x31_69" /><g
     transform="translate(8.1142841,-4.2111423)"
     id="_x31_70" /><g
     transform="translate(8.1142841,-4.2111423)"
     id="_x31_72" /><g
     transform="translate(8.1142841,-4.2111423)"
     id="_x31_73" /><g
     transform="translate(8.1142841,-4.2111423)"
     id="_x31_74" /><g
     transform="translate(8.1142841,-4.2111423)"
     id="_x31_75" /><g
     transform="translate(8.1142841,-4.2111423)"
     id="_x31_76" /><g
     transform="translate(8.1142841,-4.2111423)"
     id="_x31_77" /><g
     transform="translate(8.1142841,-4.2111423)"
     id="_x31_78" /><g
     transform="translate(8.1142841,-4.2111423)"
     id="_x31_79" /><g
     transform="translate(8.1142841,-4.2111423)"
     id="_x31_80" /><g
     transform="translate(8.1142841,-4.2111423)"
     id="_x31_81" /><g
     transform="translate(8.1142841,-4.2111423)"
     id="_x31_82" /><g
     transform="translate(8.1142841,-4.2111423)"
     id="_x31_83" /><g
     transform="translate(8.1142841,-4.2111423)"
     id="_x31_84" /><g
     transform="translate(8.1142841,-4.2111423)"
     id="_x31_85" /><g
     transform="translate(8.1142841,-4.2111423)"
     id="_x31_86" /><g
     transform="translate(8.1142841,-4.2111423)"
     id="_x31_87" /><g
     transform="translate(8.1142841,-4.2111423)"
     id="_x31_88" /><g
     transform="translate(8.1142841,-4.2111423)"
     id="_x31_89" /><g
     transform="translate(8.1142841,-4.2111423)"
     id="_x31_90" /><g
     transform="translate(0.61428434,0.53016311)"
     style="display:inline"
     id="layer1"><path
       id="path6005"
       d="m 15.142857,12.346958 c 0.227836,0.01548 0.458173,-0.02167 0.685714,0 0.268161,0.02554 0.5341,0.07117 0.8,0.114286 1.299053,0.210657 1.957026,0.328139 3.314286,0.742857 1.237283,0.378059 3.858716,1.406343 4.914286,1.828572 0.975419,0.390167 1.942857,0.8 2.914286,1.2 0.971428,0.4 1.955116,0.771435 2.914285,1.2 4.122359,1.841905 0.78258,0.64044 4.571429,1.942857 0.512661,0.176227 1.028571,0.342857 1.542857,0.514285 0.4,0.133334 0.810121,0.239462 1.2,0.4 0.260052,0.10708 0.488695,0.279608 0.742857,0.4 0.108871,0.05157 0.232772,0.06536 0.342857,0.114286 0.06276,0.02789 0.107664,0.08878 0.171429,0.114286 0.03537,0.01415 0.07733,-0.0092 0.114286,0 0.384899,0.09623 8.82e-4,8.82e-4 0.114285,0.114286 0.01347,0.01347 0.0381,0 0.05714,0 0.01905,0 0.0381,0 0.05714,0"
       style="fill:none;fill-rule:evenodd;stroke:#000000;stroke-width:1px;stroke-linecap:butt;stroke-linejoin:miter;stroke-opacity:1" /><path
       id="path6007"
       d="m 16.514286,8.0041011 c 0.197699,-0.063229 0.373991,-0.057143 0.571428,-0.057143 0.05714,0 0.114636,-0.00631 0.171429,0 0.115153,0.012795 0.228758,0.037008 0.342857,0.057143 0.209718,0.037009 0.420029,0.071139 0.628571,0.1142857 0.936758,0.193812 1.499293,0.3338482 2.457143,0.6285715 0.518133,0.1594253 1.023088,0.3602801 1.542857,0.5142857 0.509399,0.1509329 1.028572,0.2666667 1.542858,0.4 2.895723,0.750743 0.266978,0.085788 2.8,0.685714 0.305684,0.0724 0.618714,0.122166 0.914285,0.228572 0.682033,0.378907 0.292823,0.213561 0.914286,0.4 0.05769,0.01731 0.117554,0.03021 0.171429,0.05714 0.02409,0.01205 0.03473,0.0422 0.05714,0.05714 0.03544,0.02363 0.114286,0.01455 0.114286,0.05714 0,0.0381 -0.07619,0 -0.114286,0 -0.133333,0 -0.266666,0 -0.4,0 -0.01905,0 -0.04367,-0.01347 -0.05714,0 -0.01347,0.01347 0,0.0381 0,0.05714"
       style="fill:none;fill-rule:evenodd;stroke:#000000;stroke-width:1px;stroke-linecap:butt;stroke-linejoin:miter;stroke-opacity:1" /><path
       id="path6009"
       d="M -0.11428571,6.1183868 C 6.2212125,7.9887197 13.276195,10.518387 20.057143,10.518387"
       style="fill:none;fill-rule:evenodd;stroke:#000000;stroke-width:1px;stroke-linecap:butt;stroke-linejoin:miter;stroke-opacity:1" /><path
       id="path6011"
       d="M 1.7027603,19.013649 C 12.6736,20.366818 26.05521,20.861795 36.342857,25.089815 26.146171,20.538122 12.735983,19.702423 1.8400969,18.023125 Z"
       style="fill:#000000;fill-rule:evenodd;stroke:none;stroke-width:1px;stroke-linecap:butt;stroke-linejoin:miter;stroke-opacity:1" /><rect
       y="0.37934327"
       x="0.29522204"
       height="38.563801"
       width="63.180988"
       id="rect6015"
       style="color:#000000;display:inline;overflow:visible;visibility:visible;opacity:1;fill:#ffffff;fill-opacity:1;fill-rule:nonzero;stroke:#ffffff;stroke-width:0.81901276;stroke-linecap:butt;stroke-linejoin:miter;stroke-miterlimit:4;stroke-dasharray:none;stroke-dashoffset:0;stroke-opacity:1;marker:none;enable-background:accumulate" /><path
       style="fill:#00490c;fill-opacity:1"
       d="m 63.900001,1.7150258 0,-1.79299903 -63.99999943,0 0,1.79299903 7.95421603,0 0,5.516703 -7.95421603,0 0,24.8294222 7.50987103,0 0,5.516703 -7.50987103,0 0,1.862561 63.99999943,0 0,-1.862561 -8.399982,0 0,-5.516703 8.399982,0 0,-24.8308422 -7.955637,0 0,-5.516702 7.955637,0 z m -42.303713,0 8.935185,0 0,5.516703 -8.935185,0 0,-5.516703 z M 38.417547,18.533446 c 0.881593,0.54514 1.276252,1.976133 0.197329,2.597933 -2.897475,1.676589 -5.796371,3.350339 -8.693846,5.026928 -0.911406,0.526685 -2.348077,0.08092 -2.348077,-1.141386 0.0142,-3.456812 0.01987,-6.916464 0.02271,-10.373276 0.0043,-0.327935 0.113571,-0.593407 0.255534,-0.81629 0.299543,-0.665809 0.980968,-1.086021 1.770286,-0.689943 0.03691,0.0142 0.06246,0.02839 0.0937,0.03691 0.0099,0.0043 0.01845,0.0043 0.02981,0.0085 0.01136,0.0085 0.02129,0.0142 0.03407,0.01988 0.15758,0.0582 0.295284,0.144802 0.413114,0.259793 2.742735,1.693625 5.484051,3.381571 8.225367,5.070937 z m -19.558316,19.042988 -8.9337654,0 0,-5.516703 8.9337654,0 0,5.516703 z m 0.444346,-30.3461252 -8.935184,0 0,-5.516702 8.935184,0 0,5.516702 z m 10.78213,30.3461252 -8.933765,0 0,-5.516703 8.933765,0 0,5.516703 z m 11.450779,0 -8.935185,0 0,-5.516703 8.935185,0 0,5.516703 z m 0.444346,-30.3461252 -8.933765,0 0,-5.516702 8.933765,0 0,5.516702 z m 11.005012,30.3461252 -8.935184,0 0,-5.516703 8.935184,0 0,5.516703 z m 0.444346,-30.3461252 -8.935184,0 0,-5.516702 8.935184,0 0,5.516702 z"
       id="path5016" /></g></svg>